<?xml version="1.0" encoding="utf-8"?>
<!-- Generator: Adobe Illustrator 21.1.0, SVG Export Plug-In . SVG Version: 6.00 Build 0)  -->
<svg version="1.1" id="Layer_1" xmlns="http://www.w3.org/2000/svg" xmlns:xlink="http://www.w3.org/1999/xlink" x="0px" y="0px"
	 viewBox="0 0 841.9 231.5" style="enable-background:new 0 0 841.9 231.5;" xml:space="preserve">
<style type="text/css">
	.st0{fill:#FFFFFF;}
</style>
<g>
	<g>
		<g>
			<path class="st0" d="M304.8,139.3c-6.8,6.6-15.2,10-25.1,10c-9.9,0-18.3-3.3-25.1-10c-6.8-6.6-10.2-14.9-10.2-24.8
				c0-9.9,3.4-18.1,10.2-24.8c6.8-6.6,15.2-10,25.1-10c9.9,0,18.3,3.3,25.1,10c6.8,6.6,10.2,14.9,10.2,24.8
				C315,124.4,311.6,132.7,304.8,139.3z M299.7,114.6c0-6-1.9-11.1-5.8-15.3c-3.8-4.2-8.6-6.3-14.2-6.3c-5.6,0-10.3,2.1-14.2,6.3
				c-3.8,4.2-5.8,9.3-5.8,15.3c0,6,1.9,11.1,5.8,15.3c3.8,4.2,8.6,6.3,14.2,6.3c5.6,0,10.3-2.1,14.2-6.3
				C297.8,125.7,299.7,120.6,299.7,114.6z"/>
			<path class="st0" d="M377.3,87.4c4.7,4,7.1,10.2,7.1,18.5c0,8.3-2.4,14.4-7.3,18.2c-4.8,3.8-12.2,5.8-22.2,5.8H346v18.8h-15V81.4
				h23.8C365.1,81.4,372.6,83.4,377.3,87.4z M366.3,113.8c1.8-2,2.7-5,2.7-8.8c0-3.9-1.2-6.6-3.5-8.3c-2.3-1.6-6-2.5-10.9-2.5H346
				v22.6h10.1C361.1,116.9,364.5,115.9,366.3,113.8z"/>
			<path class="st0" d="M448.4,81.4v13.4h-33.5v13.8H445v12.8h-30.1v13.9h34.5v13.3h-49.5V81.4H448.4z"/>
			<path class="st0" d="M513.6,81.4h15v67.2h-15l-32-42.1v42.1h-15V81.4h14l33,43.3V81.4z"/>
		</g>
		<g>
			<g>
				<path class="st0" d="M575.5,102.5c1.5,0,2.7-0.2,3.7-0.7c1-0.5,2.1-1.3,3.3-2.3l2.7,2.8c-2.6,2.9-5.8,4.4-9.6,4.4
					c-3.8,0-6.9-1.2-9.4-3.6c-2.5-2.4-3.7-5.5-3.7-9.2c0-3.7,1.3-6.8,3.8-9.3c2.5-2.5,5.7-3.7,9.6-3.7c3.9,0,7.1,1.4,9.7,4.3
					l-2.7,2.9c-1.2-1.1-2.3-1.9-3.4-2.4c-1.1-0.5-2.3-0.7-3.7-0.7c-2.5,0-4.6,0.8-6.3,2.4c-1.7,1.6-2.6,3.7-2.6,6.2
					c0,2.5,0.9,4.6,2.6,6.3C571.1,101.6,573.1,102.5,575.5,102.5z"/>
				<path class="st0" d="M611.7,102.9c-2.5,2.5-5.6,3.7-9.3,3.7c-3.7,0-6.8-1.2-9.3-3.7c-2.5-2.5-3.8-5.5-3.8-9.2
					c0-3.7,1.3-6.7,3.8-9.2c2.5-2.5,5.6-3.7,9.3-3.7c3.7,0,6.8,1.2,9.3,3.7c2.5,2.5,3.8,5.5,3.8,9.2
					C615.4,97.3,614.2,100.4,611.7,102.9z M608.6,87.3c-1.7-1.8-3.8-2.6-6.3-2.6s-4.6,0.9-6.3,2.6c-1.7,1.8-2.6,3.9-2.6,6.4
					c0,2.5,0.9,4.6,2.6,6.4c1.7,1.8,3.8,2.6,6.3,2.6s4.6-0.9,6.3-2.6c1.7-1.8,2.6-3.9,2.6-6.4C611.1,91.2,610.3,89,608.6,87.3z"/>
				<path class="st0" d="M640.8,81.4h4.2v24.9h-4.6l-14.1-18.2v18.2h-4.2V81.4h4.2l14.5,18.6V81.4z"/>
				<path class="st0" d="M663.2,85.2v21.1H659V85.2h-7.6v-3.9h19.3v3.9H663.2z"/>
				<path class="st0" d="M678.9,100.6l-2.5,5.7h-4.5l11-24.9h4.5l11,24.9h-4.5l-2.5-5.7H678.9z M689.7,96.8l-4.5-10.3l-4.5,10.3
					H689.7z"/>
				<path class="st0" d="M704.6,81.4h4.2v24.9h-4.2V81.4z"/>
				<path class="st0" d="M736.6,81.4h4.2v24.9h-4.6l-14.1-18.2v18.2h-4.2V81.4h4.2l14.5,18.6V81.4z"/>
				<path class="st0" d="M767.2,81.4v4h-13.3v6.6h11.9v3.7h-11.9v6.7h13.7v4h-17.9V81.4H767.2z"/>
				<path class="st0" d="M795,89.5c0,4.1-1.8,6.7-5.4,7.8l6.5,9.1h-5.4l-6-8.4h-5.5v8.4h-4.2V81.4h9.3c3.8,0,6.5,0.6,8.2,1.9
					S795,86.6,795,89.5z M789.4,93c0.9-0.7,1.3-1.9,1.3-3.5c0-1.6-0.4-2.7-1.3-3.4c-0.9-0.6-2.4-0.9-4.7-0.9h-5.4v8.9h5.2
					C786.9,94.1,788.5,93.7,789.4,93z"/>
			</g>
			<path class="st0" d="M564.1,123.7h4.2v24.9h-4.2V123.7z"/>
			<path class="st0" d="M599.3,123.7h4.2v24.9h-4.6l-14.1-18.2v18.2h-4.2v-24.9h4.2l14.5,18.6V123.7z"/>
			<path class="st0" d="M615.8,123.7h4.2v24.9h-4.2V123.7z"/>
			<path class="st0" d="M641.3,127.5v21.1h-4.2v-21.1h-7.6v-3.9h19.3v3.9H641.3z"/>
			<path class="st0" d="M658.5,123.7h4.2v24.9h-4.2V123.7z"/>
			<path class="st0" d="M678.7,142.9l-2.5,5.7h-4.5l11-24.9h4.5l11,24.9h-4.5l-2.5-5.7H678.7z M689.5,139l-4.5-10.3l-4.5,10.3H689.5
				z"/>
			<path class="st0" d="M714,127.5v21.1h-4.2v-21.1h-7.6v-3.9h19.3v3.9H714z"/>
			<path class="st0" d="M731.1,123.7h4.2v24.9h-4.2V123.7z"/>
			<path class="st0" d="M759.2,148.6h-4.7l-10-24.9h4.7l7.7,18.6l7.7-18.6h4.7L759.2,148.6z"/>
			<path class="st0" d="M795.8,123.7v4h-13.3v6.6h11.9v3.7h-11.9v6.7h13.7v4h-17.9v-24.9H795.8z"/>
		</g>
	</g>
	<g>
		<g>
			<polygon class="st0" points="139.6,92.1 139.6,68.6 81.2,68.6 81.2,160.6 139.6,160.6 139.6,137 104.8,137 104.8,92.1 			"/>
			<g>
				<rect x="151.4" y="68.6" class="st0" width="23.6" height="23.6"/>
				<rect x="151.4" y="103.9" class="st0" width="23.6" height="56.6"/>
			</g>
		</g>
		<path class="st0" d="M45.8,32.3v164.6h164.6V32.3H45.8z M186.7,172.4H69.4V56.7h117.3V172.4z"/>
	</g>
</g>
</svg>
