<?xml version="1.0" encoding="utf-8"?>
<!-- Generator: Adobe Illustrator 24.1.0, SVG Export Plug-In . SVG Version: 6.00 Build 0)  -->
<svg version="1.1" id="Layer_1" xmlns="http://www.w3.org/2000/svg" xmlns:xlink="http://www.w3.org/1999/xlink" x="0px" y="0px"
	 viewBox="0 0 94.6 94.6" style="enable-background:new 0 0 94.6 94.6;" xml:space="preserve">
<style type="text/css">
	.st0{fill:none;}
	.st1{fill:#262261;}
</style>
<g>
	<polygon class="st0" points="35.1,40.8 33.1,38.9 26.9,45.1 24.5,42.7 22.5,44.6 26.9,49 	"/>
	<polygon class="st0" points="73,69.7 68.4,69.7 68.4,72.2 68.4,85.6 86.6,85.6 86.6,72.2 73,72.2 	"/>
	<path class="st0" d="M20.7,58.2c3.1,2.3,6.2,3.6,6.5,3.8c0.5,0.2,1,0.3,1.6,0.3s1.1-0.1,1.6-0.3c0.3-0.2,3.4-1.5,6.5-3.8
		c2-1.4,3.6-2.9,4.8-4.4c1.8-2.2,2.6-4.6,2.6-6.9V34c0-1.7-1.1-3.2-2.8-3.7l-11.6-3.5c-0.7-0.2-1.5-0.2-2.2,0l-11.6,3.5
		c-1.6,0.5-2.8,2-2.8,3.7v12.8c0,2.3,0.9,4.7,2.6,6.9C17.2,55.2,18.8,56.7,20.7,58.2z M19.3,35.6l9.5-2.8l9.5,2.8v11.2
		c0,1-0.5,2.1-1.4,3.2c-0.8,1.1-2,2.2-3.6,3.3c-1.8,1.3-3.5,2.2-4.6,2.8c-1-0.5-2.8-1.5-4.6-2.8c-1.5-1.1-2.7-2.2-3.6-3.3
		c-0.9-1.2-1.4-2.2-1.4-3.2V35.6z"/>
	<rect x="10.8" y="69.3" class="st0" width="36" height="6"/>
	<rect x="10.8" y="80.8" class="st0" width="36" height="6"/>
	<path class="st1" d="M17,10h40.6h6v6v44.8c3.1-2.5,6.9-4.2,11-4.8V0H17V10z"/>
	<path class="st1" d="M0,94.6h57.6v-7.7c-1.3-2.8-2-5.9-2-9.1s0.7-6.4,2-9.1V16H0V94.6z M13.3,34c0-1.7,1.1-3.2,2.8-3.7l11.6-3.5
		c0.7-0.2,1.5-0.2,2.2,0l11.6,3.5c1.6,0.5,2.8,2,2.8,3.7v12.8c0,2.3-0.9,4.7-2.6,6.9c-1.2,1.5-2.8,3-4.8,4.4
		c-3.1,2.3-6.2,3.6-6.5,3.8c-0.5,0.2-1,0.3-1.6,0.3s-1.1-0.1-1.6-0.3c-0.4-0.2-3.4-1.6-6.5-3.8c-2-1.4-3.6-2.9-4.8-4.4
		c-1.7-2.2-2.6-4.6-2.6-6.9V34z M10.8,69.3h36v6h-36V69.3z M10.8,80.8h36v6h-36V80.8z"/>
	<path class="st1" d="M24.2,53.3c1.8,1.3,3.5,2.2,4.6,2.8c1-0.5,2.8-1.5,4.6-2.8c1.5-1.1,2.7-2.2,3.6-3.3c0.9-1.2,1.4-2.2,1.4-3.2
		V35.6l-9.5-2.8l-9.5,2.8v11.2c0,1,0.5,2.1,1.4,3.2C21.5,51.1,22.7,52.2,24.2,53.3z M24.5,42.7l2.4,2.4l6.2-6.2l1.9,1.9L26.9,49
		l-4.4-4.4L24.5,42.7z"/>
	<path class="st1" d="M77.5,61.8c-8.8,0-15.9,7.2-15.9,15.9s7.2,15.9,15.9,15.9s15.9-7.2,15.9-15.9S86.3,61.8,77.5,61.8z M86.6,85.6
		H68.4V72.2v-2.5H73v2.5h13.6V85.6z"/>
</g>
</svg>
