<?xml version="1.0" encoding="utf-8"?>
<!-- Generator: Adobe Illustrator 24.1.0, SVG Export Plug-In . SVG Version: 6.00 Build 0)  -->
<svg version="1.1" id="Layer_1" xmlns="http://www.w3.org/2000/svg" xmlns:xlink="http://www.w3.org/1999/xlink" x="0px" y="0px"
	 viewBox="0 0 94.6 94.6" style="enable-background:new 0 0 94.6 94.6;" xml:space="preserve">
<style type="text/css">
	.st0{fill:none;}
	.st1{fill:#262261;}
</style>
<g>
	<rect x="48.4" y="64" class="st0" width="20.8" height="6"/>
	<polygon class="st0" points="49.4,25.9 45.3,25.9 45.3,19.6 43,19.6 43,28 49.4,28 	"/>
	<path class="st0" d="M68,28.1c1.5,0,2.8-0.6,3.6-1.3v-3.8h-3.9v1.7h1.6v1c-0.3,0.2-0.8,0.3-1.3,0.3c-1.3,0-2.3-1-2.3-2.3v0
		c0-1.3,0.9-2.3,2.1-2.3c0.8,0,1.4,0.3,2,0.8l1.4-1.7c-0.9-0.8-1.9-1.2-3.4-1.2c-2.6,0-4.5,1.9-4.5,4.4v0
		C63.5,26.3,65.4,28.1,68,28.1z"/>
	<rect x="50.5" y="19.6" class="st0" width="2.3" height="8.4"/>
	<polygon class="st0" points="56.6,23.4 60.2,28 62.3,28 62.3,19.6 60,19.6 60,24 56.5,19.6 54.3,19.6 54.3,28 56.6,28 	"/>
	<rect x="48.4" y="51.5" class="st0" width="20.8" height="6"/>
	<rect x="48.4" y="39" class="st0" width="20.8" height="6"/>
	<path class="st0" d="M30.6,25.7L30.6,25.7c0-1.2-0.6-1.7-1.7-2.1c0.7-0.3,1.3-0.9,1.3-1.9v0c0-0.6-0.2-1-0.5-1.4
		c-0.5-0.5-1.2-0.7-2.3-0.7h-4.3V28h4.3C29.4,28,30.6,27.1,30.6,25.7z M25.4,21.5h1.5c0.7,0,1.1,0.3,1.1,0.7v0
		c0,0.5-0.4,0.7-1.1,0.7h-1.5V21.5z M25.4,26.1v-1.5h1.8c0.8,0,1.1,0.3,1.1,0.8v0c0,0.5-0.4,0.8-1.1,0.8H25.4z"/>
	<path class="st0" d="M35.6,52.1v-3.4c1.3,0.3,2.6,0.9,3.8,1.7l2.3-3.8c-1.7-1.1-3.6-1.9-6-2.2v-1.7h-2.9v1.6
		c-4.3,0.3-6.8,2.6-6.8,5.9v0.1c0,3.5,2.3,5.1,6.9,6.1v3.4c-1.8-0.3-3.4-1.1-5.3-2.3l-2.5,3.8c2.1,1.5,4.8,2.5,7.6,2.8v2.8h2.9v-2.8
		c4-0.4,6.7-2.5,6.7-5.9v-0.1C42.4,54.7,40.1,53.1,35.6,52.1z M33,51.5c-1.5-0.4-1.9-0.8-1.9-1.6v-0.1c0-0.7,0.5-1.3,1.9-1.4V51.5z
		 M37.5,58.6c0,0.8-0.6,1.3-1.9,1.4v-3.1C37.1,57.3,37.5,57.8,37.5,58.6L37.5,58.6z"/>
	<polygon class="st0" points="42,25.9 37.9,25.9 37.9,19.6 35.6,19.6 35.6,28 42,28 	"/>
	<rect x="31.7" y="19.6" class="st0" width="2.3" height="8.4"/>
	<path class="st1" d="M31,49.9L31,49.9c0,0.8,0.4,1.2,1.9,1.7v-3.1C31.6,48.6,31,49.1,31,49.9z"/>
	<path class="st1" d="M28.3,25.3L28.3,25.3c0-0.5-0.4-0.8-1.1-0.8h-1.8v1.5h1.8C27.9,26.1,28.3,25.8,28.3,25.3z"/>
	<path class="st1" d="M28,22.2L28,22.2c0-0.5-0.4-0.7-1.1-0.7h-1.5v1.5h1.5C27.5,22.9,28,22.7,28,22.2z"/>
	<path class="st1" d="M35.6,56.9V60c1.3-0.1,1.9-0.6,1.9-1.4v-0.1C37.5,57.8,37.1,57.3,35.6,56.9z"/>
	<path class="st1" d="M14.5,94.2l10.9-5.8l10.9,5.8l10.9-5.8l10.9,5.8l10.9-5.8l10.9,5.8V6.5h14.3v-6H0.3v6h14.3V94.2z M69.2,70
		H48.4v-6h20.8V70z M69.2,57.5H48.4v-6h20.8V57.5z M69.2,45H48.4v-6h20.8V45z M63.5,23.8c0-2.4,1.9-4.4,4.5-4.4
		c1.5,0,2.5,0.4,3.4,1.2L70,22.3c-0.6-0.5-1.2-0.8-2-0.8c-1.2,0-2.1,1-2.1,2.3v0c0,1.4,0.9,2.3,2.3,2.3c0.6,0,1-0.1,1.3-0.3v-1h-1.6
		v-1.7h3.9v3.8c-0.9,0.7-2.1,1.3-3.6,1.3C65.4,28.1,63.5,26.3,63.5,23.8L63.5,23.8z M54.3,19.6h2.2L60,24v-4.4h2.3V28h-2l-3.6-4.6
		V28h-2.3V19.6z M50.5,19.6h2.3V28h-2.3V19.6z M43,19.6h2.3v6.4h4.1v2H43V19.6z M42.4,58.2c0,3.4-2.7,5.6-6.7,5.9v2.8h-2.9v-2.8
		c-2.8-0.3-5.5-1.3-7.6-2.8l2.5-3.8c1.8,1.2,3.5,2,5.3,2.3v-3.4c-4.5-1-6.9-2.6-6.9-6.1v-0.1c0-3.3,2.5-5.6,6.8-5.9v-1.6h2.9v1.7
		c2.3,0.3,4.2,1,6,2.2l-2.3,3.8c-1.2-0.8-2.5-1.4-3.8-1.7v3.4C40.1,53.1,42.4,54.7,42.4,58.2L42.4,58.2z M35.6,19.6h2.3v6.4H42v2
		h-6.4V19.6z M31.7,19.6h2.3V28h-2.3V19.6z M23.1,19.6h4.3c1.1,0,1.8,0.3,2.3,0.7c0.3,0.3,0.5,0.8,0.5,1.4v0c0,1-0.6,1.5-1.3,1.9
		c1,0.3,1.7,0.9,1.7,2.1v0c0,1.4-1.2,2.3-3.2,2.3h-4.3V19.6z"/>
</g>
</svg>
