<?xml version="1.0" encoding="utf-8"?>
<!-- Generator: Adobe Illustrator 24.1.0, SVG Export Plug-In . SVG Version: 6.00 Build 0)  -->
<svg version="1.1" id="Layer_1" xmlns="http://www.w3.org/2000/svg" xmlns:xlink="http://www.w3.org/1999/xlink" x="0px" y="0px"
	 viewBox="0 0 94.6 94.6" style="enable-background:new 0 0 94.6 94.6;" xml:space="preserve">
<style type="text/css">
	.st0{fill:none;}
	.st1{fill:#262261;}
</style>
<g>
	<rect x="5.5" y="6.3" class="st0" width="12.3" height="12.3"/>
	<rect x="5.5" y="40.9" class="st0" width="12.3" height="12.3"/>
	<path class="st0" d="M56.5,12L56.5,12c0-1.2-0.9-2.3-2.1-2.3c-1.3,0-2.1,1-2.1,2.2v0c0,1.2,0.9,2.3,2.2,2.3
		C55.6,14.3,56.5,13.2,56.5,12z"/>
	<path class="st0" d="M73,9.8h-1.5v2H73c0.8,0,1.2-0.4,1.2-1v0C74.3,10.2,73.8,9.8,73,9.8z"/>
	<polygon class="st0" points="33.6,83.3 35.5,83.3 34.5,80.9 	"/>
	<polygon class="st0" points="72.3,80.9 71.4,83.3 73.3,83.3 	"/>
	<path class="st0" d="M43.9,80.2h-1.5v2h1.5c0.8,0,1.2-0.4,1.2-1v0C45.2,80.6,44.7,80.2,43.9,80.2z"/>
	<rect x="5.5" y="75.9" class="st0" width="12.3" height="12.3"/>
	<path class="st1" d="M23.3,0.8H0v23.3h23.3V0.8z M17.8,18.7H5.5V6.3h12.3V18.7z"/>
	<path class="st1" d="M23.3,35.4H0v23.3h23.3V35.4z M17.8,53.3H5.5V40.9h12.3V53.3z"/>
	<path class="st1" d="M23.3,70.4H0v23.3h23.3V70.4z M17.8,88.3H5.5V75.9h12.3V88.3z"/>
	<rect x="49.6" y="25.2" class="st1" width="44.3" height="44.3"/>
	<polygon class="st1" points="28.2,50.1 37.3,50.1 37.3,53.7 43.1,49.4 46.2,47.2 43.1,45.1 37.2,40.9 37.2,44.1 28.2,44.1 	"/>
	<path class="st1" d="M45.6,14.4c-1,0-1.9-0.3-2.7-1L41.6,15c1,0.9,2.4,1.4,3.9,1.4c2,0,3.4-1,3.4-2.7v0c0-1.6-1.2-2.2-3.1-2.6
		c-1.2-0.3-1.5-0.4-1.5-0.8v0c0-0.3,0.3-0.5,0.8-0.5c0.7,0,1.6,0.3,2.4,0.8l1.2-1.6c-0.9-0.7-2-1.1-3.5-1.1c-2,0-3.2,1.1-3.2,2.7v0
		c0,1.7,1.4,2.2,3.2,2.6c1.2,0.3,1.4,0.5,1.4,0.8v0C46.6,14.2,46.3,14.4,45.6,14.4z"/>
	<path class="st1" d="M58.8,12L58.8,12c0-2.4-1.9-4.4-4.5-4.4c-2.6,0-4.5,2-4.5,4.4v0c0,2.4,1.9,4.3,4.5,4.3
		C56.9,16.4,58.8,14.4,58.8,12z M52.2,12L52.2,12c0-1.2,0.9-2.3,2.1-2.3c1.3,0,2.1,1,2.1,2.3v0c0,1.2-0.9,2.2-2.1,2.2
		C53.1,14.3,52.2,13.2,52.2,12z"/>
	<path class="st1" d="M60,7.8v4.7c0,2.6,1.5,3.8,3.9,3.8c2.4,0,3.9-1.2,3.9-3.9V7.8h-2.4v4.7c0,1.2-0.6,1.7-1.6,1.7
		c-0.9,0-1.5-0.6-1.5-1.8V7.8H60z"/>
	<path class="st1" d="M76.6,10.7L76.6,10.7c0-0.9-0.3-1.5-0.7-2c-0.6-0.6-1.5-0.9-2.7-0.9h-4v8.4h2.3v-2.5h1l1.7,2.5h2.7l-2-2.9
		C75.9,12.8,76.6,12,76.6,10.7z M74.3,10.8c0,0.6-0.5,1-1.2,1h-1.5v-2H73C73.8,9.8,74.3,10.2,74.3,10.8L74.3,10.8z"/>
	<path class="st1" d="M81.9,9.8c0.8,0,1.4,0.4,1.8,1l1.8-1.4c-0.7-1-1.8-1.7-3.6-1.7c-2.5,0-4.4,1.9-4.4,4.4v0
		c0,2.5,1.9,4.3,4.3,4.3c1.8,0,2.9-0.8,3.7-1.9l-1.8-1.2c-0.5,0.6-1,1-1.9,1c-1.2,0-2-1-2-2.2v0C79.9,10.8,80.7,9.8,81.9,9.8z"/>
	<polygon class="st1" points="93.3,9.8 93.3,7.8 86.5,7.8 86.5,16.2 93.4,16.2 93.4,14.2 88.8,14.2 88.8,12.9 92.9,12.9 92.9,11.1 
		88.8,11.1 88.8,9.8 	"/>
	<path class="st1" d="M33.4,78.2l-3.6,8.5h2.4l0.6-1.5h3.3l0.6,1.5h2.5l-3.6-8.5H33.4z M33.6,83.3l0.9-2.4l0.9,2.4H33.6z"/>
	<path class="st1" d="M47.5,81.1L47.5,81.1c0-0.9-0.3-1.5-0.7-2c-0.6-0.6-1.5-0.9-2.7-0.9h-4v8.4h2.3v-2.5h1l1.7,2.5h2.7l-2-2.9
		C46.8,83.2,47.5,82.4,47.5,81.1z M45.2,81.2c0,0.6-0.5,1-1.2,1h-1.5v-2h1.5C44.7,80.2,45.2,80.6,45.2,81.2L45.2,81.2z"/>
	<polygon class="st1" points="48.2,80.3 50.7,80.3 50.7,86.6 53.1,86.6 53.1,80.3 55.6,80.3 55.6,78.2 48.2,78.2 	"/>
	<rect x="56.7" y="78.2" class="st1" width="2.3" height="8.4"/>
	<polygon class="st1" points="67.3,80.3 67.3,78.2 60.5,78.2 60.5,86.6 62.9,86.6 62.9,83.6 66.8,83.6 66.8,81.7 62.9,81.7 
		62.9,80.3 	"/>
	<path class="st1" d="M67.7,86.6h2.4l0.6-1.5H74l0.6,1.5H77l-3.6-8.5h-2.2L67.7,86.6z M72.3,80.9l0.9,2.4h-1.9L72.3,80.9z"/>
	<path class="st1" d="M82,80.2c0.8,0,1.4,0.4,1.8,1l1.8-1.4c-0.7-1-1.8-1.7-3.6-1.7c-2.5,0-4.4,1.9-4.4,4.4v0c0,2.5,1.9,4.3,4.3,4.3
		c1.8,0,2.9-0.8,3.7-1.9l-1.8-1.2c-0.5,0.6-1,1-1.9,1c-1.2,0-2-1-2-2.2v0C80,81.2,80.8,80.2,82,80.2z"/>
	<polygon class="st1" points="91,86.6 91,80.3 93.5,80.3 93.5,78.2 86.2,78.2 86.2,80.3 88.7,80.3 88.7,86.6 	"/>
</g>
</svg>
