<?xml version="1.0" encoding="utf-8"?>
<!-- Generator: Adobe Illustrator 24.1.0, SVG Export Plug-In . SVG Version: 6.00 Build 0)  -->
<svg version="1.1" id="Layer_1" xmlns="http://www.w3.org/2000/svg" xmlns:xlink="http://www.w3.org/1999/xlink" x="0px" y="0px"
	 viewBox="0 0 94.6 94.6" style="enable-background:new 0 0 94.6 94.6;" xml:space="preserve">
<style type="text/css">
	.st0{fill:none;}
	.st1{fill:#262261;}
</style>
<g>
	<polygon class="st0" points="34,69.7 33.4,50.2 28,51 28.6,70.4 	"/>
	<polygon class="st0" points="47.7,67.8 47.1,48.3 41.7,49 42.3,68.5 	"/>
	<polygon class="st0" points="75.1,63.9 74.5,44.4 69.1,45.2 69.6,64.7 	"/>
	<polygon class="st0" points="61.4,65.8 60.8,46.3 55.4,47.1 55.9,66.6 	"/>
	<polygon class="st0" points="88.8,62 88.2,42.5 82.8,43.3 83.3,62.8 	"/>
	<path class="st1" d="M93.9,67L93,35.8L19.1,45.8l0.8,31.6L93.9,67z M88.2,42.5L88.8,62l-5.4,0.8l-0.6-19.5L88.2,42.5z M74.5,44.4
		l0.6,19.5l-5.4,0.8l-0.6-19.5L74.5,44.4z M60.8,46.3l0.6,19.5l-5.4,0.8l-0.6-19.5L60.8,46.3z M47.1,48.3l0.6,19.5l-5.4,0.8L41.7,49
		L47.1,48.3z M33.4,50.2L34,69.7l-5.4,0.8L28,51L33.4,50.2z"/>
	<polygon class="st1" points="1.4,64.8 14,73.9 13.3,44.8 0.5,35.7 	"/>
	<polygon class="st1" points="90.7,30.2 75.1,19.1 1.8,29.4 16.9,40.2 	"/>
</g>
</svg>
