<?xml version="1.0" encoding="utf-8"?>
<!-- Generator: Adobe Illustrator 24.1.0, SVG Export Plug-In . SVG Version: 6.00 Build 0)  -->
<svg version="1.1" id="Layer_1" xmlns="http://www.w3.org/2000/svg" xmlns:xlink="http://www.w3.org/1999/xlink" x="0px" y="0px"
	 viewBox="0 0 94.6 94.6" style="enable-background:new 0 0 94.6 94.6;" xml:space="preserve">
<style type="text/css">
	.st0{fill:none;}
	.st1{fill:#262261;}
</style>
<g>
	<polygon class="st1" points="59.5,49.2 52,42.6 28.2,71.9 35.8,78.4 	"/>
	<polygon class="st1" points="28.8,80.3 24.8,77.1 22.6,86.8 31.6,82.7 	"/>
	<polygon class="st1" points="82.7,4.8 90.3,11.3 94.3,6.4 86.5,0.1 	"/>
	<path class="st1" d="M67.8,47.8l4.7,3.8L84.4,37c4-4.6,5.9-10.4,5-15.2c-0.4-2.2-1.4-4.1-2.8-5.7l-7.6-6.6L55.7,38l7.6,6.6
		l19.3-23.8c0.4,0.6,0.7,1.3,0.8,2.1c0.6,3-0.9,7-3.6,10.2L67.8,47.8z"/>
	<path class="st1" d="M5.1,78.1c0.2-0.5,0.4-1,0.7-1.5c0.6-1,1.3-1.8,2.2-2.6c1.7-1.6,3.9-2.9,6.2-4.1c2.3-1.2,4.7-2.3,7.2-3.5
		c1.2-0.6,2.5-1.3,3.8-2.2c0.7-0.4,1.3-0.9,2-1.6c0.7-0.7,1.4-1.5,1.8-2.8c0.5-1.2,0.4-2.8,0-3.9c-0.4-1.2-1.2-2.1-1.9-2.8
		c-1.5-1.3-2.9-2-4.2-2.7c-2.6-1.3-5.1-2.1-7.4-3.2c-2.2-1.1-4.1-2.3-5.2-3.9c-1.1-1.5-1.5-3.5-1.2-5.7c0.3-2.3,1-4.5,2.2-6.4
		c2.5-3.8,7.2-6.3,12.2-7.7c2.5-0.7,5.1-1.2,7.8-1.5c1.3-0.2,2.7-0.3,4-0.4c1.3-0.1,2.7-0.2,4.1-0.2C34,20,28.4,19.7,22.8,20.4
		c-2.8,0.4-5.6,1.1-8.3,2.3c-2.7,1.2-5.2,3-7.2,5.5c-1,1.2-1.8,2.6-2.4,4c-0.6,1.5-1,2.9-1.3,4.5c-0.3,1.6-0.3,3.2-0.1,4.9
		c0.3,1.7,0.9,3.4,1.9,4.9c1,1.5,2.2,2.6,3.5,3.6c1.3,1,2.6,1.7,3.9,2.4c2.6,1.3,5.2,2.3,7.5,3.3c1.1,0.5,2.1,1.1,2.7,1.6
		c0.3,0.2,0.4,0.4,0.4,0.5c0,0.1,0,0,0,0c0,0-0.1,0.3-0.4,0.6c-0.3,0.3-0.7,0.6-1.1,1c-0.9,0.7-2,1.3-3.1,2c-2.3,1.3-4.7,2.6-7.1,4
		C9.3,67,6.9,68.7,4.9,71c-1,1.1-1.9,2.5-2.5,3.9c-0.3,0.7-0.6,1.5-0.7,2.3c-0.2,0.8-0.2,1.5-0.3,2.2c-0.1,1.5-0.1,3,0.4,4.6
		c0.4,1.5,1.3,3,2.6,4c1.3,1,2.8,1.5,4.2,1.7c1.5,0.2,2.9,0.2,4.3,0c2.8-0.3,5.4-1.1,7.9-2.1c-2.7,0.5-5.4,0.8-8,0.7
		c-1.3-0.1-2.6-0.2-3.8-0.6c-1.2-0.3-2.3-0.9-3-1.7c-1.5-1.5-1.7-3.9-1.2-6.3C4.8,79.3,5,78.6,5.1,78.1z"/>
</g>
</svg>
