<?xml version="1.0" encoding="utf-8"?>
<!-- Generator: Adobe Illustrator 24.1.0, SVG Export Plug-In . SVG Version: 6.00 Build 0)  -->
<svg version="1.1" id="Layer_1" xmlns="http://www.w3.org/2000/svg" xmlns:xlink="http://www.w3.org/1999/xlink" x="0px" y="0px"
	 viewBox="0 0 94.6 94.6" style="enable-background:new 0 0 94.6 94.6;" xml:space="preserve">
<style type="text/css">
	.st0{fill:none;}
	.st1{fill:#262261;}
</style>
<g>
	<path class="st0" d="M31,82.4c-1.5,0-2.8,1.2-2.8,2.8c0,1.5,1.2,2.8,2.8,2.8c1.5,0,2.8-1.2,2.8-2.8C33.8,83.7,32.5,82.4,31,82.4z"
		/>
	<path class="st0" d="M22.2,88c1.5,0,2.8-1.2,2.8-2.8c0-1.5-1.2-2.8-2.8-2.8c-1.5,0-2.8,1.2-2.8,2.8C19.4,86.7,20.6,88,22.2,88z"/>
	<path class="st0" d="M22.2,37.5c1.5,0,2.8-1.2,2.8-2.8s-1.2-2.8-2.8-2.8c-1.5,0-2.8,1.2-2.8,2.8S20.6,37.5,22.2,37.5z"/>
	<path class="st0" d="M22.2,62.7c1.5,0,2.8-1.2,2.8-2.8c0-1.5-1.2-2.8-2.8-2.8c-1.5,0-2.8,1.2-2.8,2.8
		C19.4,61.5,20.6,62.7,22.2,62.7z"/>
	<path class="st0" d="M22.2,12.2c1.5,0,2.8-1.2,2.8-2.8c0-1.5-1.2-2.8-2.8-2.8c-1.5,0-2.8,1.2-2.8,2.8
		C19.4,10.9,20.6,12.2,22.2,12.2z"/>
	<rect x="25" y="69.3" class="st0" width="44.6" height="6.4"/>
	<path class="st0" d="M28.2,59.9c0,1.5,1.2,2.8,2.8,2.8c1.5,0,2.8-1.2,2.8-2.8c0-1.5-1.2-2.8-2.8-2.8C29.5,57.2,28.2,58.4,28.2,59.9
		z"/>
	<rect x="25" y="44.1" class="st0" width="44.6" height="6.4"/>
	<rect x="51.8" y="56.9" class="st0" width="23.2" height="6"/>
	<rect x="51.8" y="82.2" class="st0" width="23.2" height="6"/>
	<path class="st0" d="M28.2,34.7c0,1.5,1.2,2.8,2.8,2.8c1.5,0,2.8-1.2,2.8-2.8s-1.2-2.8-2.8-2.8C29.5,31.9,28.2,33.1,28.2,34.7z"/>
	<rect x="25" y="18.8" class="st0" width="44.6" height="6.4"/>
	<path class="st0" d="M31,12.2c1.5,0,2.8-1.2,2.8-2.8c0-1.5-1.2-2.8-2.8-2.8c-1.5,0-2.8,1.2-2.8,2.8C28.2,10.9,29.5,12.2,31,12.2z"
		/>
	<rect x="51.8" y="6.4" class="st0" width="23.2" height="6"/>
	<rect x="51.8" y="31.7" class="st0" width="23.2" height="6"/>
	<path class="st1" d="M13.6,75.8v18.8H81V75.8h-5.4v-6.4H81V50.5h-5.4v-6.4H81V25.3h-5.4v-6.4H81V0H13.6v18.8H19v6.4h-5.4v18.8H19
		v6.4h-5.4v18.8H19v6.4H13.6z M31,88c-1.5,0-2.8-1.2-2.8-2.8c0-1.5,1.2-2.8,2.8-2.8c1.5,0,2.8,1.2,2.8,2.8C33.8,86.7,32.5,88,31,88z
		 M75,88.2H51.8v-6H75V88.2z M75,62.9H51.8v-6H75V62.9z M75,37.7H51.8v-6H75V37.7z M51.8,6.4H75v6H51.8V6.4z M31,6.6
		c1.5,0,2.8,1.2,2.8,2.8c0,1.5-1.2,2.8-2.8,2.8c-1.5,0-2.8-1.2-2.8-2.8C28.2,7.9,29.5,6.6,31,6.6z M25,18.8h44.6v6.4H25V18.8z
		 M33.8,34.7c0,1.5-1.2,2.8-2.8,2.8c-1.5,0-2.8-1.2-2.8-2.8s1.2-2.8,2.8-2.8C32.5,31.9,33.8,33.1,33.8,34.7z M25,44.1h44.6v6.4H25
		V44.1z M33.8,59.9c0,1.5-1.2,2.8-2.8,2.8c-1.5,0-2.8-1.2-2.8-2.8c0-1.5,1.2-2.8,2.8-2.8C32.5,57.2,33.8,58.4,33.8,59.9z M25,69.3
		h44.6v6.4H25V69.3z M22.2,6.6c1.5,0,2.8,1.2,2.8,2.8c0,1.5-1.2,2.8-2.8,2.8c-1.5,0-2.8-1.2-2.8-2.8C19.4,7.9,20.6,6.6,22.2,6.6z
		 M22.2,31.9c1.5,0,2.8,1.2,2.8,2.8s-1.2,2.8-2.8,2.8c-1.5,0-2.8-1.2-2.8-2.8S20.6,31.9,22.2,31.9z M22.2,57.2
		c1.5,0,2.8,1.2,2.8,2.8c0,1.5-1.2,2.8-2.8,2.8c-1.5,0-2.8-1.2-2.8-2.8C19.4,58.4,20.6,57.2,22.2,57.2z M22.2,82.4
		c1.5,0,2.8,1.2,2.8,2.8c0,1.5-1.2,2.8-2.8,2.8c-1.5,0-2.8-1.2-2.8-2.8C19.4,83.7,20.6,82.4,22.2,82.4z"/>
</g>
</svg>
