<?xml version="1.0" encoding="utf-8"?>
<!-- Generator: Adobe Illustrator 24.1.0, SVG Export Plug-In . SVG Version: 6.00 Build 0)  -->
<svg version="1.1" id="Layer_1" xmlns="http://www.w3.org/2000/svg" xmlns:xlink="http://www.w3.org/1999/xlink" x="0px" y="0px"
	 viewBox="0 0 94.6 94.6" style="enable-background:new 0 0 94.6 94.6;" xml:space="preserve">
<style type="text/css">
	.st0{fill:none;}
	.st1{fill:#262261;}
</style>
<g>
	<path class="st1" d="M43.1,92.8c2.4,2.4,6.2,2.4,8.6,0l41-41c2.4-2.4,2.4-6.2,0-8.6L51.5,2.1c-2.4-2.4-6.2-2.4-8.6,0l-8.5,8.5
		l10.8,10.8c2.5-0.9,5.4-0.3,7.4,1.7c2,2,2.6,4.9,1.7,7.5l10.4,10.4c2.5-0.9,5.4-0.3,7.5,1.7c2.8,2.8,2.8,7.4,0,10.2
		c-2.8,2.8-7.4,2.8-10.2,0c-2.1-2.1-2.6-5.2-1.6-7.9l-9.7-9.7v25.6c0.7,0.3,1.3,0.8,1.9,1.4c2.8,2.8,2.8,7.4,0,10.2
		c-2.8,2.8-7.4,2.8-10.2,0c-2.8-2.8-2.8-7.4,0-10.2c0.7-0.7,1.5-1.2,2.4-1.6V35c-0.9-0.4-1.7-0.9-2.4-1.6c-2.1-2.1-2.7-5.3-1.6-7.9
		L30.2,14.9L2,43.1c-2.4,2.4-2.4,6.2,0,8.6L43.1,92.8z"/>
</g>
</svg>
