<?xml version="1.0" encoding="utf-8"?>
<!-- Generator: Adobe Illustrator 24.1.0, SVG Export Plug-In . SVG Version: 6.00 Build 0)  -->
<svg version="1.1" id="Layer_1" xmlns="http://www.w3.org/2000/svg" xmlns:xlink="http://www.w3.org/1999/xlink" x="0px" y="0px"
	 viewBox="0 0 94.6 94.6" style="enable-background:new 0 0 94.6 94.6;" xml:space="preserve">
<style type="text/css">
	.st0{fill:none;}
	.st1{fill:#262261;}
</style>
<g>
	<rect x="11.7" y="51.7" class="st0" width="71.3" height="6"/>
	<rect x="11.7" y="35.8" class="st0" width="13.1" height="6"/>
	<polygon class="st0" points="43.2,43.3 43.2,34.9 40.8,34.9 38.8,38.2 36.8,34.9 34.3,34.9 34.3,43.3 36.6,43.3 36.6,38.5 
		38.7,41.8 38.8,41.8 40.9,38.5 40.9,43.3 	"/>
	<path class="st0" d="M48.1,41.5c-1,0-1.9-0.3-2.7-1l-1.3,1.5c1,0.9,2.4,1.4,3.9,1.4c2,0,3.4-1,3.4-2.7v0c0-1.6-1.2-2.2-3.1-2.6
		c-1.2-0.3-1.5-0.4-1.5-0.8v0c0-0.3,0.3-0.5,0.8-0.5c0.7,0,1.6,0.3,2.4,0.8l1.2-1.6c-0.9-0.7-2-1.1-3.5-1.1c-2,0-3.2,1.1-3.2,2.7v0
		c0,1.7,1.4,2.2,3.2,2.6c1.2,0.3,1.4,0.5,1.4,0.8v0C49.1,41.3,48.7,41.5,48.1,41.5z"/>
	<path class="st0" d="M56.8,36.8c0.8,0,1.4,0.3,2,0.8l1.4-1.7c-0.9-0.8-1.9-1.2-3.4-1.2c-2.6,0-4.5,1.9-4.5,4.4v0
		c0,2.5,1.9,4.3,4.6,4.3c1.5,0,2.8-0.6,3.6-1.3v-3.8h-3.9v1.7h1.6v1c-0.3,0.2-0.8,0.3-1.3,0.3c-1.3,0-2.3-1-2.3-2.3v0
		C54.7,37.8,55.6,36.8,56.8,36.8z"/>
	<rect x="11.7" y="19.9" class="st0" width="71.3" height="6"/>
	<rect x="69.8" y="35.8" class="st0" width="13.1" height="6"/>
	<path class="st1" d="M0,70.6h67.6l13.5,17.2l13.5-17.2V6.9H0V70.6z M82.9,41.8H69.8v-6h13.1V41.8z M11.7,19.9h71.3v6H11.7V19.9z
		 M56.9,41.5c0.6,0,1-0.1,1.3-0.3v-1h-1.6v-1.7h3.9v3.8c-0.9,0.7-2.1,1.3-3.6,1.3c-2.6,0-4.6-1.8-4.6-4.3v0c0-2.4,1.9-4.4,4.5-4.4
		c1.5,0,2.5,0.4,3.4,1.2l-1.4,1.7c-0.6-0.5-1.2-0.8-2-0.8c-1.2,0-2.1,1-2.1,2.3v0C54.7,40.5,55.6,41.5,56.9,41.5z M47.7,40.1
		c-1.8-0.4-3.2-0.9-3.2-2.6v0c0-1.6,1.2-2.7,3.2-2.7c1.4,0,2.5,0.4,3.5,1.1L50,37.5c-0.8-0.6-1.6-0.8-2.4-0.8
		c-0.6,0-0.8,0.2-0.8,0.5v0c0,0.4,0.3,0.6,1.5,0.8c1.9,0.4,3.1,1,3.1,2.6v0c0,1.7-1.4,2.7-3.4,2.7c-1.5,0-2.9-0.5-3.9-1.4l1.3-1.5
		c0.8,0.7,1.8,1,2.7,1c0.6,0,1-0.2,1-0.6v0C49.1,40.6,48.8,40.4,47.7,40.1z M38.8,41.8L38.8,41.8l-2.2-3.3v4.8h-2.3v-8.4h2.5l2,3.2
		l2-3.2h2.5v8.4h-2.3v-4.8L38.8,41.8z M11.7,35.8h13.1v6H11.7V35.8z M11.7,51.7h71.3v6H11.7V51.7z"/>
</g>
</svg>
