<?xml version="1.0" encoding="utf-8"?>
<!-- Generator: Adobe Illustrator 24.1.0, SVG Export Plug-In . SVG Version: 6.00 Build 0)  -->
<svg version="1.1" id="Layer_1" xmlns="http://www.w3.org/2000/svg" xmlns:xlink="http://www.w3.org/1999/xlink" x="0px" y="0px"
	 viewBox="0 0 94.6 94.6" style="enable-background:new 0 0 94.6 94.6;" xml:space="preserve">
<style type="text/css">
	.st0{fill:none;}
	.st1{fill:#262261;}
</style>
<g>
	<path class="st0" d="M53.3,23.4c0.7-0.3,1.3-0.9,1.3-1.9v0c0-0.6-0.2-1-0.5-1.4c-0.5-0.5-1.2-0.7-2.3-0.7h-4.3v8.4h4.3
		c2,0,3.2-0.9,3.2-2.3v0C55,24.3,54.3,23.7,53.3,23.4z M49.7,21.3h1.5c0.7,0,1.1,0.3,1.1,0.7v0c0,0.5-0.4,0.7-1.1,0.7h-1.5V21.3z
		 M52.6,25.2c0,0.5-0.4,0.8-1.1,0.8h-1.8v-1.5h1.8C52.3,24.4,52.6,24.7,52.6,25.2L52.6,25.2z"/>
	<polygon class="st0" points="42.4,19.4 40.1,19.4 40.1,27.8 46.4,27.8 46.4,25.8 42.4,25.8 	"/>
	<path class="st1" d="M52.3,22L52.3,22c0-0.5-0.4-0.7-1.1-0.7h-1.5v1.5h1.5C51.9,22.7,52.3,22.5,52.3,22z"/>
	<path class="st1" d="M51.5,24.4h-1.8v1.5h1.8c0.7,0,1.1-0.3,1.1-0.8v0C52.6,24.7,52.3,24.4,51.5,24.4z"/>
	<path class="st1" d="M94.1,0H0.5v47.3h44.9v8.2H9.3v10.1l-4.9,0l5.3,7.5H0v21.6h21.6V73.1h-9.7l5.3-7.5l-4.9,0v-7.3h33.3v1.6v5.7
		l-4.9,0l5.3,7.5h-9.7v21.6h21.6V73.1H48l5.3-7.5l-4.9,0v-5.7v-1.6h33.3v7.3l-4.9,0l5.3,7.5h-9.7v21.6h21.6V73.1h-9.7l5.3-7.5
		l-4.9,0V55.5H48.3v-8.2h45.7V0z M46.4,27.8h-6.4v-8.4h2.3v6.4h4.1V27.8z M55,25.5c0,1.4-1.2,2.3-3.2,2.3h-4.3v-8.4h4.3
		c1.1,0,1.8,0.3,2.3,0.7c0.3,0.3,0.5,0.8,0.5,1.4v0c0,1-0.6,1.5-1.3,1.9C54.3,23.7,55,24.3,55,25.5L55,25.5z"/>
</g>
</svg>
