<?xml version="1.0" encoding="utf-8"?>
<!-- Generator: Adobe Illustrator 24.1.0, SVG Export Plug-In . SVG Version: 6.00 Build 0)  -->
<svg version="1.1" id="Layer_1" xmlns="http://www.w3.org/2000/svg" xmlns:xlink="http://www.w3.org/1999/xlink" x="0px" y="0px"
	 viewBox="0 0 94.6 94.6" style="enable-background:new 0 0 94.6 94.6;" xml:space="preserve">
<style type="text/css">
	.st0{fill:none;}
	.st1{fill:#262261;}
</style>
<g>
	<polygon class="st0" points="74.2,55.7 70.1,55.7 70.1,49.3 67.8,49.3 67.8,57.7 74.2,57.7 	"/>
	<path class="st0" d="M31.2,5.6c-1.5,0-2.8,1.2-2.8,2.8c0,1.5,1.2,2.8,2.8,2.8c1.5,0,2.8-1.2,2.8-2.8C34,6.9,32.8,5.6,31.2,5.6z"/>
	<path class="st0" d="M20.1,5.6c-1.5,0-2.8,1.2-2.8,2.8c0,1.5,1.2,2.8,2.8,2.8s2.8-1.2,2.8-2.8C22.9,6.9,21.6,5.6,20.1,5.6z"/>
	<path class="st0" d="M9,5.6c-1.5,0-2.8,1.2-2.8,2.8c0,1.5,1.2,2.8,2.8,2.8c1.5,0,2.8-1.2,2.8-2.8C11.8,6.9,10.5,5.6,9,5.6z"/>
	<polygon class="st0" points="81.6,55.7 77.5,55.7 77.5,49.3 75.2,49.3 75.2,57.7 81.6,57.7 	"/>
	<polygon class="st0" points="36.3,48.8 11.4,38.9 11.4,47.8 27.7,53.3 11.4,58.8 11.4,67.6 36.3,57.7 	"/>
	<polygon class="st0" points="66.6,55.8 62.1,55.8 62.1,54.4 66.1,54.4 66.1,52.6 62.1,52.6 62.1,51.3 66.5,51.3 66.5,49.3 
		59.8,49.3 59.8,57.7 66.6,57.7 	"/>
	<path class="st0" d="M46.2,56c-1,0-1.9-0.3-2.7-1l-1.3,1.5c1,0.9,2.4,1.4,3.9,1.4c2,0,3.4-1,3.4-2.7v0c0-1.6-1.2-2.2-3.1-2.6
		c-1.2-0.3-1.5-0.4-1.5-0.8v0c0-0.3,0.3-0.5,0.8-0.5c0.7,0,1.6,0.3,2.4,0.8l1.2-1.6c-0.9-0.7-2-1.1-3.5-1.1c-2,0-3.2,1.1-3.2,2.7v0
		c0,1.7,1.4,2.2,3.2,2.6c1.2,0.3,1.4,0.5,1.4,0.8v0C47.2,55.7,46.9,56,46.2,56z"/>
	<rect x="39.3" y="73.1" class="st0" width="42.3" height="5.8"/>
	<polygon class="st0" points="53,54.6 56,54.6 56,57.7 58.3,57.7 58.3,49.3 56,49.3 56,52.5 53,52.5 53,49.3 50.7,49.3 50.7,57.7 
		53,57.7 	"/>
	<path class="st1" d="M0.2,94.4h94.3V22.4H0.2V94.4z M75.2,49.3h2.3v6.4h4.1v2h-6.4V49.3z M67.8,49.3h2.3v6.4h4.1v2h-6.4V49.3z
		 M59.8,49.3h6.8v2h-4.4v1.3h4v1.8h-4v1.3h4.5v2h-6.8V49.3z M50.7,49.3H53v3.1h3v-3.1h2.3v8.4H56v-3.2h-3v3.2h-2.3V49.3z M45.8,54.5
		c-1.8-0.4-3.2-0.9-3.2-2.6v0c0-1.6,1.2-2.7,3.2-2.7c1.4,0,2.5,0.4,3.5,1.1L48.1,52c-0.8-0.6-1.6-0.8-2.4-0.8
		c-0.6,0-0.8,0.2-0.8,0.5v0c0,0.4,0.3,0.6,1.5,0.8c1.9,0.4,3.1,1,3.1,2.6v0c0,1.7-1.4,2.7-3.4,2.7c-1.5,0-2.9-0.5-3.9-1.4l1.3-1.5
		c0.8,0.7,1.8,1,2.7,1c0.6,0,1-0.2,1-0.6v0C47.2,55,46.9,54.8,45.8,54.5z M39.3,73.1h42.3v5.8H39.3V73.1z M11.4,58.8l16.4-5.5
		l-16.4-5.5v-8.9l24.9,9.9v8.8l-24.9,9.9V58.8z"/>
	<path class="st1" d="M94.4,0.2H0.2v16.2h94.3V0.2z M9,11.2c-1.5,0-2.8-1.2-2.8-2.8c0-1.5,1.2-2.8,2.8-2.8c1.5,0,2.8,1.2,2.8,2.8
		C11.8,9.9,10.5,11.2,9,11.2z M20.1,11.2c-1.5,0-2.8-1.2-2.8-2.8c0-1.5,1.2-2.8,2.8-2.8s2.8,1.2,2.8,2.8
		C22.9,9.9,21.6,11.2,20.1,11.2z M31.2,11.2c-1.5,0-2.8-1.2-2.8-2.8c0-1.5,1.2-2.8,2.8-2.8c1.5,0,2.8,1.2,2.8,2.8
		C34,9.9,32.8,11.2,31.2,11.2z"/>
</g>
</svg>
