<?xml version="1.0" encoding="utf-8"?>
<!-- Generator: Adobe Illustrator 24.1.0, SVG Export Plug-In . SVG Version: 6.00 Build 0)  -->
<svg version="1.1" id="Layer_1" xmlns="http://www.w3.org/2000/svg" xmlns:xlink="http://www.w3.org/1999/xlink" x="0px" y="0px"
	 viewBox="0 0 94.6 94.6" style="enable-background:new 0 0 94.6 94.6;" xml:space="preserve">
<style type="text/css">
	.st0{fill:none;}
	.st1{fill:#262261;}
</style>
<g>
	<path class="st0" d="M88.6,15.6H6v49.5h82.6V15.6z M36.7,29.5l9.2,5.3v10.5L36.7,40V29.5z M43.2,58.3H41l-3.4-8.5h2.6l1.9,5.3
		l1.9-5.3h2.5L43.2,58.3z M37.8,26.6l9.1-5.2l9.2,5.3L47,31.9L37.8,26.6z M56.3,58.2H54v-4.8l-2.1,3.3h0l-2.1-3.3v4.8h-2.3v-8.4h2.5
		l2,3.2l2-3.2h2.5V58.2z M58,40l-9.2,5.3v0V34.7v0l9.2-5.3V40z"/>
	<path class="st1" d="M0,71.1h30.6v11h-9.8v6h52.8v-6H64v-11h30.6V9.6H0V71.1z M6,15.6h82.6v49.5H6V15.6z"/>
	<polygon class="st1" points="48.9,34.7 48.9,45.2 48.9,45.3 58,40 58,29.4 48.9,34.7 	"/>
	<polygon class="st1" points="45.9,34.7 36.7,29.5 36.7,40 45.9,45.2 	"/>
	<polygon class="st1" points="47,21.4 37.8,26.6 47,31.9 56.1,26.6 	"/>
	<polygon class="st1" points="42.1,55.1 40.2,49.8 37.6,49.8 41,58.3 43.2,58.3 46.6,49.8 44,49.8 	"/>
	<polygon class="st1" points="51.9,53.1 49.9,49.8 47.4,49.8 47.4,58.2 49.7,58.2 49.7,53.4 51.8,56.7 51.9,56.7 54,53.4 54,58.2 
		56.3,58.2 56.3,49.8 53.9,49.8 	"/>
</g>
</svg>
