<?xml version="1.0" encoding="utf-8"?>
<!-- Generator: Adobe Illustrator 24.1.0, SVG Export Plug-In . SVG Version: 6.00 Build 0)  -->
<svg version="1.1" id="Layer_1" xmlns="http://www.w3.org/2000/svg" xmlns:xlink="http://www.w3.org/1999/xlink" x="0px" y="0px"
	 viewBox="0 0 94.6 94.6" style="enable-background:new 0 0 94.6 94.6;" xml:space="preserve">
<style type="text/css">
	.st0{fill:none;}
	.st1{fill:#262261;}
</style>
<g>
	<path class="st0" d="M39.7,50.4h3.3l0.6,1.5H46l-3.6-8.5h-2.2l-3.6,8.5h2.4L39.7,50.4z M41.3,46.2l0.9,2.4h-1.9L41.3,46.2z"/>
	<path class="st0" d="M49.1,49.5h1.2c2.1,0,3.6-1,3.6-3v0c0-1.8-1.4-2.9-3.5-2.9h-3.6v8.4h2.3V49.5z M49.1,45.5h1.1
		c0.8,0,1.3,0.4,1.3,1.1v0c0,0.7-0.5,1.1-1.3,1.1h-1.1V45.5z"/>
	<rect x="55" y="43.5" class="st0" width="2.3" height="8.4"/>
	<path class="st1" d="M2.7,55.3L13.9,59c0.4,1.2,0.9,2.4,1.5,3.6L10.2,73c-0.5,1-0.3,2.3,0.5,3.1l7.7,7.7c0.8,0.8,2.1,1,3.1,0.5
		L32,79.2c1.2,0.6,2.4,1.1,3.6,1.5l3.7,11.2c0.4,1.1,1.4,1.9,2.6,1.9h10.9c1.2,0,2.2-0.7,2.6-1.9L59,80.7c1.2-0.4,2.4-0.9,3.6-1.5
		L73,84.4c1,0.5,2.3,0.3,3.1-0.5l7.7-7.7c0.8-0.8,1-2.1,0.5-3.1l-5.2-10.4c0.6-1.2,1.1-2.4,1.5-3.6l11.2-3.7
		c1.1-0.4,1.9-1.4,1.9-2.6V41.9c0-1.2-0.7-2.2-1.9-2.6l-11.2-3.7c-0.4-1.2-0.9-2.4-1.5-3.6l5.2-10.4c0.5-1,0.3-2.3-0.5-3.1l-7.7-7.7
		c-0.8-0.8-2.1-1-3.1-0.5l-10.4,5.2c-1.2-0.6-2.4-1.1-3.6-1.5L55.3,2.7c-0.4-1.1-1.4-1.9-2.6-1.9H41.9c-1.2,0-2.2,0.7-2.6,1.9
		l-3.7,11.2c-1.2,0.4-2.4,0.9-3.6,1.5l-10.4-5.2c-1-0.5-2.3-0.3-3.1,0.5l-7.7,7.7c-0.8,0.8-1,2.1-0.5,3.1L15.4,32
		c-0.6,1.2-1.1,2.4-1.5,3.6L2.7,39.3c-1.1,0.4-1.9,1.4-1.9,2.6v10.9C0.9,53.9,1.6,55,2.7,55.3z M55,43.5h2.3v8.4H55V43.5z
		 M46.8,43.5h3.6c2.1,0,3.5,1.1,3.5,2.9v0c0,2-1.5,3-3.6,3h-1.2v2.4h-2.3V43.5z M40.2,43.5h2.2l3.6,8.5h-2.5l-0.6-1.5h-3.3l-0.6,1.5
		h-2.4L40.2,43.5z"/>
	<polygon class="st1" points="41.3,46.2 40.3,48.6 42.2,48.6 	"/>
	<path class="st1" d="M51.6,46.6L51.6,46.6c0-0.7-0.5-1.1-1.3-1.1h-1.1v2.2h1.1C51.1,47.7,51.6,47.3,51.6,46.6z"/>
</g>
</svg>
