<?xml version="1.0" encoding="utf-8"?>
<!-- Generator: Adobe Illustrator 24.1.0, SVG Export Plug-In . SVG Version: 6.00 Build 0)  -->
<svg version="1.1" id="Layer_1" xmlns="http://www.w3.org/2000/svg" xmlns:xlink="http://www.w3.org/1999/xlink" x="0px" y="0px"
	 viewBox="0 0 94.6 94.6" style="enable-background:new 0 0 94.6 94.6;" xml:space="preserve">
<style type="text/css">
	.st0{fill:none;}
	.st1{fill:#262261;}
</style>
<g>
	<rect x="0" y="40.1" class="st1" width="27.8" height="14.5"/>
	<rect x="0" y="20" class="st1" width="11.1" height="14.5"/>
	<rect x="0" y="60.1" class="st1" width="11.1" height="14.5"/>
	<path class="st1" d="M28.3,60.1H16.7v14.5h8.4C24.9,70.3,25.8,65.4,28.3,60.1C28.3,60.2,28.3,60.1,28.3,60.1z"/>
	<path class="st1" d="M27.8,85.8c-0.8-1.7-1.5-3.6-2-5.7H0v14.5h27.8V85.8z"/>
	<path class="st1" d="M16.7,34.5h22.9c0-0.7-0.1-1.5-0.2-2.4L38,21.3l6.6,3.1V20H16.7V34.5z"/>
	<path class="st1" d="M34.9,47.2c1.7-3.1,2.8-5.3,3.5-7.1h-5V50C33.9,49,34.4,48,34.9,47.2z"/>
	<rect x="0" y="0" class="st1" width="27.8" height="14.5"/>
	<path class="st1" d="M33.8,94.6c-0.1-0.2-0.3-0.3-0.4-0.5v0.5H33.8z"/>
	<polygon class="st1" points="66.8,12 67,11.9 68,14.5 94.6,14.5 94.6,0 66.8,0 	"/>
	<polygon class="st1" points="61.2,14.4 61.2,0 33.4,0 33.4,14.5 61,14.5 	"/>
	<rect x="83.5" y="20" class="st1" width="11.1" height="14.5"/>
	<path class="st1" d="M73.1,88.4c-1.6,2.5-3.3,4.6-4.8,6.3h7.4L73.1,88.4z"/>
	<polygon class="st1" points="85.1,54.5 94.6,54.5 94.6,40.1 78.9,40.1 	"/>
	<polygon class="st1" points="93.6,74.6 94.6,74.6 94.6,60.1 87.4,60.1 	"/>
	<polygon class="st1" points="77.9,25.5 77.9,20 70.4,20 76.5,34.5 77.9,34.5 	"/>
	<path class="st1" d="M70.2,81.4l-6.1-14.3c-1.2,2.7-2.9,5.2-4.9,7.5c0.3-0.3,0.5-0.7,0.7-1c0.8-1.5,1.9-4.9,1.9-11.9l-11.5-27
		c-2.8-2.2-5-3.2-5-3.2c1.3,10-2.6,12.4-11.6,31.4c-9,19.1,8.3,31.1,8.3,31.1c-7-22.9,7.7-31.3,7.7-31.3c-1,12.2,5.9,21.8,5.9,21.8
		C58.2,83.6,63,80,63,80c0,4.4-2.6,13.9-2.6,13.9S66.4,89.3,70.2,81.4z"/>
	<polygon class="st1" points="52.6,24.6 56.1,32.9 61.6,30.6 62.8,33.3 57.3,35.7 59.9,41.7 63.5,40.2 64.7,43 61,44.5 63.7,50.8 
		69.2,48.4 70.4,51.2 64.9,53.5 67.4,59.6 71.1,58 72.2,60.8 68.6,62.3 71.3,68.7 76.8,66.4 78,69.2 72.5,71.5 75.1,77.6 78.7,76 
		79.9,78.8 76.3,80.3 78.8,86.4 84.3,84 85.5,86.8 80,89.1 82,93.9 93.2,89.2 63.8,19.8 	"/>
</g>
</svg>
