<?xml version="1.0" encoding="utf-8"?>
<!-- Generator: Adobe Illustrator 24.1.0, SVG Export Plug-In . SVG Version: 6.00 Build 0)  -->
<svg version="1.1" id="Layer_1" xmlns="http://www.w3.org/2000/svg" xmlns:xlink="http://www.w3.org/1999/xlink" x="0px" y="0px"
	 viewBox="0 0 94.6 94.6" style="enable-background:new 0 0 94.6 94.6;" xml:space="preserve">
<style type="text/css">
	.st0{fill:none;}
	.st1{fill:#262261;}
</style>
<g>
	
		<ellipse transform="matrix(0.7071 -0.7071 0.7071 0.7071 -17.3624 35.0208)" class="st1" cx="33.6" cy="38.5" rx="19.5" ry="19.5"/>
	<path class="st1" d="M2.5,78.5C3.7,80.2,5,81.6,6.5,83c1.2,1.2,2.6,2.3,3.9,3.4c6.7,5,14.8,7.7,23.1,7.7c8.3,0,16.4-2.6,23.1-7.7
		c1.4-1,2.7-2.2,3.9-3.4c1.4-1.4,2.7-2.8,3.9-4.4c0.9-1.1,1.6-2.2,2.3-3.4c0.1-0.1,0.1-0.1,0.1-0.2l13.5,3.9
		c0.5,0.1,0.9,0.2,1.4,0.2c0.9,0,1.8-0.3,2.6-0.8c1.2-0.8,2-2,2.3-3.4l7.1-39.7c0.5-2.7-1.3-5.3-4-5.8c-1.5-0.3-2.9,0.2-4,1
		L63.3,0.6l-4.8,3.6l24.8,32.8l-5.4,30.6l-25-7.1c-0.8-0.3-1.7-0.5-2.6-0.7l-0.6-0.2c-0.4-0.1-0.8-0.2-1.3-0.2c0,0-0.1,0-0.1,0
		c-0.9-0.1-1.8,0.1-2.5,0.6c-3.6,2.6-7.8,4-12.3,4s-8.7-1.4-12.3-4c-0.7-0.5-1.6-0.8-2.5-0.6C12.1,60.3,5.9,64.2,2.1,70
		c-0.8,1.1-1.4,2.4-2,3.6C-0.1,74,0,74.6,0.2,75.1C0.9,76.3,1.8,77.5,2.5,78.5z"/>
</g>
</svg>
