<?xml version="1.0" encoding="utf-8"?>
<!-- Generator: Adobe Illustrator 24.1.0, SVG Export Plug-In . SVG Version: 6.00 Build 0)  -->
<svg version="1.1" id="Layer_1" xmlns="http://www.w3.org/2000/svg" xmlns:xlink="http://www.w3.org/1999/xlink" x="0px" y="0px"
	 viewBox="0 0 94.6 94.6" style="enable-background:new 0 0 94.6 94.6;" xml:space="preserve">
<style type="text/css">
	.st0{fill:none;}
	.st1{fill:#262261;}
</style>
<g>
	<rect x="51.8" y="31.7" class="st0" width="23.2" height="6"/>
	<path class="st0" d="M31,88c1.5,0,2.8-1.2,2.8-2.8c0-1.5-1.2-2.8-2.8-2.8c-1.5,0-2.8,1.2-2.8,2.8C28.2,86.7,29.5,88,31,88z"/>
	<path class="st0" d="M22.2,62.7c1.5,0,2.8-1.2,2.8-2.8s-1.2-2.8-2.8-2.8s-2.8,1.2-2.8,2.8S20.6,62.7,22.2,62.7z"/>
	<path class="st0" d="M31,62.7c1.5,0,2.8-1.2,2.8-2.8s-1.2-2.8-2.8-2.8c-1.5,0-2.8,1.2-2.8,2.8S29.5,62.7,31,62.7z"/>
	<path class="st0" d="M31,6.6c-1.5,0-2.8,1.2-2.8,2.8c0,1.5,1.2,2.8,2.8,2.8c1.5,0,2.8-1.2,2.8-2.8C33.8,7.9,32.5,6.6,31,6.6z"/>
	<rect x="51.8" y="6.4" class="st0" width="23.2" height="6"/>
	<path class="st0" d="M22.2,6.6c-1.5,0-2.8,1.2-2.8,2.8c0,1.5,1.2,2.8,2.8,2.8S25,10.9,25,9.4C25,7.9,23.7,6.6,22.2,6.6z"/>
	<path class="st0" d="M22.2,88c1.5,0,2.8-1.2,2.8-2.8c0-1.5-1.2-2.8-2.8-2.8s-2.8,1.2-2.8,2.8C19.4,86.7,20.6,88,22.2,88z"/>
	<path class="st1" d="M81,18.8V0H13.6v5.3l13.5,13.5h42.5v6.4h-36l18.8,18.8h17.2v6.4H58.8l6.4,6.4H75v6h-3.8l6.4,6.4H81V50.5h-5.4
		v-6.4H81V25.3h-5.4v-6.4H81z M22.2,12.2c-1.5,0-2.8-1.2-2.8-2.8c0-1.5,1.2-2.8,2.8-2.8S25,7.9,25,9.4C25,10.9,23.7,12.2,22.2,12.2z
		 M31,12.2c-1.5,0-2.8-1.2-2.8-2.8c0-1.5,1.2-2.8,2.8-2.8c1.5,0,2.8,1.2,2.8,2.8C33.8,10.9,32.5,12.2,31,12.2z M75,37.7H51.8v-6H75
		V37.7z M75,12.4H51.8v-6H75V12.4z"/>
	<path class="st1" d="M13.6,75.8v18.8H81v-5L75,83.7v4.5H51.8v-6h21.7l-6.4-6.4H25v-6.4h35.7l-6.4-6.4h-2.5v-2.5l-9.9-9.9H25v-6.4
		h10.4L24.5,33.2c0.3,0.4,0.5,1,0.5,1.5c0,1.5-1.2,2.8-2.8,2.8s-2.8-1.2-2.8-2.8c0-1.5,1.2-2.8,2.8-2.8c0.6,0,1.1,0.2,1.5,0.5
		l-7.1-7.1h-3v18.8H19v6.4h-5.4v18.8H19v6.4H13.6z M31,82.4c1.5,0,2.8,1.2,2.8,2.8c0,1.5-1.2,2.8-2.8,2.8c-1.5,0-2.8-1.2-2.8-2.8
		C28.2,83.7,29.5,82.4,31,82.4z M31,57.2c1.5,0,2.8,1.2,2.8,2.8s-1.2,2.8-2.8,2.8c-1.5,0-2.8-1.2-2.8-2.8S29.5,57.2,31,57.2z
		 M22.2,57.2c1.5,0,2.8,1.2,2.8,2.8s-1.2,2.8-2.8,2.8s-2.8-1.2-2.8-2.8S20.6,57.2,22.2,57.2z M22.2,82.4c1.5,0,2.8,1.2,2.8,2.8
		c0,1.5-1.2,2.8-2.8,2.8s-2.8-1.2-2.8-2.8C19.4,83.7,20.6,82.4,22.2,82.4z"/>
	<polygon class="st1" points="0,0 0,4.4 90.2,94.6 94.6,94.6 94.6,90.5 4.1,0 	"/>
</g>
</svg>
