<?xml version="1.0" encoding="utf-8"?>
<!-- Generator: Adobe Illustrator 24.1.0, SVG Export Plug-In . SVG Version: 6.00 Build 0)  -->
<svg version="1.1" id="Layer_1" xmlns="http://www.w3.org/2000/svg" xmlns:xlink="http://www.w3.org/1999/xlink" x="0px" y="0px"
	 viewBox="0 0 94.6 94.6" style="enable-background:new 0 0 94.6 94.6;" xml:space="preserve">
<style type="text/css">
	.st0{fill:none;}
	.st1{fill:#262261;}
</style>
<g>
	<polygon class="st0" points="89.1,75 86.8,72.7 79.3,80.2 76.4,77.2 74,79.6 79.3,84.8 	"/>
	<ellipse transform="matrix(0.9773 -0.2117 0.2117 0.9773 -4.2385 10.5839)" class="st1" cx="47.3" cy="25.1" rx="24" ry="24"/>
	<path class="st1" d="M9.1,74.4c1.5,2,3,3.8,4.8,5.4c1.5,1.5,3.1,2.8,4.8,4.2c8.3,6.2,18.2,9.4,28.5,9.4c6.6,0,13-1.3,19-3.9
		c-1.7-2.4-2.6-4.9-2.6-7.4V66.8c0-1.8,1.2-3.4,2.9-3.9l14-4.2c0.4-0.1,0.8-0.2,1.1-0.2c-4.5-4.2-10-6.9-16.1-7.7
		c-1-0.1-2.2,0.1-3,0.7c-4.4,3.2-9.6,4.9-15.1,4.9s-10.7-1.7-15.1-4.9c-0.8-0.6-2-0.9-3-0.7c-8.4,1.2-15.9,5.9-20.6,13
		c-0.9,1.4-1.8,2.9-2.4,4.4c-0.3,0.6-0.2,1.4,0.1,2C7.1,71.7,8.1,73.2,9.1,74.4z"/>
	<path class="st1" d="M69.6,82.2c0,1.3,0.6,2.7,1.8,4.2c1,1.3,2.5,2.7,4.4,4.1c2.3,1.7,4.7,2.9,5.8,3.5c1.2-0.6,3.5-1.8,5.8-3.5
		c1.9-1.4,3.4-2.7,4.4-4.1c1.2-1.5,1.8-2.9,1.8-4.2V68.3l-12-3.6l-12,3.6V82.2z M76.4,77.2l2.9,2.9l7.5-7.5l2.3,2.3l-9.8,9.8
		L74,79.6L76.4,77.2z"/>
</g>
</svg>
