<?xml version="1.0" encoding="utf-8"?>
<!-- Generator: Adobe Illustrator 24.1.0, SVG Export Plug-In . SVG Version: 6.00 Build 0)  -->
<svg version="1.1" id="Layer_1" xmlns="http://www.w3.org/2000/svg" xmlns:xlink="http://www.w3.org/1999/xlink" x="0px" y="0px"
	 viewBox="0 0 94.6 94.6" style="enable-background:new 0 0 94.6 94.6;" xml:space="preserve">
<style type="text/css">
	.st0{fill:none;}
	.st1{fill:#262261;}
</style>
<g>
	<ellipse transform="matrix(0.7071 -0.7071 0.7071 0.7071 -0.2043 39.2718)" class="st0" cx="47.3" cy="19.9" rx="7.8" ry="7.8"/>
	<path class="st0" d="M40.6,48.8h-1.5v2h1.5c0.8,0,1.2-0.4,1.2-1v0C41.9,49.1,41.4,48.8,40.6,48.8z"/>
	<path class="st1" d="M29.1,16.6c-0.5,0.2-0.8,0.6-0.8,1.1v4.5c0,0.5,0.3,0.9,0.8,1.1l4.6,1.5c0.2,0.5,0.4,1,0.6,1.5l-2.1,4.3
		c-0.2,0.4-0.1,0.9,0.2,1.3l3.1,3.1c0.3,0.3,0.9,0.4,1.3,0.2l4.3-2.1c0.5,0.2,1,0.4,1.5,0.6l1.5,4.6c0.2,0.5,0.6,0.8,1.1,0.8h4.5
		c0.5,0,0.9-0.3,1.1-0.8l1.5-4.6c0.5-0.2,1-0.4,1.5-0.6l4.3,2.1c0.4,0.2,0.9,0.1,1.3-0.2l3.1-3.1c0.3-0.3,0.4-0.9,0.2-1.3l-2.1-4.3
		c0.2-0.5,0.4-1,0.6-1.5l4.6-1.5c0.5-0.2,0.8-0.6,0.8-1.1v-4.5c0-0.5-0.3-0.9-0.8-1.1L61,15.1c-0.2-0.5-0.4-1-0.6-1.5l2.1-4.3
		c0.2-0.4,0.1-0.9-0.2-1.3l-3.1-3.1c-0.3-0.3-0.9-0.4-1.3-0.2l-4.3,2.1c-0.5-0.2-1-0.4-1.5-0.6l-1.5-4.6c-0.2-0.5-0.6-0.8-1.1-0.8
		h-4.5c-0.5,0-0.9,0.3-1.1,0.8l-1.5,4.6c-0.5,0.2-1,0.4-1.5,0.6l-4.3-2.1c-0.4-0.2-0.9-0.1-1.3,0.2l-3.1,3.1
		c-0.3,0.3-0.4,0.9-0.2,1.3l2.1,4.3c-0.2,0.5-0.4,1-0.6,1.5L29.1,16.6z M47.3,12.1c4.3,0,7.8,3.5,7.8,7.8c0,4.3-3.5,7.8-7.8,7.8
		c-4.3,0-7.8-3.5-7.8-7.8C39.5,15.6,43,12.1,47.3,12.1z"/>
	<polygon class="st1" points="78.2,60.7 62.5,77.5 62.5,77.5 62.5,77.5 62.5,77.5 62.5,77.5 36.6,77.5 36.6,71.5 56.5,71.5 
		56.5,63.9 33.1,63.9 18.2,62.9 0,75.1 0,94.6 16.2,94.6 29.2,89.2 69.6,89.2 94,60.7 	"/>
	<path class="st1" d="M24.3,53.4c-1,0-1.9-0.3-2.7-1l-1.3,1.5c1,0.9,2.4,1.4,3.9,1.4c2,0,3.4-1,3.4-2.7v0c0-1.6-1.2-2.2-3.1-2.6
		c-1.2-0.3-1.5-0.4-1.5-0.8v0c0-0.3,0.3-0.5,0.8-0.5c0.7,0,1.6,0.3,2.4,0.8l1.2-1.6c-0.9-0.7-2-1.1-3.5-1.1c-2,0-3.2,1.1-3.2,2.7v0
		c0,1.7,1.4,2.2,3.2,2.6c1.2,0.3,1.4,0.5,1.4,0.8v0C25.3,53.2,24.9,53.4,24.3,53.4z"/>
	<polygon class="st1" points="35.5,48.7 35.5,46.8 28.7,46.8 28.7,55.2 35.5,55.2 35.5,53.2 31,53.2 31,51.8 35.1,51.8 35.1,50 
		31,50 31,48.7 	"/>
	<path class="st1" d="M44.2,49.6L44.2,49.6c0-0.9-0.3-1.5-0.7-2c-0.6-0.6-1.5-0.9-2.7-0.9h-4v8.4h2.3v-2.5h1l1.7,2.5h2.7l-2-2.9
		C43.5,51.8,44.2,50.9,44.2,49.6z M41.9,49.8c0,0.6-0.5,1-1.2,1h-1.5v-2h1.5C41.4,48.8,41.9,49.1,41.9,49.8L41.9,49.8z"/>
	<polygon class="st1" points="49.2,52.1 47.3,46.8 44.7,46.8 48.1,55.2 50.3,55.2 53.7,46.8 51.1,46.8 	"/>
	<rect x="54.5" y="46.8" class="st1" width="2.3" height="8.4"/>
	<path class="st1" d="M62.5,48.7c0.8,0,1.4,0.4,1.8,1l1.8-1.4c-0.7-1-1.8-1.7-3.6-1.7c-2.5,0-4.4,1.9-4.4,4.4v0
		c0,2.5,1.9,4.3,4.3,4.3c1.8,0,2.9-0.8,3.7-1.9l-1.8-1.2c-0.5,0.6-1,1-1.9,1c-1.2,0-2-1-2-2.2v0C60.5,49.7,61.3,48.7,62.5,48.7z"/>
	<polygon class="st1" points="73.9,48.7 73.9,46.8 67.2,46.8 67.2,55.2 74,55.2 74,53.2 69.5,53.2 69.5,51.8 73.5,51.8 73.5,50 
		69.5,50 69.5,48.7 	"/>
</g>
</svg>
