<?xml version="1.0" encoding="utf-8"?>
<!-- Generator: Adobe Illustrator 24.1.0, SVG Export Plug-In . SVG Version: 6.00 Build 0)  -->
<svg version="1.1" id="Layer_1" xmlns="http://www.w3.org/2000/svg" xmlns:xlink="http://www.w3.org/1999/xlink" x="0px" y="0px"
	 viewBox="0 0 94.6 94.6" style="enable-background:new 0 0 94.6 94.6;" xml:space="preserve">
<style type="text/css">
	.st0{fill:none;}
	.st1{fill:#262261;}
</style>
<g>
	<polygon class="st0" points="54.5,22.3 55.3,21.4 57.4,24.5 60.2,24.5 56.9,19.7 60.1,16.1 57.4,16.1 54.5,19.5 54.5,16.1 
		52.1,16.1 52.1,24.5 54.5,24.5 	"/>
	<path class="st0" d="M46.2,16.1h-3.2v8.4h3.2c3,0,4.8-1.8,4.8-4.2v0C50.9,17.9,49.2,16.1,46.2,16.1z M48.5,20.3
		c0,1.4-0.9,2.1-2.3,2.1h-0.9v-4.3h0.9C47.6,18.2,48.5,19,48.5,20.3L48.5,20.3z"/>
	<path class="st0" d="M38.7,19.3c-1.2-0.3-1.5-0.4-1.5-0.8v0c0-0.3,0.3-0.5,0.8-0.5c0.7,0,1.6,0.3,2.4,0.8l1.2-1.6
		c-0.9-0.7-2-1.1-3.5-1.1c-2,0-3.2,1.1-3.2,2.7v0c0,1.7,1.4,2.2,3.2,2.6c1.2,0.3,1.4,0.5,1.4,0.8v0c0,0.4-0.3,0.6-1,0.6
		c-1,0-1.9-0.3-2.7-1l-1.3,1.5c1,0.9,2.4,1.4,3.9,1.4c2,0,3.4-1,3.4-2.7v0C41.8,20.3,40.6,19.7,38.7,19.3z"/>
	<path class="st1" d="M46.2,18.2h-0.9v4.3h0.9c1.4,0,2.3-0.8,2.3-2.1v0C48.5,19,47.6,18.2,46.2,18.2z"/>
	<path class="st1" d="M79.4,41.5V0.4H15.1v41.1h27.2h1.9h6.3h1.9H79.4z M41.8,21.9c0,1.7-1.4,2.7-3.4,2.7c-1.5,0-2.9-0.5-3.9-1.4
		l1.3-1.5c0.8,0.7,1.8,1,2.7,1c0.6,0,1-0.2,1-0.6v0c0-0.4-0.3-0.5-1.4-0.8c-1.8-0.4-3.2-0.9-3.2-2.6v0c0-1.6,1.2-2.7,3.2-2.7
		c1.4,0,2.5,0.4,3.5,1.1l-1.2,1.6c-0.8-0.6-1.6-0.8-2.4-0.8c-0.6,0-0.8,0.2-0.8,0.5v0c0,0.4,0.3,0.6,1.5,0.8
		C40.6,19.7,41.8,20.3,41.8,21.9L41.8,21.9z M50.9,20.3c0,2.4-1.8,4.2-4.8,4.2h-3.2v-8.4h3.2C49.2,16.1,50.9,17.9,50.9,20.3
		L50.9,20.3z M52.1,16.1h2.3v3.4l2.9-3.4h2.8l-3.2,3.6l3.3,4.8h-2.8l-2.1-3.1l-0.9,0.9v2.2h-2.3V16.1z"/>
	<polygon class="st1" points="84.7,70.6 56.9,70.6 50.4,57.8 50.4,94.5 84.7,94.5 	"/>
	<polygon class="st1" points="44.4,57.2 37.7,70.6 9.9,70.6 9.9,94.5 44.4,94.5 	"/>
	<polygon class="st1" points="34,64.6 42.6,47.5 9.9,47.5 8.7,47.5 0.2,64.6 	"/>
	<polygon class="st1" points="84.7,47.5 52,47.5 60.6,64.6 94.4,64.6 85.9,47.5 	"/>
</g>
</svg>
