<?xml version="1.0" encoding="utf-8"?>
<!-- Generator: Adobe Illustrator 24.1.0, SVG Export Plug-In . SVG Version: 6.00 Build 0)  -->
<svg version="1.1" id="Layer_1" xmlns="http://www.w3.org/2000/svg" xmlns:xlink="http://www.w3.org/1999/xlink" x="0px" y="0px"
	 viewBox="0 0 94.6 94.6" style="enable-background:new 0 0 94.6 94.6;" xml:space="preserve">
<style type="text/css">
	.st0{fill:none;}
	.st1{fill:#262261;}
</style>
<g>
	<polygon class="st0" points="71.5,45.4 67.4,45.4 67.4,39 65.1,39 65.1,47.4 71.5,47.4 	"/>
	<path class="st0" d="M60.4,47.6c1.8,0,2.9-0.8,3.7-1.9l-1.8-1.2c-0.5,0.6-1,1-1.9,1c-1.2,0-2-1-2-2.2v0c0-1.2,0.8-2.2,2-2.2
		c0.8,0,1.4,0.4,1.8,1l1.8-1.4c-0.7-1-1.8-1.7-3.6-1.7c-2.5,0-4.4,1.9-4.4,4.4v0C56.1,45.7,58,47.6,60.4,47.6z"/>
	<rect x="47.2" y="61.9" class="st0" width="30.3" height="5.8"/>
	<rect x="72.6" y="39" class="st0" width="2.3" height="8.4"/>
	<polygon class="st0" points="44.1,37.7 19.2,27.8 19.2,36.6 35.6,42.1 19.2,47.6 19.2,56.4 44.1,46.5 	"/>
	<path class="st1" d="M0,94.3h94.3V0H0V94.3z M72.6,39h2.3v8.4h-2.3V39z M65.1,39h2.3v6.4h4.1v2h-6.4V39z M56.1,43.2
		c0-2.4,1.9-4.4,4.4-4.4c1.7,0,2.8,0.7,3.6,1.7l-1.8,1.4c-0.5-0.6-1-1-1.8-1c-1.2,0-2,1-2,2.2v0c0,1.3,0.8,2.2,2,2.2
		c0.9,0,1.4-0.4,1.9-1l1.8,1.2c-0.8,1.1-1.9,1.9-3.7,1.9C58,47.6,56.1,45.7,56.1,43.2L56.1,43.2z M47.2,61.9h30.3v5.8H47.2V61.9z
		 M19.2,47.6l16.4-5.5l-16.4-5.5v-8.9l24.9,9.9v8.8l-24.9,9.9V47.6z"/>
</g>
</svg>
