<?xml version="1.0" encoding="utf-8"?>
<!-- Generator: Adobe Illustrator 24.1.0, SVG Export Plug-In . SVG Version: 6.00 Build 0)  -->
<svg version="1.1" id="Layer_1" xmlns="http://www.w3.org/2000/svg" xmlns:xlink="http://www.w3.org/1999/xlink" x="0px" y="0px"
	 viewBox="0 0 94.6 94.6" style="enable-background:new 0 0 94.6 94.6;" xml:space="preserve">
<style type="text/css">
	.st0{fill:none;}
	.st1{fill:#262261;}
</style>
<g>
	<circle class="st0" cx="47.3" cy="28.1" r="11.2"/>
	<path class="st1" d="M40.4,47.7l2.2,6.6c0.2,0.7,0.8,1.1,1.5,1.1h6.4c0.7,0,1.3-0.4,1.5-1.1l2.2-6.6c0.7-0.3,1.4-0.5,2.1-0.9l6.1,3
		c0.6,0.3,1.4,0.2,1.8-0.3l4.5-4.5c0.5-0.5,0.6-1.2,0.3-1.8l-3-6.1c0.3-0.7,0.6-1.4,0.9-2.1l6.6-2.2c0.7-0.2,1.1-0.8,1.1-1.5v-6.4
		c0-0.7-0.4-1.3-1.1-1.5l-6.6-2.2c-0.3-0.7-0.5-1.4-0.9-2.1l3-6.1c0.3-0.6,0.2-1.4-0.3-1.8l-4.5-4.5c-0.5-0.5-1.2-0.6-1.8-0.3
		l-6.1,3c-0.7-0.3-1.4-0.6-2.1-0.9L52,2c-0.2-0.7-0.8-1.1-1.5-1.1h-6.4c-0.7,0-1.3,0.4-1.5,1.1l-2.2,6.6c-0.7,0.3-1.4,0.5-2.1,0.9
		l-6.1-3c-0.6-0.3-1.4-0.2-1.8,0.3l-4.5,4.5c-0.5,0.5-0.6,1.2-0.3,1.8l3,6.1c-0.3,0.7-0.6,1.4-0.9,2.1l-6.6,2.2
		c-0.7,0.2-1.1,0.8-1.1,1.5v6.4c0,0.7,0.4,1.3,1.1,1.5l6.6,2.2c0.3,0.7,0.5,1.4,0.9,2.1l-3,6.1c-0.3,0.6-0.2,1.4,0.3,1.8l4.5,4.5
		c0.5,0.5,1.2,0.6,1.8,0.3l6.1-3C39,47.1,39.7,47.4,40.4,47.7z M47.3,16.9c6.2,0,11.2,5,11.2,11.2c0,6.2-5,11.2-11.2,11.2
		c-6.2,0-11.2-5-11.2-11.2C36.1,22,41.1,16.9,47.3,16.9z"/>
	<path class="st1" d="M14.8,87.4c0-4-3.2-7.2-7.2-7.2s-7.2,3.2-7.2,7.2v7.2h14.3V87.4z"/>
	<path class="st1" d="M87,62.4c-4,0-7.2,3.2-7.2,7.2c0,4,3.2,7.2,7.2,7.2c4,0,7.2-3.2,7.2-7.2C94.1,65.7,90.9,62.4,87,62.4z"/>
	<path class="st1" d="M60,87.4v7.2h14.3v-7.2c0-4-3.2-7.2-7.2-7.2C63.2,80.3,60,83.5,60,87.4z"/>
	<path class="st1" d="M47.3,62.4c-4,0-7.2,3.2-7.2,7.2c0,4,3.2,7.2,7.2,7.2s7.2-3.2,7.2-7.2C54.5,65.7,51.3,62.4,47.3,62.4z"/>
	<path class="st1" d="M67.1,62.4c-4,0-7.2,3.2-7.2,7.2c0,4,3.2,7.2,7.2,7.2c4,0,7.2-3.2,7.2-7.2C74.3,65.7,71.1,62.4,67.1,62.4z"/>
	<path class="st1" d="M87,80.3c-4,0-7.2,3.2-7.2,7.2v7.2h14.3v-7.2C94.1,83.5,90.9,80.3,87,80.3z"/>
	<path class="st1" d="M27.5,62.4c-4,0-7.2,3.2-7.2,7.2c0,4,3.2,7.2,7.2,7.2c4,0,7.2-3.2,7.2-7.2C34.6,65.7,31.4,62.4,27.5,62.4z"/>
	<path class="st1" d="M34.6,87.4c0-4-3.2-7.2-7.2-7.2c-4,0-7.2,3.2-7.2,7.2v7.2h14.3V87.4z"/>
	<path class="st1" d="M0.5,69.6c0,4,3.2,7.2,7.2,7.2s7.2-3.2,7.2-7.2c0-4-3.2-7.2-7.2-7.2S0.5,65.7,0.5,69.6z"/>
	<path class="st1" d="M54.5,87.4c0-4-3.2-7.2-7.2-7.2s-7.2,3.2-7.2,7.2v7.2h14.3V87.4z"/>
</g>
</svg>
