<?xml version="1.0" encoding="utf-8"?>
<!-- Generator: Adobe Illustrator 24.1.0, SVG Export Plug-In . SVG Version: 6.00 Build 0)  -->
<svg version="1.1" id="Layer_1" xmlns="http://www.w3.org/2000/svg" xmlns:xlink="http://www.w3.org/1999/xlink" x="0px" y="0px"
	 viewBox="0 0 94.6 94.6" style="enable-background:new 0 0 94.6 94.6;" xml:space="preserve">
<style type="text/css">
	.st0{fill:none;}
	.st1{fill:#262261;}
</style>
<g>
	<polygon class="st0" points="20.9,44.8 18.9,41.5 16.4,41.5 16.4,49.9 18.7,49.9 18.7,45.1 20.8,48.4 20.9,48.4 23,45.1 23,49.9 
		25.4,49.9 25.4,41.5 22.9,41.5 	"/>
	<polygon class="st0" points="29.2,41.5 26.8,41.5 26.8,49.9 33.2,49.9 33.2,47.9 29.2,47.9 	"/>
	<path class="st1" d="M87.9,11.8c3.1,0,5.6-2.5,5.6-5.6S91,0.5,87.9,0.5c-2,0-3.8,1.1-4.8,2.6H59.6v11.6h-9.8v6h15.8V9.1h17.5
		C84.1,10.7,85.9,11.8,87.9,11.8z"/>
	<path class="st1" d="M79.4,43.6V30.4c1.6-1,2.6-2.8,2.6-4.8c0-3.1-2.5-5.6-5.6-5.6s-5.6,2.5-5.6,5.6c0,2,1.1,3.8,2.6,4.8v7.2h-9.6
		v-8.4h-14v6h8v8.4H79.4z"/>
	<path class="st1" d="M88.1,57.1c-2,0-3.8,1.1-4.8,2.6H72.1v-9.5H49.7v6h16.4v9.5h17.2c1,1.6,2.8,2.6,4.8,2.6c3.1,0,5.6-2.5,5.6-5.6
		S91.2,57.1,88.1,57.1z"/>
	<path class="st1" d="M76.4,72.1c-3.1,0-5.6,2.5-5.6,5.6c0,2,1.1,3.8,2.6,4.8V88H59.6V65.2h-9.8v6h3.8V94h25.8V82.5
		c1.6-1,2.6-2.8,2.6-4.8C82,74.6,79.5,72.1,76.4,72.1z"/>
	<path class="st1" d="M38.2,0.3l-8.4,0c-7.7,0-14,6.3-14,14c0,1,0.1,2,0.3,3C8.6,19.7,3.3,26.8,3.3,34.8c0,3,0.7,6,2.1,8.6
		c-3.1,3.1-5,7.3-5,12c0,7.6,5.1,14.1,12.1,16.2c-0.2,1-0.4,1.9-0.4,2.9c0,6.5,5.3,11.8,11.8,11.8c0.7,0,1.5-0.1,2.2-0.2
		c0.3,4.6,4.1,8.3,8.8,8.3c4.8,0,8.8-3.9,8.8-8.7c0,0,0,0,0,0V5.8C43.7,2.8,41.3,0.3,38.2,0.3z M25.4,49.9H23v-4.8l-2.1,3.3h0
		l-2.1-3.3v4.8h-2.3v-8.4h2.5l2,3.2l2-3.2h2.5V49.9z M33.2,49.9h-6.4v-8.4h2.3v6.4h4.1V49.9z"/>
</g>
</svg>
