<?xml version="1.0" encoding="utf-8"?>
<!-- Generator: Adobe Illustrator 24.1.0, SVG Export Plug-In . SVG Version: 6.00 Build 0)  -->
<svg version="1.1" id="Layer_1" xmlns="http://www.w3.org/2000/svg" xmlns:xlink="http://www.w3.org/1999/xlink" x="0px" y="0px"
	 viewBox="0 0 94.6 94.6" style="enable-background:new 0 0 94.6 94.6;" xml:space="preserve">
<style type="text/css">
	.st0{fill:none;}
	.st1{fill:#262261;}
</style>
<g>
	<path class="st0" d="M73.2,68.3l-13.4-7.8V76c0,4.9,4,9,9,9s9-4,9-9C77.7,72.8,76,69.9,73.2,68.3z"/>
	<path class="st0" d="M49.4,6.6c-17.3,0-31.2,14-31.2,31.2c0,17.3,14,31.2,31.2,31.2c1.5,0,2.9-0.1,4.3-0.3V50.1l17.5,10.1
		c5.8-5.7,9.4-13.6,9.4-22.3C80.7,20.6,66.7,6.6,49.4,6.6z M49.4,45.1c-4,0-7.2-3.2-7.2-7.2c0-4,3.2-7.2,7.2-7.2s7.2,3.2,7.2,7.2
		C56.7,41.9,53.4,45.1,49.4,45.1z"/>
	<polygon class="st0" points="26.7,80.7 23.7,80.7 23.7,77.6 21.4,77.6 21.4,86 23.7,86 23.7,82.8 26.7,82.8 26.7,86 29.1,86 
		29.1,77.6 26.7,77.6 	"/>
	<path class="st0" d="M33.8,77.6h-3.3V86h3.2c3,0,4.8-1.8,4.8-4.2v0C38.5,79.3,36.8,77.6,33.8,77.6z M36.2,81.8
		c0,1.4-0.9,2.1-2.3,2.1h-0.9v-4.3h0.9C35.2,79.6,36.2,80.4,36.2,81.8L36.2,81.8z"/>
	<path class="st1" d="M33.8,79.6h-0.9v4.3h0.9c1.4,0,2.3-0.8,2.3-2.1v0C36.2,80.4,35.2,79.6,33.8,79.6z"/>
	<path class="st1" d="M86.7,94v-6V6.6v-6h-6H18.2h-6v6V88v6h6h62.5H86.7z M29.1,86h-2.3v-3.2h-3V86h-2.3v-8.4h2.3v3.1h3v-3.1h2.3V86
		z M38.5,81.8c0,2.4-1.8,4.2-4.8,4.2h-3.2v-8.4h3.3C36.8,77.6,38.5,79.3,38.5,81.8L38.5,81.8z M68.7,85c-4.9,0-9-4-9-9V60.5
		l13.4,7.8c2.8,1.6,4.5,4.6,4.5,7.8C77.7,81,73.7,85,68.7,85z M71.3,60.2L53.8,50.1v18.7c-1.4,0.2-2.9,0.3-4.3,0.3
		c-17.3,0-31.2-14-31.2-31.2c0-17.3,14-31.2,31.2-31.2c17.3,0,31.2,14,31.2,31.2C80.7,46.6,77.1,54.5,71.3,60.2z"/>
	<ellipse transform="matrix(0.7071 -0.7071 0.7071 0.7071 -12.3 46.0513)" class="st1" cx="49.4" cy="37.9" rx="7.2" ry="7.2"/>
</g>
</svg>
