<?xml version="1.0" encoding="utf-8"?>
<!-- Generator: Adobe Illustrator 24.1.0, SVG Export Plug-In . SVG Version: 6.00 Build 0)  -->
<svg version="1.1" id="Layer_1" xmlns="http://www.w3.org/2000/svg" xmlns:xlink="http://www.w3.org/1999/xlink" x="0px" y="0px"
	 viewBox="0 0 94.6 94.6" style="enable-background:new 0 0 94.6 94.6;" xml:space="preserve">
<style type="text/css">
	.st0{fill:none;}
	.st1{fill:#262261;}
</style>
<g>
	<rect x="0" y="40.1" class="st1" width="27.8" height="14.5"/>
	<rect x="0" y="20" class="st1" width="11.1" height="14.5"/>
	<rect x="0" y="60.1" class="st1" width="11.1" height="14.5"/>
	<path class="st1" d="M16.7,74.6h15.4c-0.1-4.3,0.7-9.1,3.2-14.4c0,0,0-0.1,0-0.1H16.7V74.6z"/>
	<rect x="0" y="80.1" class="st1" width="27.8" height="14.5"/>
	<rect x="16.7" y="20" class="st1" width="27.8" height="14.5"/>
	<path class="st1" d="M41.9,47.2c1.7-3.1,2.8-5.3,3.5-7.1h-12v14.5H38C39.5,51.7,40.8,49.3,41.9,47.2z"/>
	<rect x="0" y="0" class="st1" width="27.8" height="14.5"/>
	<path class="st1" d="M33.4,94.6h7.4c-1.5-1.6-3.1-3.6-4.6-6.1c-1.1-1.8-2.1-4-2.9-6.4V94.6z"/>
	<rect x="66.8" y="0" class="st1" width="27.8" height="14.5"/>
	<rect x="33.4" y="0" class="st1" width="27.8" height="14.5"/>
	<rect x="83.5" y="20" class="st1" width="11.1" height="14.5"/>
	<path class="st1" d="M75.4,94.6h19.2V80.1H84.2C81.9,86.5,78.3,91.4,75.4,94.6z"/>
	<path class="st1" d="M78.8,48.7c0.2,0.2,1.7,2.4,3.3,5.8h12.5V40.1H72.7L78.8,48.7z"/>
	<path class="st1" d="M85.6,74.6h9V60.1H84.3C85.6,64.3,86.4,69.4,85.6,74.6z"/>
	<path class="st1" d="M68.5,54.8c-1.3-16.5-16.2-23.4-16.2-23.4c1.3,10-2.6,12.4-11.6,31.4c-9,19.1,8.3,31.1,8.3,31.1
		c-7-22.9,7.7-31.3,7.7-31.3c-1,12.2,5.9,21.8,5.9,21.8C65.2,83.6,70,80,70,80c0,4.4-2.6,13.9-2.6,13.9s9-7,11.8-18.5
		c2.8-11.6-5.4-23.2-5.4-23.2c0.5,8.2-2.3,16.2-7.7,22.4c0.3-0.3,0.5-0.7,0.7-1C67.9,71.6,69.4,66.5,68.5,54.8z"/>
	<path class="st1" d="M77.9,25.5V20H50.1v3.7l4.8,2.2c0.4,0.2,6,2.9,11.1,8.6h0.3h0.5h1.9h9.1V25.5z"/>
</g>
</svg>
