<?xml version="1.0" encoding="utf-8"?>
<!-- Generator: Adobe Illustrator 24.1.0, SVG Export Plug-In . SVG Version: 6.00 Build 0)  -->
<svg version="1.1" id="Layer_1" xmlns="http://www.w3.org/2000/svg" xmlns:xlink="http://www.w3.org/1999/xlink" x="0px" y="0px"
	 viewBox="0 0 94.6 94.6" style="enable-background:new 0 0 94.6 94.6;" xml:space="preserve">
<style type="text/css">
	.st0{fill:none;}
	.st1{fill:#262261;}
</style>
<g>
	<polygon class="st0" points="80.9,74.8 81.8,75.7 83.6,73.8 76.6,66.8 74.7,68.6 75.6,69.5 70.4,74.6 69.6,73.8 67.7,75.6 
		74.8,82.7 76.6,80.9 75.8,80 77.4,78.3 84.5,85.4 86.4,83.5 79.3,76.5 	"/>
	<polygon class="st0" points="54.8,29.9 52.5,27.5 45,35 42.1,32.1 39.8,34.4 45,39.7 	"/>
	<path class="st0" d="M37.9,50.2c3.6,2.6,7,4.2,7.7,4.5c0.5,0.2,1.1,0.4,1.6,0.4s1.1-0.1,1.7-0.4c0.7-0.3,4.1-1.9,7.7-4.5
		c2.3-1.7,4.2-3.5,5.6-5.2c2-2.6,3-5.2,3-7.9V21.7c0-1.8-1.2-3.4-2.9-3.9l-14-4.2c-0.8-0.2-1.6-0.2-2.3,0l-14,4.2
		c-1.7,0.5-2.9,2.1-2.9,3.9v15.4c0,2.7,1,5.4,3,7.9C33.7,46.8,35.6,48.5,37.9,50.2z M35.3,23.2l12-3.6l12,3.6v13.9
		c0,1.3-0.6,2.7-1.8,4.2c-1,1.3-2.5,2.7-4.4,4.1c-2.3,1.7-4.6,2.9-5.8,3.5c-1.2-0.6-3.5-1.8-5.8-3.5c-1.9-1.4-3.4-2.7-4.4-4.1
		c-1.2-1.5-1.8-2.9-1.8-4.2V23.2z"/>
	<path class="st1" d="M12.6,94.6h50.8c-3.1-2.6-5.5-6.1-6.8-10h-31v-6h30c0-0.3,0-0.5,0-0.8c0-2.4,0.4-4.8,1.1-7H25.6v-6h34.2
		c4-5.4,10.4-9,17.7-9c1.5,0,3,0.2,4.4,0.5V0H12.6V94.6z M29.3,21.7c0-1.8,1.2-3.4,2.9-3.9l14-4.2c0.8-0.2,1.6-0.2,2.3,0l14,4.2
		c1.7,0.5,2.9,2.1,2.9,3.9v15.4c0,2.7-1,5.4-3,7.9c-1.4,1.8-3.3,3.5-5.6,5.2c-3.6,2.6-7,4.2-7.7,4.5c-0.5,0.2-1.1,0.4-1.7,0.4
		s-1.1-0.1-1.6-0.4c-0.7-0.3-4.1-1.9-7.7-4.5c-2.3-1.7-4.2-3.5-5.6-5.2c-2-2.6-3-5.2-3-7.9V21.7z"/>
	<path class="st1" d="M41.5,45.4c2.3,1.7,4.6,2.9,5.8,3.5c1.2-0.6,3.5-1.8,5.8-3.5c1.9-1.4,3.4-2.7,4.4-4.1c1.2-1.5,1.8-2.9,1.8-4.2
		V23.2l-12-3.6l-12,3.6v13.9c0,1.3,0.6,2.7,1.8,4.2C38.1,42.6,39.6,44,41.5,45.4z M42.1,32.1L45,35l7.5-7.5l2.3,2.3L45,39.7
		l-5.3-5.3L42.1,32.1z"/>
	<path class="st1" d="M93.5,77.8c0-8.8-7.2-15.9-15.9-15.9S61.6,69,61.6,77.8s7.2,15.9,15.9,15.9S93.5,86.6,93.5,77.8z M84.5,85.4
		l-7.1-7.1L75.8,80l0.9,0.9l-1.8,1.8l-7.1-7.1l1.8-1.8l0.8,0.8l5.2-5.2l-0.8-0.8l1.8-1.8l7.1,7.1l-1.8,1.8l-0.9-0.9l-1.6,1.6
		l7.1,7.1L84.5,85.4z"/>
</g>
</svg>
