<?xml version="1.0" encoding="utf-8"?>
<!-- Generator: Adobe Illustrator 24.1.0, SVG Export Plug-In . SVG Version: 6.00 Build 0)  -->
<svg version="1.1" id="Layer_1" xmlns="http://www.w3.org/2000/svg" xmlns:xlink="http://www.w3.org/1999/xlink" x="0px" y="0px"
	 viewBox="0 0 94.6 94.6" style="enable-background:new 0 0 94.6 94.6;" xml:space="preserve">
<style type="text/css">
	.st0{fill:none;}
	.st1{fill:#262261;}
</style>
<g>
	<path class="st0" d="M37.5,27.5h3.3l0.6,1.5h2.5l-3.6-8.5H38L34.5,29h2.4L37.5,27.5z M39.1,23.3l0.9,2.4h-1.9L39.1,23.3z"/>
	<polygon class="st0" points="45.8,29 48.1,29 48.1,22.6 50.6,22.6 50.6,20.6 43.3,20.6 43.3,22.6 45.8,22.6 	"/>
	<path class="st0" d="M55.5,29.1c1.8,0,2.9-0.8,3.7-1.9L57.5,26c-0.5,0.6-1,1-1.9,1c-1.2,0-2-1-2-2.2v0c0-1.2,0.8-2.2,2-2.2
		c0.8,0,1.4,0.4,1.8,1l1.8-1.4c-0.7-1-1.8-1.7-3.6-1.7c-2.5,0-4.4,1.9-4.4,4.4v0C51.2,27.3,53.1,29.1,55.5,29.1z"/>
	<polygon class="st0" points="62.6,25.8 65.6,25.8 65.6,29 68,29 68,20.6 65.6,20.6 65.6,23.7 62.6,23.7 62.6,20.6 60.3,20.6 
		60.3,29 62.6,29 	"/>
	<path class="st0" d="M34.2,26.7L34.2,26.7c0-1.2-0.6-1.7-1.7-2.1c0.7-0.3,1.3-0.9,1.3-1.9v0c0-0.6-0.2-1-0.5-1.4
		c-0.5-0.5-1.2-0.7-2.3-0.7h-4.3V29H31C33,29,34.2,28.1,34.2,26.7z M28.9,22.5h1.5c0.7,0,1.1,0.3,1.1,0.7v0c0,0.5-0.4,0.7-1.1,0.7
		h-1.5V22.5z M28.9,27.1v-1.5h1.8c0.8,0,1.1,0.3,1.1,0.8v0c0,0.5-0.4,0.8-1.1,0.8H28.9z"/>
	<polygon class="st1" points="47.3,93.8 87.5,72.6 94.1,69.1 86.9,65.2 47.3,86.1 7.9,65.3 0.5,69.1 7.3,72.7 	"/>
	<polygon class="st1" points="47.3,79 87.5,57.9 94.1,54.4 86.9,50.5 47.3,71.4 7.9,50.6 0.5,54.4 7.3,58 	"/>
	<polygon class="st1" points="47.3,64.3 87.5,43.1 94.1,39.6 86.9,35.8 47.3,56.7 7.9,35.9 0.5,39.6 7.3,43.2 	"/>
	<path class="st1" d="M31.5,23.2L31.5,23.2c0-0.5-0.4-0.7-1.1-0.7h-1.5v1.5h1.5C31.1,23.9,31.5,23.7,31.5,23.2z"/>
	<path class="st1" d="M47.3,49.6l40.2-21.2l6.6-3.5L48.5,0.5l-48,24.4l6.8,3.6L47.3,49.6z M60.3,20.6h2.3v3.1h3v-3.1H68V29h-2.3
		v-3.2h-3V29h-2.3V20.6z M51.2,24.8c0-2.4,1.9-4.4,4.4-4.4c1.7,0,2.8,0.7,3.6,1.7l-1.8,1.4c-0.5-0.6-1-1-1.8-1c-1.2,0-2,1-2,2.2v0
		c0,1.3,0.8,2.2,2,2.2c0.9,0,1.4-0.4,1.9-1l1.8,1.2c-0.8,1.1-1.9,1.9-3.7,1.9C53.1,29.1,51.2,27.3,51.2,24.8L51.2,24.8z M43.3,20.6
		h7.4v2h-2.5V29h-2.3v-6.4h-2.5V20.6z M38,20.5h2.2l3.6,8.5h-2.5l-0.6-1.5h-3.3L36.9,29h-2.4L38,20.5z M26.6,20.6H31
		c1.1,0,1.8,0.3,2.3,0.7c0.3,0.3,0.5,0.8,0.5,1.4v0c0,1-0.6,1.5-1.3,1.9c1,0.3,1.7,0.9,1.7,2.1v0c0,1.4-1.2,2.3-3.2,2.3h-4.3V20.6z"
		/>
	<polygon class="st1" points="39.1,23.3 38.2,25.7 40.1,25.7 	"/>
	<path class="st1" d="M31.8,26.3L31.8,26.3c0-0.5-0.4-0.8-1.1-0.8h-1.8v1.5h1.8C31.4,27.1,31.8,26.8,31.8,26.3z"/>
</g>
</svg>
