<?xml version="1.0" encoding="utf-8"?>
<!-- Generator: Adobe Illustrator 24.1.0, SVG Export Plug-In . SVG Version: 6.00 Build 0)  -->
<svg version="1.1" id="Layer_1" xmlns="http://www.w3.org/2000/svg" xmlns:xlink="http://www.w3.org/1999/xlink" x="0px" y="0px"
	 viewBox="0 0 94.6 94.6" style="enable-background:new 0 0 94.6 94.6;" xml:space="preserve">
<style type="text/css">
	.st0{fill:none;}
	.st1{fill:#262261;}
</style>
<g>
	<path class="st0" d="M43.7,28v2.2h1.1c0.8,0,1.3-0.4,1.3-1.1v0c0-0.7-0.5-1.1-1.3-1.1H43.7z"/>
	<path class="st0" d="M31.7,28v2.2h1.1c0.8,0,1.3-0.4,1.3-1.1v0c0-0.7-0.5-1.1-1.3-1.1H31.7z"/>
	<polygon class="st1" points="25.6,7 25.6,4.1 19.7,4.1 19.7,0 0,0 0,25.3 4.2,25.3 4.2,34.6 0,34.6 0,60 4.2,60 4.2,69.3 0,69.3 
		0,94.6 19.7,94.6 19.7,90.5 25.6,90.5 25.6,87.6 25.7,87.6 94.6,87.6 94.6,76.4 25.7,76.4 25.6,76.4 25.6,73.5 19.7,73.5 
		19.7,69.3 15.5,69.3 15.5,60 19.7,60 19.7,55.8 25.6,55.8 25.6,52.9 25.7,52.9 94.6,52.9 94.6,41.7 25.7,41.7 25.6,41.7 25.6,38.8 
		19.7,38.8 19.7,34.6 15.5,34.6 15.5,25.3 19.7,25.3 19.7,21.1 25.6,21.1 25.6,18.2 25.7,18.2 94.6,18.2 94.6,7 25.7,7 	"/>
	<path class="st1" d="M29.3,26v8.4h2.3V32h1.2c2.1,0,3.6-1,3.6-3v0c0-1.8-1.4-2.9-3.5-2.9H29.3z M34.1,29.1L34.1,29.1
		c0,0.7-0.5,1.1-1.3,1.1h-1.1V28h1.1C33.6,28,34.1,28.4,34.1,29.1z"/>
	<rect x="37.5" y="26" class="st1" width="2.3" height="8.4"/>
	<path class="st1" d="M41.3,26v8.4h2.3V32h1.2c2.1,0,3.6-1,3.6-3v0c0-1.8-1.4-2.9-3.5-2.9H41.3z M46.1,29.1L46.1,29.1
		c0,0.7-0.5,1.1-1.3,1.1h-1.1V28h1.1C45.6,28,46.1,28.4,46.1,29.1z"/>
	<polygon class="st1" points="56.2,28 56.2,26 49.4,26 49.4,34.4 56.2,34.4 56.2,32.5 51.7,32.5 51.7,31.1 55.7,31.1 55.7,29.3 
		51.7,29.3 51.7,28 	"/>
	<polygon class="st1" points="57.4,26 57.4,34.4 63.8,34.4 63.8,32.4 59.8,32.4 59.8,26 	"/>
	<rect x="64.9" y="26" class="st1" width="2.3" height="8.4"/>
	<polygon class="st1" points="70.9,26 68.8,26 68.8,34.4 71.1,34.4 71.1,29.8 74.7,34.4 76.7,34.4 76.7,26 74.4,26 74.4,30.5 	"/>
	<polygon class="st1" points="84.9,28 84.9,26 78.2,26 78.2,34.4 85,34.4 85,32.5 80.5,32.5 80.5,31.1 84.5,31.1 84.5,29.3 
		80.5,29.3 80.5,28 	"/>
</g>
</svg>
