<?xml version="1.0" encoding="utf-8"?>
<!-- Generator: Adobe Illustrator 24.1.0, SVG Export Plug-In . SVG Version: 6.00 Build 0)  -->
<svg version="1.1" id="Layer_1" xmlns="http://www.w3.org/2000/svg" xmlns:xlink="http://www.w3.org/1999/xlink" x="0px" y="0px"
	 viewBox="0 0 94.6 94.6" style="enable-background:new 0 0 94.6 94.6;" xml:space="preserve">
<style type="text/css">
	.st0{fill:none;}
	.st1{fill:#262261;}
</style>
<g>
	<polygon class="st0" points="60.4,60.6 55.9,60.6 55.9,59.3 59.9,59.3 59.9,57.4 55.9,57.4 55.9,56.2 60.3,56.2 60.3,54.2 
		53.6,54.2 53.6,62.6 60.4,62.6 	"/>
	<polygon class="st0" points="34.5,62.6 36.8,62.6 36.8,59.6 40.8,59.6 40.8,57.7 36.8,57.7 36.8,56.2 41.2,56.2 41.2,54.2 
		34.5,54.2 	"/>
	<rect x="42.3" y="54.2" class="st0" width="2.3" height="8.4"/>
	<polygon class="st0" points="48.5,54.2 46.2,54.2 46.2,62.6 52.6,62.6 52.6,60.5 48.5,60.5 	"/>
	<path class="st1" d="M52.8,0H12.6v94.6H82v-65l0,0H58.8h-6v-6V0z M53.6,54.2h6.8v2h-4.4v1.3h4v1.8h-4v1.3h4.5v2h-6.8V54.2z
		 M41.2,56.2h-4.4v1.4h4v1.9h-4v3h-2.3v-8.4h6.7V56.2z M44.7,62.6h-2.3v-8.4h2.3V62.6z M52.6,62.6h-6.4v-8.4h2.3v6.4h4.1V62.6z"/>
	<polygon class="st1" points="58.8,0 58.8,23.6 82.4,23.6 	"/>
</g>
</svg>
