<?xml version="1.0" encoding="utf-8"?>
<!-- Generator: Adobe Illustrator 24.1.0, SVG Export Plug-In . SVG Version: 6.00 Build 0)  -->
<svg version="1.1" id="Layer_1" xmlns="http://www.w3.org/2000/svg" xmlns:xlink="http://www.w3.org/1999/xlink" x="0px" y="0px"
	 viewBox="0 0 94.6 94.6" style="enable-background:new 0 0 94.6 94.6;" xml:space="preserve">
<style type="text/css">
	.st0{fill:none;}
	.st1{fill:#262261;}
</style>
<g>
	<path class="st0" d="M64.1,57.4c1.1,0.3,2.2-0.4,2.5-1.5c0.3-1.1-0.4-2.2-1.5-2.5c-1.1-0.3-2.2,0.4-2.5,1.5
		C62.3,56,63,57.1,64.1,57.4z"/>
	<polygon class="st1" points="16.2,94.6 29.2,89.2 69.6,89.2 94,60.7 78.2,60.7 62.5,77.5 62.5,77.5 62.5,77.5 62.5,77.5 62.5,77.5 
		36.6,77.5 36.6,71.5 56.5,71.5 56.5,63.9 33.1,63.9 18.2,62.9 0,75.1 0,94.6 16.2,94.6 	"/>
	<path class="st1" d="M36.4,26.8L59,57.9l1.4,1.9c1.2,1.7,3.3,2.4,5.2,2c0.7-0.1,1.4-0.4,2-0.9l1.3-1c2.3-1.7,2.8-4.9,1.1-7.3
		L47.2,21.2l-1-1.4c0.4-0.8,0.8-1.7,1-2.6c0.2-0.7,0.3-1.3,0.4-2c0.7-6.3-3.3-12.4-9.7-14.1c-1.1-0.3-2.2-0.4-3.3-0.4
		c-2.1,0-4.2,0.5-6,1.4c-2.1,1.1-3.9,2.7-5.2,4.7l15.1,4L34.2,27C35,27,35.7,26.9,36.4,26.8z M62.6,54.9c0.3-1.1,1.4-1.8,2.5-1.5
		c1.1,0.3,1.8,1.4,1.5,2.5c-0.3,1.1-1.4,1.8-2.5,1.5C63,57.1,62.3,56,62.6,54.9z"/>
	<path class="st1" d="M27.9,25.2l2.6-9.7l-9.1-2.4C21.1,18.1,23.7,22.7,27.9,25.2z"/>
</g>
</svg>
