<?xml version="1.0" encoding="utf-8"?>
<!-- Generator: Adobe Illustrator 24.1.0, SVG Export Plug-In . SVG Version: 6.00 Build 0)  -->
<svg version="1.1" id="Layer_1" xmlns="http://www.w3.org/2000/svg" xmlns:xlink="http://www.w3.org/1999/xlink" x="0px" y="0px"
	 viewBox="0 0 94.6 94.6" style="enable-background:new 0 0 94.6 94.6;" xml:space="preserve">
<style type="text/css">
	.st0{fill:none;}
	.st1{fill:#262261;}
</style>
<g>
	<path class="st0" d="M46,55.7c2.1,0,3.6-1.5,3.6-3.4v0c0-1.8-1.5-3.4-3.6-3.4s-3.6,1.5-3.6,3.4v0C42.4,54.2,43.9,55.7,46,55.7z
		 M44.7,52.3c0-0.8,0.5-1.5,1.4-1.5c0.8,0,1.4,0.7,1.4,1.5v0c0,0.8-0.5,1.4-1.4,1.4C45.2,53.8,44.7,53.1,44.7,52.3L44.7,52.3z"/>
	<polygon class="st0" points="51.6,55.6 53.9,55.6 53.9,49.2 56.4,49.2 56.4,47.2 49,47.2 49,49.2 51.6,49.2 	"/>
	<rect x="38.7" y="47.2" class="st0" width="2.3" height="8.4"/>
	<path class="st1" d="M84.5,91.7c4,0,7.2-3.2,7.2-7.2s-3.2-7.2-7.2-7.2c-0.9,0-1.7,0.2-2.5,0.5l-8.3-8.3c-1.8,1.2-3.9,2-6.2,2.3
		L77.7,82c-0.3,0.8-0.5,1.6-0.5,2.5C77.3,88.5,80.5,91.7,84.5,91.7z"/>
	<path class="st1" d="M10.1,2.9c-4,0-7.2,3.2-7.2,7.2c0,4,3.2,7.2,7.2,7.2c0.9,0,1.7-0.2,2.5-0.5L24.7,29c1.3-1.5,2.9-2.8,4.6-3.8
		L16.9,12.6c0.3-0.8,0.5-1.6,0.5-2.5C17.3,6.1,14.1,2.9,10.1,2.9z"/>
	<path class="st1" d="M10.1,91.7c4,0,7.2-3.2,7.2-7.2c0-0.9-0.2-1.7-0.5-2.5l10.2-10.2c-2.2-0.4-4.3-1.2-6.2-2.3l-8.3,8.3
		c-0.8-0.3-1.6-0.5-2.5-0.5c-4,0-7.2,3.2-7.2,7.2S6.1,91.7,10.1,91.7z"/>
	<path class="st1" d="M44.3,72v8.6c-0.8,0.3-1.5,0.8-2.1,1.5c-2.8,2.8-2.8,7.4,0,10.2c2.8,2.8,7.4,2.8,10.2,0s2.8-7.4,0-10.2
		c-0.6-0.6-1.4-1.1-2.1-1.5V72H44.3z"/>
	<path class="st1" d="M50.3,26.8V14c0.8-0.3,1.5-0.8,2.1-1.5c2.8-2.8,2.8-7.4,0-10.2s-7.4-2.8-10.2,0c-2.8,2.8-2.8,7.4,0,10.2
		c0.6,0.6,1.4,1.1,2.1,1.5v9.5C46.5,24.2,48.5,25.3,50.3,26.8z"/>
	<path class="st1" d="M26.2,41.1c0,1.1,0.2,2.2,0.4,3.2c-4.5,1.4-7.8,5.6-7.8,10.6C18.8,61,23.8,66,30,66h34.7
		c6.1,0,11.1-5,11.1-11.1c0-6-4.8-10.9-10.8-11.1c0,0,0-0.1,0-0.1c0-5-4.1-9.1-9.1-9.1c-2.1,0-4.1,0.7-5.6,1.9
		c-1.8-4.6-6.3-7.9-11.6-7.9C31.7,28.6,26.2,34.2,26.2,41.1z M49,47.2h7.4v2h-2.5v6.4h-2.3v-6.4H49V47.2z M42.4,52.3
		c0-1.8,1.5-3.4,3.6-3.4s3.6,1.5,3.6,3.4v0c0,1.8-1.5,3.4-3.6,3.4C43.9,55.7,42.4,54.2,42.4,52.3L42.4,52.3z M38.7,47.2h2.3v8.4
		h-2.3V47.2z"/>
	<path class="st1" d="M46,53.8c0.8,0,1.4-0.7,1.4-1.4v0c0-0.8-0.6-1.5-1.4-1.5c-0.8,0-1.4,0.7-1.4,1.5v0
		C44.7,53.1,45.2,53.8,46,53.8z"/>
	<path class="st1" d="M66.2,32.7L82,16.9c0.8,0.3,1.6,0.5,2.5,0.5c4,0,7.2-3.2,7.2-7.2c0-4-3.2-7.2-7.2-7.2s-7.2,3.2-7.2,7.2
		c0,0.9,0.2,1.7,0.5,2.5L60.9,29.4C62.9,30.1,64.7,31.2,66.2,32.7z"/>
</g>
</svg>
