<?xml version="1.0" encoding="utf-8"?>
<!-- Generator: Adobe Illustrator 24.1.0, SVG Export Plug-In . SVG Version: 6.00 Build 0)  -->
<svg version="1.1" id="Layer_1" xmlns="http://www.w3.org/2000/svg" xmlns:xlink="http://www.w3.org/1999/xlink" x="0px" y="0px"
	 viewBox="0 0 94.6 94.6" style="enable-background:new 0 0 94.6 94.6;" xml:space="preserve">
<style type="text/css">
	.st0{fill:none;}
	.st1{fill:#262261;}
</style>
<g>
	<path class="st0" d="M37.3,49.1c2.6,0,4.5-2,4.5-4.4v0c0-2.4-1.9-4.3-4.5-4.3c-2.6,0-4.5,2-4.5,4.4v0
		C32.7,47.2,34.7,49.1,37.3,49.1z M35.1,44.7c0-1.2,0.9-2.2,2.1-2.2c1.3,0,2.1,1,2.1,2.3v0c0,1.2-0.9,2.2-2.1,2.2
		C36,47,35.1,46,35.1,44.7L35.1,44.7z"/>
	<polygon class="st0" points="27.3,49 29.6,49 29.6,42.6 32.2,42.6 32.2,40.6 24.8,40.6 24.8,42.6 27.3,42.6 	"/>
	<path class="st0" d="M20.8,47.2c-1,0-1.9-0.3-2.7-1l-1.3,1.5c1,0.9,2.4,1.4,3.9,1.4c2,0,3.4-1,3.4-2.7v0c0-1.6-1.2-2.2-3.1-2.6
		c-1.2-0.3-1.5-0.4-1.5-0.8v0c0-0.3,0.3-0.5,0.8-0.5c0.7,0,1.6,0.3,2.4,0.8l1.2-1.6c-0.9-0.7-2-1.1-3.5-1.1c-2,0-3.2,1.1-3.2,2.7v0
		c0,1.7,1.4,2.2,3.2,2.6c1.2,0.3,1.4,0.5,1.4,0.8v0C21.8,47,21.4,47.2,20.8,47.2z"/>
	<path class="st0" d="M45.4,46.4h1l1.7,2.5h2.7l-2-2.9c1-0.4,1.7-1.3,1.7-2.6v0c0-0.8-0.3-1.5-0.7-2c-0.6-0.6-1.5-0.9-2.7-0.9h-4V49
		h2.3V46.4z M45.4,42.6H47c0.8,0,1.3,0.3,1.3,1v0c0,0.6-0.5,1-1.2,1h-1.5V42.6z"/>
	<path class="st0" d="M54.4,47.5h3.3l0.6,1.5h2.5l-3.6-8.5H55L51.4,49h2.4L54.4,47.5z M56.1,43.3l0.9,2.4h-1.9L56.1,43.3z"/>
	<polygon class="st0" points="77.5,47 73,47 73,45.7 77,45.7 77,43.8 73,43.8 73,42.5 77.4,42.5 77.4,40.6 70.7,40.6 70.7,49 
		77.5,49 	"/>
	<path class="st0" d="M65.5,49.1c1.5,0,2.8-0.6,3.6-1.3v-3.8h-3.9v1.7h1.6v1c-0.3,0.2-0.8,0.3-1.3,0.3c-1.3,0-2.3-1-2.3-2.3v0
		c0-1.3,0.9-2.3,2.1-2.3c0.8,0,1.4,0.3,2,0.8l1.4-1.7c-0.9-0.8-1.9-1.2-3.4-1.2c-2.6,0-4.5,1.9-4.5,4.4v0
		C60.9,47.3,62.9,49.1,65.5,49.1z"/>
	<rect x="31.1" y="56" class="st0" width="32.4" height="6"/>
	<rect x="0" y="4.4" class="st1" width="94.6" height="19.1"/>
	<path class="st1" d="M6.1,90.2h82.4V29.4H6.1V90.2z M63.5,62H31.1v-6h32.4V62z M70.7,40.6h6.8v2H73v1.3h4v1.8h-4V47h4.5v2h-6.8
		V40.6z M60.9,44.8c0-2.4,1.9-4.4,4.5-4.4c1.5,0,2.5,0.4,3.4,1.2l-1.4,1.7c-0.6-0.5-1.2-0.8-2-0.8c-1.2,0-2.1,1-2.1,2.3v0
		c0,1.4,0.9,2.3,2.3,2.3c0.6,0,1-0.1,1.3-0.3v-1h-1.6v-1.7h3.9v3.8c-0.9,0.7-2.1,1.3-3.6,1.3C62.9,49.1,60.9,47.3,60.9,44.8
		L60.9,44.8z M55,40.5h2.2l3.6,8.5h-2.5l-0.6-1.5h-3.3L53.8,49h-2.4L55,40.5z M43.1,40.6h4c1.3,0,2.2,0.3,2.7,0.9
		c0.5,0.5,0.7,1.1,0.7,2v0c0,1.3-0.7,2.1-1.7,2.6l2,2.9h-2.7l-1.7-2.5h-1V49h-2.3V40.6z M32.7,44.8c0-2.4,1.9-4.4,4.5-4.4
		c2.6,0,4.5,1.9,4.5,4.3v0c0,2.4-1.9,4.4-4.5,4.4C34.7,49.1,32.7,47.2,32.7,44.8L32.7,44.8z M24.8,40.6h7.4v2h-2.5V49h-2.3v-6.4
		h-2.5V40.6z M20.4,45.8c-1.8-0.4-3.2-0.9-3.2-2.6v0c0-1.6,1.2-2.7,3.2-2.7c1.4,0,2.5,0.4,3.5,1.1l-1.2,1.6
		c-0.8-0.6-1.6-0.8-2.4-0.8c-0.6,0-0.8,0.2-0.8,0.5v0c0,0.4,0.3,0.6,1.5,0.8c1.9,0.4,3.1,1,3.1,2.6v0c0,1.7-1.4,2.7-3.4,2.7
		c-1.5,0-2.9-0.5-3.9-1.4l1.3-1.5c0.8,0.7,1.8,1,2.7,1c0.6,0,1-0.2,1-0.6v0C21.8,46.2,21.5,46,20.4,45.8z"/>
	<path class="st1" d="M37.3,47c1.3,0,2.1-1,2.1-2.2v0c0-1.2-0.9-2.3-2.1-2.3c-1.3,0-2.1,1-2.1,2.2v0C35.1,46,36,47,37.3,47z"/>
	<path class="st1" d="M48.2,43.6L48.2,43.6c0-0.7-0.5-1-1.3-1h-1.5v2H47C47.8,44.6,48.2,44.2,48.2,43.6z"/>
	<polygon class="st1" points="56.1,43.3 55.1,45.6 57,45.6 	"/>
</g>
</svg>
