<?xml version="1.0" encoding="utf-8"?>
<!-- Generator: Adobe Illustrator 24.1.0, SVG Export Plug-In . SVG Version: 6.00 Build 0)  -->
<svg version="1.1" id="Layer_1" xmlns="http://www.w3.org/2000/svg" xmlns:xlink="http://www.w3.org/1999/xlink" x="0px" y="0px"
	 viewBox="0 0 94.6 94.6" style="enable-background:new 0 0 94.6 94.6;" xml:space="preserve">
<style type="text/css">
	.st0{fill:none;}
	.st1{fill:#262261;}
</style>
<g>
	<path class="st0" d="M64.2,75c0-4.2-3.4-7.6-7.6-7.6c-4.2,0-7.6,3.4-7.6,7.6c0,4.2,3.4,7.6,7.6,7.6c1.5,0,3-0.5,4.2-1.3l8.2,8.2
		l2.1-2.1l-8.2-8.2C63.7,78,64.2,76.6,64.2,75z M60.8,76.8c-0.1,0.3-0.3,0.5-0.4,0.8c-0.3,0.5-0.7,0.9-1.2,1.2
		c-0.7,0.5-1.6,0.8-2.5,0.8c-0.9,0-1.8-0.3-2.5-0.8c-0.5-0.3-0.9-0.7-1.2-1.2c-0.2-0.2-0.3-0.5-0.4-0.8c-0.2-0.5-0.4-1.1-0.4-1.8
		c0-2.5,2-4.6,4.6-4.6c2.5,0,4.6,2,4.6,4.6C61.2,75.7,61.1,76.3,60.8,76.8z"/>
	<rect x="24.9" y="58.8" class="st0" width="30.7" height="3"/>
	<path class="st0" d="M36.1,78v3h11.9c-0.6-0.9-1.1-1.9-1.4-3H36.1z"/>
	<rect x="29.8" y="84.4" class="st0" width="14.2" height="3"/>
	<path class="st0" d="M53.1,65.1H29.8v3h18.9C49.9,66.8,51.4,65.7,53.1,65.1z"/>
	<path class="st0" d="M64.6,68.1h5.2v-3h-9.5C61.9,65.7,63.4,66.8,64.6,68.1z"/>
	<path class="st0" d="M46.7,71.4H29.8v3h16.3C46.2,73.4,46.4,72.4,46.7,71.4z"/>
	<ellipse transform="matrix(0.9871 -0.1602 0.1602 0.9871 -2.0527 7.7924)" class="st1" cx="47.3" cy="16.6" rx="16.3" ry="16.3"/>
	<path class="st1" d="M20.9,43c-0.6,0.9-1.2,2-1.6,3c0,0,0,0,0,0h56c0,0,0,0,0,0c-0.4-1.1-1-2.1-1.6-3c-3.3-4.8-8.3-8.1-14-8.8
		c-0.7-0.1-1.5,0.1-2.1,0.5c-3,2.2-6.6,3.3-10.3,3.3c-3.7,0-7.3-1.1-10.3-3.3c-0.6-0.4-1.4-0.6-2.1-0.5C29.3,34.9,24.1,38.2,20.9,43
		z"/>
	<path class="st1" d="M85.8,85.5h-5V52h-67v33.5h-5l5,8.6h0h67L85.8,85.5z M69.7,65.1v3h-5.2c-1.2-1.3-2.7-2.4-4.4-3H69.7z
		 M24.9,58.8h30.7v3H24.9V58.8z M29.8,71.4h16.9c-0.3,0.9-0.6,2-0.6,3H29.8V71.4z M44,87.4H29.8v-3H44V87.4z M36.1,81v-3h10.4
		c0.3,1.1,0.8,2.1,1.4,3H36.1z M29.8,68.1v-3h23.2c-1.7,0.6-3.2,1.7-4.4,3H29.8z M69,89.6l-8.2-8.2c-1.2,0.8-2.6,1.3-4.2,1.3
		c-4.2,0-7.6-3.4-7.6-7.6c0-4.2,3.4-7.6,7.6-7.6c4.2,0,7.6,3.4,7.6,7.6c0,1.5-0.5,3-1.3,4.2l8.2,8.2L69,89.6z"/>
	<path class="st1" d="M56.6,70.5c-2.5,0-4.6,2-4.6,4.6c0,0.6,0.1,1.2,0.4,1.8c0.1,0.3,0.3,0.5,0.4,0.8c0.3,0.5,0.7,0.9,1.2,1.2
		c0.7,0.5,1.6,0.8,2.5,0.8c0.9,0,1.8-0.3,2.5-0.8c0.5-0.3,0.9-0.7,1.2-1.2c0.2-0.2,0.3-0.5,0.4-0.8c0.2-0.5,0.4-1.1,0.4-1.8
		C61.2,72.5,59.1,70.5,56.6,70.5z"/>
</g>
</svg>
