<?xml version="1.0" encoding="utf-8"?>
<!-- Generator: Adobe Illustrator 24.1.0, SVG Export Plug-In . SVG Version: 6.00 Build 0)  -->
<svg version="1.1" id="Layer_1" xmlns="http://www.w3.org/2000/svg" xmlns:xlink="http://www.w3.org/1999/xlink" x="0px" y="0px"
	 viewBox="0 0 94.6 94.6" style="enable-background:new 0 0 94.6 94.6;" xml:space="preserve">
<style type="text/css">
	.st0{fill:none;}
	.st1{fill:#262261;}
</style>
<g>
	<polygon class="st0" points="29.6,30.3 29.3,30.4 29.3,32.4 29.3,33.5 29.3,33.7 29.3,34.7 29.3,34.7 29.3,34.9 29.3,38.5 
		29.5,38.5 30.6,37.9 31.5,37.4 31.5,34.1 31.5,34.1 31.5,33 31.5,33 31.5,29.3 30.7,29.8 	"/>
	<polygon class="st0" points="41,32.7 41,24.6 38.8,25.7 38.8,32.7 38.8,33.8 40.5,32.9 	"/>
	<polygon class="st0" points="55.8,65.5 55.8,64.4 55.8,57.4 53.6,56.3 53.6,64.4 54,64.6 	"/>
	<polygon class="st0" points="60.6,66.1 60.6,66.1 60.6,66.1 60.6,65 60.6,65 60.6,63.9 60.6,59.8 58.4,58.7 58.4,64.1 58.4,65.2 
		58.4,65.2 58.4,66.3 58.4,66.3 58.4,66.8 60.6,67.9 	"/>
	<polygon class="st0" points="36.2,34.7 36.2,34.6 36.2,33.6 36.2,33.5 36.2,32.4 36.2,27 34,28.1 34,32.2 34,33.3 34,33.3 34,34.4 
		34,34.4 34,34.4 34,36.2 36.2,35.1 	"/>
	<polygon class="st0" points="65.1,70.1 65.3,70.2 65.3,66.6 65.3,66.4 65.3,66.4 65.3,65.3 65.3,65.2 65.3,64.1 65.3,62.1 65,62 
		63.9,61.4 63.1,61 63.1,64.7 63.1,64.7 63.1,65.8 63.1,65.8 63.1,69.1 64,69.6 	"/>
	<path class="st0" d="M6.4,88.2h81.9V6.4H6.4V88.2z M43.2,66L43.2,66l-1.8,0.9l-9.7,4.9l-1.1,0.5l-1.1,0.5l-2.7,1.3v0l0-0.2
		l-0.1-6.1l0-0.2v0l0-1l0-0.2l0-1l-0.1-4.7l2.9-1.5l1.1-0.5l1.1-0.5l12.2-6.1l0,0l0.2,13.5L43.2,66z M43.2,50L43.2,50l-1.8,0.9
		l-9.7,4.9l-1.1,0.5l-1.1,0.5l-2.7,1.3v0l0-0.2l-0.1-6.1l0-0.2v0l0-1l0-0.2l0-1l-0.1-4.7l2.9-1.5l1.1-0.5l1.1-0.5l12.2-6.1l0,0
		l0.2,13.5L43.2,50z M82.2,72.6l0,0.8l-0.4,0l-0.3,0l-1.7,0.2l-0.3,0l0,0l-3.7,0.4l-5.8,0.6v0l0,0L70,69l0-0.2v0l0-1l0-0.2l0-1
		l0.1-5.5l12.3-1.3L82.2,72.6z M82.2,56.6l0,0.8l-0.4,0l-0.3,0l-1.7,0.2l-0.3,0l0,0l-3.7,0.4l-5.8,0.6v0l0,0L70,53l0-0.2v0l0-1
		l0-0.2l0-1l0.1-5.5l12.3-1.3L82.2,56.6z M82.2,40.9l0,0.8l-0.4,0l-0.3,0L79.8,42l-0.3,0l0,0l-3.7,0.4L69.9,43v0l0,0l0.1-5.7l0-0.2
		v0l0-1l0-0.2l0-1l0.1-5.5L82.5,28L82.2,40.9z M63,18.3l0.9-0.1l0.2,0.1l8.8,4.4l6.8,3.4l-10.5,1.1l-4.2-2.1L64,24.6l-1.1-0.5
		l-9.4-4.7L63,18.3z M50.7,20.4L50.7,20.4l12.2,6.1L64,27l1.1,0.5l2.9,1.5l-0.1,4.7l0,1l0,0.2l0,1v0l0,0.2l-0.1,6.1l0,0.2v0
		l-2.7-1.3L64,40.6l-1.1-0.5l-9.7-4.9l-1.8-0.9l0,0l-0.9-0.4L50.7,20.4z M50.7,36.1L50.7,36.1l12.2,6.1l1.1,0.5l1.1,0.5l2.9,1.5
		l-0.1,4.7l0,1l0,0.2l0,1v0l0,0.2L67.7,58l0,0.2v0l-2.7-1.3L64,56.3l-1.1-0.5l-9.7-4.9L51.4,50l0,0l-0.9-0.4L50.7,36.1z M50.7,52.1
		L50.7,52.1l12.2,6.1l1.1,0.5l1.1,0.5l2.9,1.5l-0.1,4.7l0,1l0,0.2l0,1v0l0,0.2L67.7,74l0,0.2v0l-2.7-1.3L64,72.3l-1.1-0.5l-9.7-4.9
		L51.4,66l0,0l-0.9-0.4L50.7,52.1z M43.9,20.4l0.2,13.5l-0.9,0.4l0,0l-1.8,0.9l-9.7,4.9l-1.1,0.5l-1.1,0.5l-2.7,1.3v0l0-0.2
		l-0.1-6.1l0-0.2v0l0-1l0-0.2l0-1l-0.1-4.7l2.9-1.5l1.1-0.5l1.1-0.5L43.9,20.4L43.9,20.4z M21.7,22.7l8.8-4.4l0.2-0.1l0.9,0.1l9.5,1
		l-9.4,4.7l-1.1,0.5l-1.1,0.5l-4.2,2.1l-10.5-1.1L21.7,22.7z M24.4,29.4l0.1,5.5l0,1l0,0.2l0,1v0l0,0.2l0.1,5.7l0,0v0l-5.8-0.6
		L15.1,42l0,0l-0.3,0l-1.7-0.2l-0.3,0l-0.4,0l0-0.8L12.1,28L24.4,29.4z M24.4,45.1l0.1,5.5l0,1l0,0.2l0,1v0l0,0.2l0.1,5.7l0,0v0
		l-5.8-0.6l-3.7-0.4l0,0l-0.3,0l-1.7-0.2l-0.3,0l-0.4,0l0-0.8l-0.2-12.9L24.4,45.1z M24.4,61.1l0.1,5.5l0,1l0,0.2l0,1v0l0,0.2
		l0.1,5.7l0,0v0l-5.8-0.6l-3.7-0.4l0,0l-0.3,0l-1.7-0.2l-0.3,0l-0.4,0l0-0.8l-0.2-12.9L24.4,61.1z"/>
	<polygon class="st0" points="55.8,49.5 55.8,48.4 55.8,41.4 53.6,40.3 53.6,48.4 54,48.6 	"/>
	<polygon class="st0" points="29.6,62 29.3,62.1 29.3,64.1 29.3,65.2 29.3,65.3 29.3,66.4 29.3,66.4 29.3,66.6 29.3,70.2 29.5,70.1 
		30.6,69.6 31.5,69.1 31.5,65.8 31.5,65.8 31.5,64.7 31.5,64.7 31.5,61 30.7,61.4 	"/>
	<polygon class="st0" points="34,63.9 34,65 34,65 34,66.1 34,66.1 34,66.1 34,67.9 36.2,66.8 36.2,66.3 36.2,66.3 36.2,65.2 
		36.2,65.2 36.2,64.1 36.2,58.7 34,59.8 	"/>
	<polygon class="st0" points="29.6,46 29.3,46.1 29.3,48.1 29.3,49.2 29.3,49.4 29.3,50.4 29.3,50.4 29.3,50.6 29.3,54.2 29.5,54.2 
		30.6,53.6 31.5,53.1 31.5,49.8 31.5,49.8 31.5,48.7 31.5,48.7 31.5,45 30.7,45.4 	"/>
	<polygon class="st0" points="38.8,64.4 38.8,65.5 40.5,64.6 41,64.4 41,56.3 38.8,57.4 	"/>
	<polygon class="st0" points="60.6,34.4 60.6,34.4 60.6,34.4 60.6,33.3 60.6,33.3 60.6,32.2 60.6,28.1 58.4,27 58.4,32.4 58.4,33.5 
		58.4,33.6 58.4,34.6 58.4,34.7 58.4,35.1 60.6,36.2 	"/>
	<polygon class="st0" points="55.8,33.8 55.8,32.7 55.8,25.7 53.6,24.6 53.6,32.7 54,32.9 	"/>
	<polygon class="st0" points="65.1,54.2 65.3,54.2 65.3,50.6 65.3,50.4 65.3,50.4 65.3,49.4 65.3,49.2 65.3,48.1 65.3,46.1 65,46 
		63.9,45.4 63.1,45 63.1,48.7 63.1,48.7 63.1,49.8 63.1,49.8 63.1,53.1 64,53.6 	"/>
	<polygon class="st0" points="65.1,38.5 65.3,38.5 65.3,34.9 65.3,34.7 65.3,34.7 65.3,33.7 65.3,33.5 65.3,32.4 65.3,30.4 65,30.3 
		63.9,29.8 63.1,29.3 63.1,33 63.1,33 63.1,34.1 63.1,34.1 63.1,37.4 64,37.9 	"/>
	<polygon class="st0" points="38.8,48.4 38.8,49.5 40.5,48.6 41,48.4 41,40.3 38.8,41.4 	"/>
	<polygon class="st0" points="34,47.9 34,49 34,49 34,50.1 34,50.1 34,50.1 34,51.9 36.2,50.8 36.2,50.4 36.2,50.3 36.2,49.2 
		36.2,49.2 36.2,48.1 36.2,42.7 34,43.8 	"/>
	<polygon class="st0" points="60.6,50.1 60.6,50.1 60.6,50.1 60.6,49 60.6,49 60.6,47.9 60.6,43.8 58.4,42.7 58.4,48.1 58.4,49.2 
		58.4,49.2 58.4,50.3 58.4,50.4 58.4,50.8 60.6,51.9 	"/>
	<path class="st1" d="M94.2,88.2V6.4v-6h-6H6.4h-6v6v81.9v6h6h81.9h6V88.2z M88.2,88.2H6.4V6.4h81.9V88.2z"/>
	<polygon class="st1" points="64,24.6 65.1,25.2 69.3,27.3 79.7,26.1 72.9,22.7 64.1,18.3 63.9,18.2 63,18.3 53.5,19.3 62.9,24.1 	
		"/>
	<path class="st1" d="M51.4,66l1.8,0.9l9.7,4.9l1.1,0.5l1.1,0.5l2.7,1.3v0l0-0.2l0.1-6.1l0-0.2v0l0-1l0-0.2l0-1l0.1-4.7L65,59.3
		L64,58.7l-1.1-0.5l-12.2-6.1l0,0l-0.2,13.5L51.4,66L51.4,66z M63.1,65.8L63.1,65.8v-1.1v0V61l0.8,0.4L65,62l0.3,0.1v2v1v0.2v1v0
		v0.2v3.6l-0.1-0.1L64,69.6l-1-0.5V65.8z M58.4,66.3L58.4,66.3v-1.1v0v-1.1v-5.4l2.2,1.1v4.1V65v0v1.1v0v0v1.8l-2.2-1.1V66.3z
		 M53.6,56.3l2.2,1.1v7.1v1L54,64.6l-0.5-0.2V56.3z"/>
	<polygon class="st1" points="70.1,66.5 70.1,67.6 70.1,67.7 70,68.8 70,68.8 70,69 69.9,74.7 69.9,74.7 69.9,74.7 75.8,74.1 
		79.5,73.7 79.5,73.7 79.8,73.7 81.5,73.5 81.8,73.4 82.2,73.4 82.2,72.6 82.5,59.7 70.2,61.1 	"/>
	<path class="st1" d="M51.4,50l1.8,0.9l9.7,4.9l1.1,0.5l1.1,0.5l2.7,1.3v0l0-0.2l0.1-6.1l0-0.2v0l0-1l0-0.2l0-1l0.1-4.7L65,43.3
		L64,42.7l-1.1-0.5l-12.2-6.1l0,0l-0.2,13.5L51.4,50L51.4,50z M63.1,49.8L63.1,49.8v-1.1v0V45l0.8,0.4L65,46l0.3,0.1v2v1v0.2v1v0
		v0.2v3.6l-0.1-0.1L64,53.6l-1-0.5V49.8z M58.4,50.4L58.4,50.4v-1.1v0v-1.1v-5.4l2.2,1.1v4.1V49v0v1.1v0v0v1.8l-2.2-1.1V50.4z
		 M53.6,40.3l2.2,1.1v7.1v1L54,48.6l-0.5-0.2V40.3z"/>
	<polygon class="st1" points="70.1,50.5 70.1,51.6 70.1,51.7 70,52.8 70,52.8 70,53 69.9,58.7 69.9,58.7 69.9,58.7 75.8,58.1 
		79.5,57.7 79.5,57.7 79.8,57.7 81.5,57.5 81.8,57.4 82.2,57.4 82.2,56.6 82.5,43.7 70.2,45.1 	"/>
	<path class="st1" d="M51.4,34.3l1.8,0.9l9.7,4.9l1.1,0.5l1.1,0.5l2.7,1.3v0l0-0.2l0.1-6.1l0-0.2v0l0-1l0-0.2l0-1l0.1-4.7L65,27.6
		L64,27l-1.1-0.5l-12.2-6.1l0,0l-0.2,13.5L51.4,34.3L51.4,34.3z M63.1,34.1L63.1,34.1V33v0v-3.7l0.8,0.4l1.1,0.5l0.3,0.1v2v1v0.2v1
		v0v0.2v3.6l-0.1-0.1L64,37.9l-1-0.5V34.1z M58.4,34.7L58.4,34.7v-1.1v0v-1.1V27l2.2,1.1v4.1v1.1v0v1.1v0v0v1.8l-2.2-1.1V34.7z
		 M53.6,24.6l2.2,1.1v7.1v1L54,32.9l-0.5-0.2V24.6z"/>
	<polygon class="st1" points="70.1,34.8 70.1,35.9 70.1,36.1 70,37.1 70,37.1 70,37.3 69.9,43 69.9,43 69.9,43 75.8,42.4 79.5,42 
		79.5,42 79.8,42 81.5,41.8 81.8,41.7 82.2,41.7 82.2,40.9 82.5,28 70.2,29.4 	"/>
	<polygon class="st1" points="29.5,25.2 30.6,24.6 31.7,24.1 41.1,19.3 31.6,18.3 30.7,18.2 30.5,18.3 21.7,22.7 14.8,26.1 
		25.3,27.3 	"/>
	<path class="st1" d="M43.9,52.1l-12.2,6.1l-1.1,0.5l-1.1,0.5l-2.9,1.5l0.1,4.7l0,1l0,0.2l0,1v0l0,0.2l0.1,6.1l0,0.2v0l2.7-1.3
		l1.1-0.5l1.1-0.5l9.7-4.9l1.8-0.9l0,0l0.9-0.4L43.9,52.1L43.9,52.1z M31.5,64.7L31.5,64.7v1.1v0v3.3l-1,0.5l-1.1,0.5l-0.1,0.1v-3.6
		v-0.2v0v-1v-0.2v-1v-2l0.3-0.1l1.1-0.5l0.8-0.4V64.7z M36.2,64.1v1.1v0v1.1v0v0.4L34,67.9v-1.8v0v0V65v0v-1.1v-4.1l2.2-1.1V64.1z
		 M41,64.4l-0.5,0.2l-1.7,0.9v-1v-7.1l2.2-1.1V64.4z"/>
	<polygon class="st1" points="12.4,73.4 12.8,73.4 13.1,73.5 14.8,73.7 15.1,73.7 15.1,73.7 18.8,74.1 24.7,74.7 24.7,74.7 
		24.7,74.7 24.6,69 24.6,68.8 24.6,68.8 24.5,67.7 24.5,67.6 24.5,66.5 24.4,61.1 12.1,59.7 12.3,72.6 	"/>
	<path class="st1" d="M43.9,36.1l-12.2,6.1l-1.1,0.5l-1.1,0.5l-2.9,1.5l0.1,4.7l0,1l0,0.2l0,1v0l0,0.2l0.1,6.1l0,0.2v0l2.7-1.3
		l1.1-0.5l1.1-0.5l9.7-4.9l1.8-0.9l0,0l0.9-0.4L43.9,36.1L43.9,36.1z M31.5,48.7L31.5,48.7v1.1v0v3.3l-1,0.5l-1.1,0.5l-0.1,0.1v-3.6
		v-0.2v0v-1v-0.2v-1v-2l0.3-0.1l1.1-0.5l0.8-0.4V48.7z M36.2,48.1v1.1v0v1.1v0v0.4L34,51.9v-1.8v0v0V49v0v-1.1v-4.1l2.2-1.1V48.1z
		 M41,48.4l-0.5,0.2l-1.7,0.9v-1v-7.1l2.2-1.1V48.4z"/>
	<polygon class="st1" points="12.4,57.4 12.8,57.4 13.1,57.5 14.8,57.7 15.1,57.7 15.1,57.7 18.8,58.1 24.7,58.7 24.7,58.7 
		24.7,58.7 24.6,53 24.6,52.8 24.6,52.8 24.5,51.7 24.5,51.6 24.5,50.5 24.4,45.1 12.1,43.7 12.3,56.6 	"/>
	<path class="st1" d="M30.6,27l-1.1,0.5l-2.9,1.5l0.1,4.7l0,1l0,0.2l0,1v0l0,0.2l0.1,6.1l0,0.2v0l2.7-1.3l1.1-0.5l1.1-0.5l9.7-4.9
		l1.8-0.9l0,0l0.9-0.4l-0.2-13.5l0,0l-12.2,6.1L30.6,27z M31.5,33L31.5,33v1.1v0v3.3l-1,0.5l-1.1,0.5l-0.1,0.1v-3.6v-0.2v0v-1v-0.2
		v-1v-2l0.3-0.1l1.1-0.5l0.8-0.4V33z M38.8,32.7v-7.1l2.2-1.1v8.1l-0.5,0.2l-1.7,0.9V32.7z M34,34.4L34,34.4L34,34.4v-1.1v0v-1.1
		v-4.1l2.2-1.1v5.4v1.1v0v1.1v0v0.4L34,36.2V34.4z"/>
	<polygon class="st1" points="12.4,41.7 12.8,41.7 13.1,41.8 14.8,42 15.1,42 15.1,42 18.8,42.4 24.7,43 24.7,43 24.7,43 24.6,37.3 
		24.6,37.1 24.6,37.1 24.5,36.1 24.5,35.9 24.5,34.8 24.4,29.4 12.1,28 12.3,40.9 	"/>
</g>
</svg>
