<?xml version="1.0" encoding="utf-8"?>
<!-- Generator: Adobe Illustrator 24.1.0, SVG Export Plug-In . SVG Version: 6.00 Build 0)  -->
<svg version="1.1" id="Layer_1" xmlns="http://www.w3.org/2000/svg" xmlns:xlink="http://www.w3.org/1999/xlink" x="0px" y="0px"
	 viewBox="0 0 94.6 94.6" style="enable-background:new 0 0 94.6 94.6;" xml:space="preserve">
<style type="text/css">
	.st0{fill:none;}
	.st1{fill:#262261;}
</style>
<g>
	<ellipse transform="matrix(0.7882 -0.6154 0.6154 0.7882 -6.4778 31.3509)" class="st1" cx="42.3" cy="25.1" rx="24" ry="24"/>
	<path class="st1" d="M4.1,74.4c1.5,2,3,3.8,4.8,5.4c1.5,1.5,3.1,2.8,4.8,4.2c8.3,6.2,18.2,9.4,28.5,9.4c5.8,0,11.6-1.1,16.9-3.1
		c-0.5-0.6-0.9-1.3-1.2-2c-1.8-3.8-1.4-8.1,0.7-11.4l-2-11.8h-6.5V58v-2.6v-0.1c-2.5,0.8-5.2,1.2-7.9,1.2c-5.4,0-10.7-1.7-15.1-4.9
		c-0.8-0.6-2-0.9-3-0.7c-8.4,1.2-15.9,5.9-20.6,13c-0.9,1.4-1.8,2.9-2.4,4.4c-0.3,0.6-0.2,1.4,0.1,2C2.1,71.7,3.1,73.2,4.1,74.4z"/>
	<path class="st1" d="M94,60.8H65.9l-1-5.4h-7.6V58h5.3l3.7,21.5c-2.2,1.1-3,3.7-2,5.8c0.7,1.5,2.3,2.4,3.9,2.4
		c0.6,0,1.3-0.1,1.9-0.4c2.1-1,3-3.5,2.1-5.7h9.6c-1,2.2,0,4.8,2.2,5.7c0.6,0.2,1.2,0.4,1.7,0.4c1.7,0,3.3-1,4-2.6
		c1-2.2,0-4.8-2.2-5.7c-0.5-0.2-1.2-0.4-1.7-0.4H69l-0.6-3.6h21.3L94,60.8z"/>
</g>
</svg>
