<?xml version="1.0" encoding="utf-8"?>
<!-- Generator: Adobe Illustrator 24.1.0, SVG Export Plug-In . SVG Version: 6.00 Build 0)  -->
<svg version="1.1" id="Layer_1" xmlns="http://www.w3.org/2000/svg" xmlns:xlink="http://www.w3.org/1999/xlink" x="0px" y="0px"
	 viewBox="0 0 94.6 94.6" style="enable-background:new 0 0 94.6 94.6;" xml:space="preserve">
<style type="text/css">
	.st0{fill:none;}
	.st1{fill:#262261;}
</style>
<g>
	<path class="st0" d="M77.5,84.4c2.7,0,5-2.2,5-5c0-2.7-2.2-5-5-5v5h-5C72.6,82.2,74.8,84.4,77.5,84.4z"/>
	<path class="st0" d="M79.9,9.3c1.5,0,2.7-1.2,2.7-2.7c0-1.5-1.2-2.7-2.7-2.7s-2.7,1.2-2.7,2.7C77.2,8.1,78.4,9.3,79.9,9.3z"/>
	<path class="st0" d="M71.9,85.5c3.3,3.1,8.6,3,11.7-0.3c3-3.2,3-8.2,0-11.4l1.2-1.2l-1.2-1.2l-1.3,1.3c-1.2-0.8-2.5-1.3-3.9-1.5
		v-1.7H80v-1.7h-5v1.7h1.7v1.7c-1.4,0.1-2.8,0.6-3.9,1.5l-1.3-1.3l-1.2,1.2l1.2,1.2C68.4,77.1,68.5,82.3,71.9,85.5z M77.5,72.8
		c3.7,0,6.6,3,6.6,6.6c0,3.7-3,6.6-6.6,6.6c-3.7,0-6.6-3-6.6-6.6S73.9,72.8,77.5,72.8z"/>
	<path class="st0" d="M14.7,9.3c1.5,0,2.7-1.2,2.7-2.7c0-1.5-1.2-2.7-2.7-2.7S12,5.2,12,6.6C12,8.1,13.2,9.3,14.7,9.3z"/>
	<polygon class="st1" points="34.2,36.5 34.2,46.3 44.4,46.3 44.3,36.5 	"/>
	<polygon class="st1" points="18,62.1 28.3,62.1 28.3,52.3 18,52.3 	"/>
	<polygon class="st1" points="18,36.5 18,46.3 28.2,46.3 28.2,36.5 	"/>
	<polygon class="st1" points="50.3,36.5 50.4,46.3 60.5,46.3 60.5,36.5 	"/>
	<polygon class="st1" points="44.4,62.1 44.4,52.3 34.3,52.3 34.3,62.1 	"/>
	<path class="st1" d="M91.6,94.6h3v-3.1C93.7,92.7,92.7,93.7,91.6,94.6z"/>
	<path class="st1" d="M76.6,55.9v-3.6H66.6l0,6.5C69.6,57.1,73,56,76.6,55.9z"/>
	<polygon class="st1" points="76.6,36.5 66.5,36.5 66.5,46.3 76.6,46.3 	"/>
	<path class="st1" d="M0,94.6h63.5c-3.3-2.8-5.8-6.5-7-10.7H12V30.5h70.6v25.9c4.8,1.1,9,3.9,12,7.6V18.8H0V94.6z"/>
	<path class="st1" d="M0,12.8h94.6V0H0V12.8z M79.9,3.9c1.5,0,2.7,1.2,2.7,2.7c0,1.5-1.2,2.7-2.7,2.7s-2.7-1.2-2.7-2.7
		C77.2,5.2,78.4,3.9,79.9,3.9z M14.7,3.9c1.5,0,2.7,1.2,2.7,2.7c0,1.5-1.2,2.7-2.7,2.7S12,8.1,12,6.6C12,5.2,13.2,3.9,14.7,3.9z"/>
	<polygon class="st1" points="18,77.9 28.4,77.9 28.3,68.1 18,68.1 	"/>
	<polygon class="st1" points="44.5,77.9 44.5,68.1 34.3,68.1 34.4,77.9 	"/>
	<polygon class="st1" points="60.6,52.3 50.4,52.3 50.4,62.1 60.6,62.1 	"/>
	<path class="st1" d="M50.5,68.1l0,9.8h5.1c0-0.1,0-0.1,0-0.1c0-3.5,0.8-6.7,2.2-9.7H50.5z"/>
	<path class="st1" d="M61.6,77.8c0,8.8,7.2,15.9,15.9,15.9s15.9-7.2,15.9-15.9s-7.2-15.9-15.9-15.9S61.6,69,61.6,77.8z M70.3,72.6
		l1.2-1.2l1.3,1.3c1.2-0.8,2.5-1.3,3.9-1.5v-1.7h-1.7v-1.7h5v1.7h-1.7v1.7c1.4,0.1,2.8,0.6,3.9,1.5l1.3-1.3l1.2,1.2l-1.2,1.2
		c3,3.2,3,8.2,0,11.4c-3.1,3.3-8.4,3.5-11.7,0.3s-3.5-8.4-0.3-11.7L70.3,72.6z"/>
	<path class="st1" d="M77.5,86c3.7,0,6.6-3,6.6-6.6c0-3.7-3-6.6-6.6-6.6s-6.6,3-6.6,6.6S73.9,86,77.5,86z M77.5,79.4v-5
		c2.7,0,5,2.2,5,5c0,2.7-2.2,5-5,5c-2.7,0-5-2.2-5-5H77.5z"/>
</g>
</svg>
