<?xml version="1.0" encoding="utf-8"?>
<!-- Generator: Adobe Illustrator 24.1.0, SVG Export Plug-In . SVG Version: 6.00 Build 0)  -->
<svg version="1.1" id="Layer_1" xmlns="http://www.w3.org/2000/svg" xmlns:xlink="http://www.w3.org/1999/xlink" x="0px" y="0px"
	 viewBox="0 0 94.6 94.6" style="enable-background:new 0 0 94.6 94.6;" xml:space="preserve">
<style type="text/css">
	.st0{fill:none;}
	.st1{fill:#262261;}
</style>
<g>
	<path class="st0" d="M66.1,70.3L66.1,70.3c-2.1,1.5-2.4,4.2-0.8,6.3c0.9,1.2,2.1,1.9,3.2,2.2l3-2.2l-2.3-3.1l-1.4,1l1,1.3l-0.8,0.6
		c-0.4-0.1-0.7-0.4-1.1-0.9c-0.8-1.1-0.6-2.4,0.5-3.2l0,0c1-0.8,2.4-0.6,3.1,0.4c0.5,0.7,0.6,1.3,0.6,2.1l2.1,0.1
		c0.1-1.2-0.2-2.3-1.1-3.5C70.8,69.3,68.1,68.9,66.1,70.3z"/>
	
		<rect x="60.5" y="67.2" transform="matrix(0.8034 -0.5955 0.5955 0.8034 -28.0066 51.9592)" class="st0" width="8.4" height="2.3"/>
	<polygon class="st0" points="57.3,65.5 59.7,63.7 62.1,66.9 63.6,65.8 61.3,62.6 62.4,61.7 65,65.3 66.7,64 62.7,58.6 55.9,63.6 	
		"/>
	<path class="st0" d="M74.8,86.7c1.7,0.4,3.4-0.6,3.8-2.2c0.4-1.7-0.6-3.4-2.2-3.8c-1.7-0.4-3.4,0.6-3.8,2.2
		C72.1,84.5,73.1,86.2,74.8,86.7z"/>
	<polygon class="st0" points="51.7,57.9 55.4,55.2 53.8,60.8 55,62.4 61.8,57.4 60.4,55.6 56.9,58.2 58.4,52.8 57.1,51.1 50.3,56.1 
			"/>
	<path class="st0" d="M42.4,38.3L42.4,38.3c-2,1.5-2.4,4.2-0.9,6.1c1.1,1.5,2.4,1.9,3.7,1.8l0-2.2c-0.8,0-1.4-0.2-1.9-0.9
		c-0.7-0.9-0.4-2.2,0.6-2.9l0,0c1-0.7,2.3-0.7,3,0.3c0.5,0.6,0.5,1.3,0.3,2.1l2.1,0.6c0.4-1.2,0.3-2.5-0.7-3.9
		C47,37.2,44.3,36.8,42.4,38.3z"/>
	<path class="st0" d="M47.6,45.4c-1.9,1.4-2.3,4.1-0.8,6.2c1.5,2.1,4.3,2.5,6.2,1l0,0c1.9-1.4,2.3-4.1,0.8-6.2S49.5,43.9,47.6,45.4
		L47.6,45.4z M49,47.3L49,47.3c1-0.7,2.3-0.7,3.1,0.4c0.8,1,0.4,2.3-0.5,3.1l0,0c-1,0.7-2.3,0.7-3.1-0.4C47.7,49.3,48,48,49,47.3z"
		/>
	<path class="st1" d="M51.5,50.7L51.5,50.7c1-0.7,1.3-2.1,0.6-3.1c-0.8-1-2.1-1.1-3.1-0.4l0,0c-1,0.7-1.3,2.1-0.5,3.1
		C49.2,51.4,50.6,51.4,51.5,50.7z"/>
	<path class="st1" d="M20.4,38.1l3.7-14L9.9,20.3C9.8,27.7,13.9,34.6,20.4,38.1z"/>
	<path class="st1" d="M34.9,1.3C24.9-1.4,14.5,4.1,11.1,13.8l21.1,5.6l-5.5,20.8c2.1,0.3,4.1,0.3,6.1,0l36.1,49.6
		c2.7,3.7,7.9,4.6,11.7,1.8l1.3-0.9c3.7-2.7,4.6-7.9,1.8-11.7l-36-49.6c0.6-1.2,1.1-2.5,1.5-3.9C51.9,15,45.6,4.1,34.9,1.3z
		 M76.4,80.6c1.7,0.4,2.7,2.2,2.2,3.8c-0.4,1.7-2.2,2.7-3.8,2.2c-1.7-0.4-2.7-2.2-2.2-3.8C73,81.1,74.7,80.1,76.4,80.6z M72.3,71.4
		c0.9,1.2,1.1,2.3,1.1,3.5l-2.1-0.1c0-0.8-0.1-1.4-0.6-2.1c-0.7-1-2.1-1.1-3.1-0.4l0,0c-1.1,0.8-1.3,2.2-0.5,3.2
		c0.3,0.5,0.7,0.7,1.1,0.9l0.8-0.6l-1-1.3l1.4-1l2.3,3.1l-3,2.2c-1.1-0.3-2.3-0.9-3.2-2.2c-1.6-2.1-1.3-4.7,0.8-6.2l0,0
		C68.1,68.9,70.8,69.3,72.3,71.4z M68.7,66.8l-6.7,5L60.6,70l6.7-5L68.7,66.8z M66.7,64L65,65.3l-2.6-3.5l-1.1,0.8l2.4,3.2l-1.6,1.2
		l-2.4-3.2l-2.4,1.8l-1.4-1.9l6.7-5L66.7,64z M58.4,52.8l-1.5,5.4l3.6-2.6l1.4,1.8l-6.7,5l-1.2-1.6l1.6-5.6l-3.7,2.7l-1.4-1.8l6.7-5
		L58.4,52.8z M53.8,46.4c1.5,2.1,1.1,4.8-0.8,6.2l0,0c-1.9,1.4-4.7,1-6.2-1c-1.5-2.1-1.1-4.8,0.8-6.2l0,0
		C49.5,43.9,52.3,44.3,53.8,46.4z M48.5,39.2c1,1.4,1.1,2.7,0.7,3.9l-2.1-0.6c0.2-0.7,0.2-1.4-0.3-2.1c-0.7-0.9-2-1-3-0.3l0,0
		c-1,0.7-1.3,2-0.6,2.9c0.5,0.7,1.2,0.9,1.9,0.9l0,2.2c-1.3,0-2.6-0.4-3.7-1.8c-1.4-1.9-1.1-4.6,0.9-6.1l0,0
		C44.3,36.8,47,37.2,48.5,39.2z"/>
</g>
</svg>
