<?xml version="1.0" encoding="utf-8"?>
<!-- Generator: Adobe Illustrator 24.1.0, SVG Export Plug-In . SVG Version: 6.00 Build 0)  -->
<svg version="1.1" id="Layer_1" xmlns="http://www.w3.org/2000/svg" xmlns:xlink="http://www.w3.org/1999/xlink" x="0px" y="0px"
	 viewBox="0 0 94.6 94.6" style="enable-background:new 0 0 94.6 94.6;" xml:space="preserve">
<style type="text/css">
	.st0{fill:none;}
	.st1{fill:#262261;}
</style>
<g>
	<polygon class="st0" points="80.9,38.4 91.2,38.4 91.2,7.5 71.4,7.5 71.4,36.2 80.9,36.2 	"/>
	<path class="st0" d="M77.1,4.5c0.4,0,0.8-0.3,0.8-0.8c0-0.4-0.3-0.8-0.8-0.8s-0.8,0.3-0.8,0.8C76.3,4.1,76.7,4.5,77.1,4.5z"/>
	<rect x="79.3" y="3" class="st0" width="7.1" height="1.5"/>
	<path class="st0" d="M81.3,41.4c-0.1,0-0.3,0-0.4,0v4.1c0.1,0,0.3,0,0.4,0c1.2,0,2.1-0.9,2.1-2.1S82.5,41.4,81.3,41.4z"/>
	<polygon class="st0" points="51.2,61.8 53.1,61.8 52.1,59.5 	"/>
	<polygon class="st0" points="54.8,27.8 52.5,25.5 45,33 42.1,30.1 39.8,32.4 45,37.7 	"/>
	<path class="st1" d="M80.9,82.1V47.3h13.3V0H68.4v36.2h-3.1c-0.3,2.2-1.2,4.4-2.9,6.6h12v32.7H14.7V42.8h17.6
		c-1.7-2.2-2.6-4.4-2.9-6.6H8.1v45.9l-5.2,5.5h83L80.9,82.1z M81.3,45.6c-0.1,0-0.3,0-0.4,0v-4.1c0.1,0,0.3,0,0.4,0
		c1.2,0,2.1,0.9,2.1,2.1S82.5,45.6,81.3,45.6z M79.3,3h7.1v1.5h-7.1V3z M77.1,2.9c0.4,0,0.8,0.3,0.8,0.8c0,0.4-0.3,0.8-0.8,0.8
		s-0.8-0.3-0.8-0.8C76.3,3.3,76.7,2.9,77.1,2.9z M71.4,36.2V7.5h19.8v30.8H80.9v-2.1H71.4z"/>
	<polygon class="st1" points="38,93 50.6,93 50.6,94.5 87.9,94.5 87.9,89.8 0.8,89.8 0.8,94.5 38,94.5 	"/>
	<path class="st1" d="M41.5,43.3c2.3,1.7,4.7,2.9,5.8,3.5c1.2-0.6,3.5-1.8,5.8-3.5c1.9-1.4,3.4-2.7,4.4-4.1c1.2-1.5,1.8-2.9,1.8-4.2
		V21.1l-12-3.6l-12,3.6V35c0,1.3,0.6,2.7,1.8,4.2C38.1,40.6,39.6,42,41.5,43.3z M42.1,30.1L45,33l7.5-7.5l2.3,2.3L45,37.7l-5.3-5.3
		L42.1,30.1z"/>
	<path class="st1" d="M39.1,63.3h-3.5l1.4-1c1.2-0.9,1.9-1.6,1.9-2.9v0c0-1.6-1.3-2.7-3.1-2.7c-1.6,0-2.5,0.6-3.4,1.8l1.6,1.3
		c0.7-0.8,1.1-1.1,1.7-1.1c0.6,0,0.9,0.3,0.9,0.9c0,0.5-0.3,0.9-1.1,1.5l-3.1,2.4v1.8h6.6V63.3z"/>
	<polygon class="st1" points="47,58.8 47,56.8 40.3,56.8 40.3,65.2 42.7,65.2 42.7,62.2 46.6,62.2 46.6,60.2 42.7,60.2 42.7,58.8 	
		"/>
	<path class="st1" d="M51,56.7l-3.6,8.5h2.4l0.6-1.5h3.3l0.6,1.5h2.5l-3.6-8.5H51z M51.2,61.8l0.9-2.4l0.9,2.4H51.2z"/>
</g>
</svg>
