<?xml version="1.0" encoding="utf-8"?>
<!-- Generator: Adobe Illustrator 24.1.0, SVG Export Plug-In . SVG Version: 6.00 Build 0)  -->
<svg version="1.1" id="Layer_1" xmlns="http://www.w3.org/2000/svg" xmlns:xlink="http://www.w3.org/1999/xlink" x="0px" y="0px"
	 viewBox="0 0 94.6 94.6" style="enable-background:new 0 0 94.6 94.6;" xml:space="preserve">
<style type="text/css">
	.st0{fill:none;}
	.st1{fill:#262261;}
</style>
<g>
	<polygon class="st0" points="54.1,62.7 50.5,62.7 40.2,84.3 43.8,84.3 	"/>
	<polygon class="st0" points="39.2,75.7 31.6,73.1 39.2,70.6 39.2,66.5 27.6,71.1 27.6,75.2 39.2,79.8 	"/>
	<polygon class="st0" points="67,71.1 55.4,66.5 55.4,70.6 63,73.2 55.4,75.7 55.4,79.8 67,75.2 	"/>
	<path class="st1" d="M47.3,32.9c9,0,16.3-7.3,16.3-16.3c0-9-7.3-16.3-16.3-16.3c-9,0-16.3,7.3-16.3,16.3
		C31,25.6,38.3,32.9,47.3,32.9z"/>
	<path class="st1" d="M20.9,43c-0.6,0.9-1.2,2-1.6,3c0,0,0,0,0,0h56c0,0,0,0,0,0c-0.4-1.1-1-2.1-1.6-3c-3.3-4.8-8.3-8.1-14-8.8
		c-0.7-0.1-1.5,0.1-2.1,0.5c-3,2.2-6.6,3.3-10.3,3.3c-3.7,0-7.3-1.1-10.3-3.3c-0.6-0.4-1.4-0.6-2.1-0.5C29.3,34.9,24.1,38.2,20.9,43
		z"/>
	<path class="st1" d="M13.8,94.2h67l5-8.6h-5V52h-67v33.5h-5L13.8,94.2z M55.4,75.7l7.6-2.5l-7.6-2.6v-4.1L67,71.1v4.1l-11.6,4.6
		V75.7z M50.5,62.7h3.6L43.8,84.3h-3.6L50.5,62.7z M27.6,71.1l11.6-4.6v4.1l-7.6,2.6l7.6,2.5v4.1l-11.6-4.6V71.1z"/>
</g>
</svg>
