<?xml version="1.0" encoding="utf-8"?>
<!-- Generator: Adobe Illustrator 24.1.0, SVG Export Plug-In . SVG Version: 6.00 Build 0)  -->
<svg version="1.1" id="Layer_1" xmlns="http://www.w3.org/2000/svg" xmlns:xlink="http://www.w3.org/1999/xlink" x="0px" y="0px"
	 viewBox="0 0 94.6 94.6" style="enable-background:new 0 0 94.6 94.6;" xml:space="preserve">
<style type="text/css">
	.st0{fill:none;}
	.st1{fill:#262261;}
</style>
<g>
	<path class="st0" d="M26.8,50.6c-0.3,0.1-0.5,0.2-0.8,0.3c-1.6,0.9-2.8,2.3-3.3,3.9c-0.5,1.7-0.4,3.6,0.5,5.2
		c1.7,3.3,5.8,4.6,9.2,2.8c3.3-1.7,4.6-5.8,2.8-9.2c0,0,0,0,0,0l0.1,0l-7.5-14.3l5.3,1.6l1.8-5.7l-19.2-5.9L26.8,50.6z"/>
	<path class="st0" d="M62.2,36.5L69.3,52L43.7,63.7L41.5,59c-0.4,2.5-1.6,4.9-3.5,6.8l4.9,10.7l36.6-16.7L65.2,28.6L35.4,42.2
		l2.8,5.3L62.2,36.5z"/>
	<path class="st1" d="M23.9,6.9H0v80.8h94.6V18.1H23.9V6.9z M65.2,28.6l14.2,31.2L42.9,76.4L38,65.8c1.9-1.9,3.1-4.3,3.5-6.8
		l2.2,4.8L69.3,52l-7.1-15.5l-24,11l-2.8-5.3L65.2,28.6z M34.8,35.3L33,41.1l-5.3-1.6l7.5,14.3l-0.1,0c0,0,0,0,0,0
		c1.7,3.3,0.5,7.4-2.8,9.2c-3.3,1.7-7.4,0.5-9.2-2.8c-0.9-1.7-1-3.6-0.5-5.2c0.5-1.6,1.7-3,3.3-3.9c0.3-0.1,0.5-0.2,0.8-0.3
		L15.6,29.4L34.8,35.3z"/>
</g>
</svg>
