<?xml version="1.0" encoding="utf-8"?>
<!-- Generator: Adobe Illustrator 24.1.0, SVG Export Plug-In . SVG Version: 6.00 Build 0)  -->
<svg version="1.1" id="Layer_1" xmlns="http://www.w3.org/2000/svg" xmlns:xlink="http://www.w3.org/1999/xlink" x="0px" y="0px"
	 viewBox="0 0 94.6 94.6" style="enable-background:new 0 0 94.6 94.6;" xml:space="preserve">
<style type="text/css">
	.st0{fill:none;}
	.st1{fill:#262261;}
</style>
<g>
	<path class="st0" d="M7.5,70.7c0.6,0,1.2-0.5,1.2-1.2s-0.5-1.2-1.2-1.2s-1.2,0.5-1.2,1.2S6.8,70.7,7.5,70.7z"/>
	<rect x="16.2" y="68.2" class="st0" width="9.7" height="2.5"/>
	<path class="st0" d="M3.8,70.7c0.6,0,1.2-0.5,1.2-1.2s-0.5-1.2-1.2-1.2s-1.2,0.5-1.2,1.2S3.1,70.7,3.8,70.7z"/>
	<path class="st0" d="M3.8,81.2c0.6,0,1.2-0.5,1.2-1.2s-0.5-1.2-1.2-1.2s-1.2,0.5-1.2,1.2S3.1,81.2,3.8,81.2z"/>
	<path class="st0" d="M7.5,81.2c0.6,0,1.2-0.5,1.2-1.2s-0.5-1.2-1.2-1.2s-1.2,0.5-1.2,1.2S6.8,81.2,7.5,81.2z"/>
	<rect x="16.2" y="57.6" class="st0" width="9.7" height="2.5"/>
	<path class="st0" d="M3.8,57.7c-0.6,0-1.2,0.5-1.2,1.2s0.5,1.2,1.2,1.2s1.2-0.5,1.2-1.2S4.4,57.7,3.8,57.7z"/>
	<path class="st0" d="M7.5,57.7c-0.6,0-1.2,0.5-1.2,1.2s0.5,1.2,1.2,1.2s1.2-0.5,1.2-1.2S8.1,57.7,7.5,57.7z"/>
	<rect x="16.2" y="78.8" class="st0" width="9.7" height="2.5"/>
	<polygon class="st0" points="62.2,35.2 66.2,35.2 66.2,33.3 62.2,33.3 62.2,32 66.6,32 66.6,30.1 59.9,30.1 59.9,38.5 66.7,38.5 
		66.7,36.5 62.2,36.5 	"/>
	<polygon class="st0" points="72.4,33.3 70.4,30.1 67.9,30.1 67.9,38.5 70.2,38.5 70.2,33.7 72.3,36.9 72.4,36.9 74.5,33.6 
		74.5,38.5 76.8,38.5 76.8,30.1 74.4,30.1 	"/>
	<path class="st0" d="M3.8,89.5c-0.6,0-1.2,0.5-1.2,1.2s0.5,1.2,1.2,1.2s1.2-0.5,1.2-1.2S4.4,89.5,3.8,89.5z"/>
	<path class="st0" d="M58.7,33L58.7,33c0-0.9-0.3-1.5-0.7-2c-0.6-0.6-1.5-0.9-2.7-0.9h-4v8.4h2.3v-2.5h1l1.7,2.5H59l-2-2.9
		C58,35.1,58.7,34.2,58.7,33z M56.4,33.1c0,0.6-0.5,1-1.2,1h-1.5v-2h1.5C55.9,32.1,56.4,32.4,56.4,33.1L56.4,33.1z"/>
	<path class="st0" d="M46.8,30.1h-3.6v8.4h2.3v-2.4h1.2c2.1,0,3.6-1,3.6-3v0C50.3,31.2,48.9,30.1,46.8,30.1z M47.9,33.1
		c0,0.7-0.5,1.1-1.3,1.1h-1.1V32h1.1C47.4,32,47.9,32.4,47.9,33.1L47.9,33.1z"/>
	<polygon class="st0" points="39.4,34.5 35.9,30.1 33.8,30.1 33.8,38.5 36.1,38.5 36.1,33.9 39.7,38.5 41.7,38.5 41.7,30.1 
		39.4,30.1 	"/>
	<path class="st0" d="M7.5,89.5c-0.6,0-1.2,0.5-1.2,1.2s0.5,1.2,1.2,1.2s1.2-0.5,1.2-1.2S8.1,89.5,7.5,89.5z"/>
	<path class="st0" d="M28,29.9c-2.6,0-4.5,2-4.5,4.4v0c0,2.4,1.9,4.3,4.5,4.3c2.6,0,4.5-2,4.5-4.4v0C32.6,31.8,30.6,29.9,28,29.9z
		 M30.2,34.3c0,1.2-0.9,2.2-2.1,2.2c-1.3,0-2.2-1.1-2.2-2.3v0c0-1.2,0.9-2.2,2.1-2.2C29.3,32,30.2,33,30.2,34.3L30.2,34.3z"/>
	<rect x="16.2" y="89.4" class="st0" width="9.7" height="2.5"/>
	<path class="st1" d="M50.8,1L7.5,40h13v9h8h6v6v19.7h7.7v-26h17.3v26h21.7V40h13L50.8,1z M32.6,34.3c0,2.4-1.9,4.4-4.5,4.4
		c-2.6,0-4.5-1.9-4.5-4.3v0c0-2.4,1.9-4.4,4.5-4.4C30.6,29.9,32.6,31.8,32.6,34.3L32.6,34.3z M41.7,38.5h-2l-3.6-4.6v4.6h-2.3v-8.4
		h2.2l3.5,4.4v-4.4h2.3V38.5z M50.3,33c0,2-1.5,3-3.6,3h-1.2v2.4h-2.3v-8.4h3.6C48.9,30.1,50.3,31.2,50.3,33L50.3,33z M56.3,38.5
		l-1.7-2.5h-1v2.5h-2.3v-8.4h4c1.3,0,2.2,0.3,2.7,0.9c0.5,0.5,0.7,1.1,0.7,2v0c0,1.3-0.7,2.1-1.7,2.6l2,2.9H56.3z M66.7,38.5h-6.8
		v-8.4h6.8v2h-4.4v1.3h4v1.8h-4v1.3h4.5V38.5z M76.8,38.5h-2.3v-4.8l-2.1,3.3h0l-2.1-3.3v4.8h-2.3v-8.4h2.5l2,3.2l2-3.2h2.5V38.5z"
		/>
	<path class="st1" d="M28,32c-1.3,0-2.1,1-2.1,2.2v0c0,1.2,0.9,2.3,2.2,2.3c1.3,0,2.1-1,2.1-2.2v0C30.2,33,29.3,32,28,32z"/>
	<path class="st1" d="M46.6,32h-1.1v2.2h1.1c0.8,0,1.3-0.4,1.3-1.1v0C47.9,32.4,47.4,32,46.6,32z"/>
	<path class="st1" d="M55.1,32.1h-1.5v2h1.5c0.8,0,1.2-0.4,1.2-1v0C56.4,32.4,55.9,32.1,55.1,32.1z"/>
	<path class="st1" d="M28.4,86.7H0.2v7.9h28.2V86.7z M3.8,91.8c-0.6,0-1.2-0.5-1.2-1.2s0.5-1.2,1.2-1.2s1.2,0.5,1.2,1.2
		S4.4,91.8,3.8,91.8z M7.5,91.8c-0.6,0-1.2-0.5-1.2-1.2s0.5-1.2,1.2-1.2s1.2,0.5,1.2,1.2S8.1,91.8,7.5,91.8z M25.9,91.9h-9.7v-2.5
		h9.7V91.9z"/>
	<path class="st1" d="M0.2,84h28.2v-7.9H0.2V84z M16.2,78.8h9.7v2.5h-9.7V78.8z M7.5,78.9c0.6,0,1.2,0.5,1.2,1.2s-0.5,1.2-1.2,1.2
		s-1.2-0.5-1.2-1.2S6.8,78.9,7.5,78.9z M3.8,78.9c0.6,0,1.2,0.5,1.2,1.2s-0.5,1.2-1.2,1.2s-1.2-0.5-1.2-1.2S3.1,78.9,3.8,78.9z"/>
	<path class="st1" d="M0.2,73.4h28.2v-7.9H0.2V73.4z M16.2,68.2h9.7v2.5h-9.7V68.2z M7.5,68.3c0.6,0,1.2,0.5,1.2,1.2
		s-0.5,1.2-1.2,1.2s-1.2-0.5-1.2-1.2S6.8,68.3,7.5,68.3z M3.8,68.3c0.6,0,1.2,0.5,1.2,1.2s-0.5,1.2-1.2,1.2s-1.2-0.5-1.2-1.2
		S3.1,68.3,3.8,68.3z"/>
	<path class="st1" d="M28.4,55L28.4,55L0.2,55v0v7.9h28.2V55z M3.8,60.1c-0.6,0-1.2-0.5-1.2-1.2s0.5-1.2,1.2-1.2s1.2,0.5,1.2,1.2
		S4.4,60.1,3.8,60.1z M7.5,60.1c-0.6,0-1.2-0.5-1.2-1.2s0.5-1.2,1.2-1.2s1.2,0.5,1.2,1.2S8.1,60.1,7.5,60.1z M25.9,60.2h-9.7v-2.5
		h9.7V60.2z"/>
</g>
</svg>
