<?xml version="1.0" encoding="utf-8"?>
<!-- Generator: Adobe Illustrator 24.1.0, SVG Export Plug-In . SVG Version: 6.00 Build 0)  -->
<svg version="1.1" id="Layer_1" xmlns="http://www.w3.org/2000/svg" xmlns:xlink="http://www.w3.org/1999/xlink" x="0px" y="0px"
	 viewBox="0 0 94.6 94.6" style="enable-background:new 0 0 94.6 94.6;" xml:space="preserve">
<style type="text/css">
	.st0{fill:none;}
	.st1{fill:#262261;}
</style>
<g>
	<polygon class="st0" points="60.5,57.6 58.5,54.3 56,54.3 56,62.7 58.3,62.7 58.3,57.9 60.4,61.2 60.5,61.2 62.6,57.9 62.6,62.7 
		64.9,62.7 64.9,54.3 62.5,54.3 	"/>
	<path class="st0" d="M50.3,54.2c-2.6,0-4.5,2-4.5,4.4v0c0,2.4,1.9,4.3,4.5,4.3c2.6,0,4.5-2,4.5-4.4v0
		C54.8,56.1,52.9,54.2,50.3,54.2z M52.4,58.6c0,1.2-0.9,2.2-2.1,2.2c-1.3,0-2.2-1.1-2.2-2.3v0c0-1.2,0.9-2.2,2.1-2.2
		C51.6,56.3,52.4,57.3,52.4,58.6L52.4,58.6z"/>
	<path class="st0" d="M33.2,57.5c-1.2-0.3-1.5-0.4-1.5-0.8v0c0-0.3,0.3-0.5,0.8-0.5c0.7,0,1.6,0.3,2.4,0.8l1.2-1.6
		c-0.9-0.7-2-1.1-3.5-1.1c-2,0-3.2,1.1-3.2,2.7v0c0,1.7,1.4,2.2,3.2,2.6c1.2,0.3,1.4,0.5,1.4,0.8v0c0,0.4-0.3,0.6-1,0.6
		c-1,0-1.9-0.3-2.7-1L29,61.5c1,0.9,2.4,1.4,3.9,1.4c2,0,3.4-1,3.4-2.7v0C36.3,58.6,35.1,57.9,33.2,57.5z"/>
	<path class="st0" d="M43.3,58.4c0.7-0.3,1.3-0.9,1.3-1.9v0c0-0.6-0.2-1-0.5-1.4c-0.5-0.5-1.2-0.7-2.3-0.7h-4.3v8.4h4.3
		c2,0,3.2-0.9,3.2-2.3v0C45,59.3,44.3,58.7,43.3,58.4z M39.7,56.2h1.5c0.7,0,1.1,0.3,1.1,0.7v0c0,0.5-0.4,0.7-1.1,0.7h-1.5V56.2z
		 M42.7,60.1c0,0.5-0.4,0.8-1.1,0.8h-1.8v-1.5h1.8C42.3,59.3,42.7,59.6,42.7,60.1L42.7,60.1z"/>
	<path class="st1" d="M42.3,57L42.3,57c0-0.5-0.4-0.7-1.1-0.7h-1.5v1.5h1.5C41.9,57.7,42.3,57.5,42.3,57z"/>
	<path class="st1" d="M41.5,59.3h-1.8v1.5h1.8c0.7,0,1.1-0.3,1.1-0.8v0C42.7,59.6,42.3,59.3,41.5,59.3z"/>
	<path class="st1" d="M82,29.6L82,29.6l-23.2,0h-6v-6V0H12.6v94.6H82V29.6z M36.3,60.2c0,1.7-1.4,2.7-3.4,2.7
		c-1.5,0-2.9-0.5-3.9-1.4l1.3-1.5c0.8,0.7,1.8,1,2.7,1c0.6,0,1-0.2,1-0.6v0c0-0.4-0.3-0.5-1.4-0.8c-1.8-0.4-3.2-0.9-3.2-2.6v0
		c0-1.6,1.2-2.7,3.2-2.7c1.4,0,2.5,0.4,3.5,1.1L35,57c-0.8-0.6-1.6-0.8-2.4-0.8c-0.6,0-0.8,0.2-0.8,0.5v0c0,0.4,0.3,0.6,1.5,0.8
		C35.1,57.9,36.3,58.6,36.3,60.2L36.3,60.2z M45,60.4c0,1.4-1.2,2.3-3.2,2.3h-4.3v-8.4h4.3c1.1,0,1.8,0.3,2.3,0.7
		c0.3,0.3,0.5,0.8,0.5,1.4v0c0,1-0.6,1.5-1.3,1.9C44.3,58.7,45,59.3,45,60.4L45,60.4z M54.8,58.5c0,2.4-1.9,4.4-4.5,4.4
		c-2.6,0-4.5-1.9-4.5-4.3v0c0-2.4,1.9-4.4,4.5-4.4C52.9,54.2,54.8,56.1,54.8,58.5L54.8,58.5z M64.9,62.7h-2.3v-4.8l-2.1,3.3h0
		l-2.1-3.3v4.8H56v-8.4h2.5l2,3.2l2-3.2h2.5V62.7z"/>
	<path class="st1" d="M50.3,56.3c-1.3,0-2.1,1-2.1,2.2v0c0,1.2,0.9,2.3,2.2,2.3c1.3,0,2.1-1,2.1-2.2v0
		C52.4,57.3,51.6,56.3,50.3,56.3z"/>
	<polygon class="st1" points="58.8,0 58.8,23.6 82.4,23.6 	"/>
</g>
</svg>
