<?xml version="1.0" encoding="utf-8"?>
<!-- Generator: Adobe Illustrator 24.1.0, SVG Export Plug-In . SVG Version: 6.00 Build 0)  -->
<svg version="1.1" id="Layer_1" xmlns="http://www.w3.org/2000/svg" xmlns:xlink="http://www.w3.org/1999/xlink" x="0px" y="0px"
	 viewBox="0 0 94.6 94.6" style="enable-background:new 0 0 94.6 94.6;" xml:space="preserve">
<style type="text/css">
	.st0{fill:none;}
	.st1{fill:#262261;}
</style>
<g>
	<path class="st0" d="M61.9,45.7c1.8,0,2.9-0.8,3.7-1.9l-1.8-1.2c-0.5,0.6-1,1-1.9,1c-1.2,0-2-1-2-2.2v0c0-1.2,0.8-2.2,2-2.2
		c0.8,0,1.4,0.4,1.8,1l1.8-1.4c-0.7-1-1.8-1.7-3.6-1.7c-2.5,0-4.4,1.9-4.4,4.4v0C57.5,43.9,59.5,45.7,61.9,45.7z"/>
	<polygon class="st0" points="68.9,42.2 73,42.2 73,40.4 68.9,40.4 68.9,39.1 73.4,39.1 73.4,37.2 66.6,37.2 66.6,45.5 73.4,45.5 
		73.4,43.6 68.9,43.6 	"/>
	<rect x="53.8" y="37.2" class="st0" width="2.3" height="8.4"/>
	<rect x="21.5" y="37.2" class="st0" width="2.3" height="8.4"/>
	<path class="st0" d="M47.9,45.7c2.6,0,4.5-2,4.5-4.4v0c0-2.4-1.9-4.3-4.5-4.3c-2.6,0-4.5,2-4.5,4.4v0
		C43.4,43.8,45.4,45.7,47.9,45.7z M45.8,41.3c0-1.2,0.9-2.2,2.1-2.2c1.3,0,2.1,1,2.1,2.3v0c0,1.2-0.9,2.2-2.1,2.2
		C46.7,43.6,45.8,42.6,45.8,41.3L45.8,41.3z"/>
	<path class="st0" d="M23.6,83.9h47.7V51.6H23.6V83.9z M41.8,57.6h23.5v7.1H41.8V57.6z M41.8,70.7h23.5v7.1H41.8V70.7z M29.6,57.6
		h6.2v7.1h-6.2V57.6z M29.6,70.7h6.2v7.1h-6.2V70.7z"/>
	<polygon class="st0" points="27.7,37.2 25.6,37.2 25.6,45.5 27.9,45.5 27.9,40.9 31.5,45.5 33.5,45.5 33.5,37.2 31.2,37.2 
		31.2,41.6 	"/>
	<rect x="23.6" y="10.8" class="st0" width="18.5" height="6"/>
	<polygon class="st0" points="38.9,42.5 37,37.2 34.4,37.2 37.8,45.6 39.9,45.6 43.3,37.2 40.8,37.2 	"/>
	<rect x="41.8" y="70.7" class="st1" width="23.5" height="7.1"/>
	<rect x="41.8" y="57.6" class="st1" width="23.5" height="7.1"/>
	<rect x="29.6" y="57.6" class="st1" width="6.2" height="7.1"/>
	<path class="st1" d="M48,43.6c1.3,0,2.1-1,2.1-2.2v0c0-1.2-0.9-2.3-2.1-2.3c-1.3,0-2.1,1-2.1,2.2v0C45.8,42.6,46.7,43.6,48,43.6z"
		/>
	<path class="st1" d="M82,29.6L82,29.6l-23.2,0h-6v-6V0H12.6v94.6H82V29.6z M57.5,41.4c0-2.4,1.9-4.4,4.4-4.4c1.7,0,2.8,0.7,3.6,1.7
		l-1.8,1.4c-0.5-0.6-1-1-1.8-1c-1.2,0-2,1-2,2.2v0c0,1.3,0.8,2.2,2,2.2c0.9,0,1.4-0.4,1.9-1l1.8,1.2c-0.8,1.1-1.9,1.9-3.7,1.9
		C59.5,45.7,57.5,43.9,57.5,41.4L57.5,41.4z M53.8,37.2h2.3v8.4h-2.3V37.2z M43.4,41.4c0-2.4,1.9-4.4,4.5-4.4c2.6,0,4.5,1.9,4.5,4.3
		v0c0,2.4-1.9,4.4-4.5,4.4C45.4,45.7,43.4,43.8,43.4,41.4L43.4,41.4z M23.6,10.8h18.5v6H23.6V10.8z M43.3,37.2l-3.4,8.5h-2.2
		l-3.4-8.5H37l1.9,5.3l1.9-5.3H43.3z M33.5,37.2v8.4h-2l-3.6-4.6v4.6h-2.3v-8.4h2.2l3.5,4.4v-4.4H33.5z M21.5,37.2h2.3v8.4h-2.3
		V37.2z M71.4,83.9H23.6V51.6h47.7V83.9z M73.4,45.5h-6.8v-8.4h6.8v2h-4.4v1.3h4v1.8h-4v1.3h4.5V45.5z"/>
	<rect x="29.6" y="70.7" class="st1" width="6.2" height="7.1"/>
	<polygon class="st1" points="58.8,0 58.8,23.6 82.4,23.6 	"/>
</g>
</svg>
