<?xml version="1.0" encoding="utf-8"?>
<!-- Generator: Adobe Illustrator 24.1.0, SVG Export Plug-In . SVG Version: 6.00 Build 0)  -->
<svg version="1.1" id="Layer_1" xmlns="http://www.w3.org/2000/svg" xmlns:xlink="http://www.w3.org/1999/xlink" x="0px" y="0px"
	 viewBox="0 0 94.6 94.6" style="enable-background:new 0 0 94.6 94.6;" xml:space="preserve">
<style type="text/css">
	.st0{fill:none;}
	.st1{fill:#262261;}
</style>
<g>
	<rect x="20" y="77.5" class="st0" width="43.3" height="6"/>
	<rect x="20" y="61.6" class="st0" width="43.3" height="6"/>
	<rect x="20" y="29.8" class="st0" width="43.3" height="6"/>
	<rect x="20" y="45.7" class="st0" width="43.3" height="6"/>
	<path class="st0" d="M41.7,10.6c1.5,0,2.7-1.2,2.7-2.7s-1.2-2.7-2.7-2.7S39,6.5,39,8S40.2,10.6,41.7,10.6z"/>
	<path class="st1" d="M7,12.2v82.4h69.3V12.2H57.1v8.5H26.3v-8.5H7z M63.3,83.5H20v-6h43.3V83.5z M63.3,67.6H20v-6h43.3V67.6z
		 M63.3,51.7H20v-6h43.3V51.7z M63.3,29.8v6H20v-6H63.3z"/>
	<path class="st1" d="M28.5,18.5h26.5V9.1h-5.4c0-0.4,0.1-0.7,0.1-1.1c0-0.4,0-0.7-0.1-1.1C49,3,45.7,0,41.7,0s-7.3,3-7.9,6.9
		c0,0.4-0.1,0.7-0.1,1.1c0,0.4,0,0.7,0.1,1.1h-5.4V18.5z M41.7,5.3c1.5,0,2.7,1.2,2.7,2.7s-1.2,2.7-2.7,2.7S39,9.4,39,8
		S40.2,5.3,41.7,5.3z"/>
	<rect x="81.6" y="19.6" class="st1" width="6" height="55.1"/>
	<polygon class="st1" points="87.6,77 81.7,77 84.6,83 	"/>
	<rect x="81.6" y="12.2" class="st1" width="6" height="5.1"/>
</g>
</svg>
