<?xml version="1.0" encoding="utf-8"?>
<!-- Generator: Adobe Illustrator 24.1.0, SVG Export Plug-In . SVG Version: 6.00 Build 0)  -->
<svg version="1.1" id="Layer_1" xmlns="http://www.w3.org/2000/svg" xmlns:xlink="http://www.w3.org/1999/xlink" x="0px" y="0px"
	 viewBox="0 0 94.6 94.6" style="enable-background:new 0 0 94.6 94.6;" xml:space="preserve">
<style type="text/css">
	.st0{fill:none;}
	.st1{fill:#262261;}
</style>
<g>
	<polygon class="st0" points="41.4,37.8 41.4,56.8 57.2,47.3 	"/>
	<path class="st1" d="M24.8,47.3c0,12.4,10.1,22.5,22.5,22.5s22.5-10.1,22.5-22.5S59.7,24.8,47.3,24.8S24.8,34.9,24.8,47.3z
		 M41.4,37.8l15.8,9.5l-15.8,9.5V37.8z"/>
	<path class="st1" d="M10.2,74.5l4.8-3.6C10,64.1,7.3,55.9,7.3,47.3c0-8.5,2.7-16.7,7.7-23.5l-4.8-3.5c-5.8,7.9-8.8,17.3-8.8,27.1
		C1.3,57.2,4.4,66.6,10.2,74.5z"/>
	<path class="st1" d="M93.3,47.3c0-9.8-3-19.1-8.8-27l-4.9,3.5c5,6.9,7.6,15,7.6,23.5c0,8.5-2.6,16.6-7.6,23.5l4.9,3.5
		C90.3,66.4,93.3,57.1,93.3,47.3z"/>
	<path class="st1" d="M19.3,26.9c-4.4,6-6.7,13-6.7,20.4c0,7.4,2.3,14.5,6.7,20.5l4.8-3.6c-3.6-5-5.6-10.8-5.6-17
		c0-6.1,1.9-11.9,5.5-16.9L19.3,26.9z"/>
	<path class="st1" d="M75.3,27l-4.9,3.5c3.6,4.9,5.5,10.7,5.5,16.8c0,6.1-1.9,11.9-5.5,16.8l4.9,3.5c4.3-6,6.6-13,6.6-20.4
		C82,39.9,79.7,32.9,75.3,27z"/>
</g>
</svg>
