<?xml version="1.0" encoding="utf-8"?>
<!-- Generator: Adobe Illustrator 24.1.0, SVG Export Plug-In . SVG Version: 6.00 Build 0)  -->
<svg version="1.1" id="Layer_1" xmlns="http://www.w3.org/2000/svg" xmlns:xlink="http://www.w3.org/1999/xlink" x="0px" y="0px"
	 viewBox="0 0 94.6 94.6" style="enable-background:new 0 0 94.6 94.6;" xml:space="preserve">
<style type="text/css">
	.st0{fill:none;}
	.st1{fill:#262261;}
</style>
<g>
	<polygon class="st0" points="89.1,75 86.8,72.7 79.3,80.2 76.4,77.2 74,79.6 79.3,84.8 	"/>
	<path class="st1" d="M88,47.3c0,4.3-0.7,8.5-2,12.4l5.8,1.7C93.2,57,94,52.2,94,47.3H88z"/>
	<path class="st1" d="M60.3,34.3l5.8-5.8l4.2-4.2l5.8-5.8l4.3-4.3c-8.5-8.5-20.1-13.7-33-13.7C21.5,0.6,0.6,21.5,0.6,47.3
		S21.5,94,47.3,94c6.8,0,13.3-1.5,19.1-4.1c-1.3-1.8-2.2-3.6-2.6-5.4C58.8,86.7,53.2,88,47.3,88C24.9,88,6.6,69.7,6.6,47.3
		S24.9,6.6,47.3,6.6v8.2c0,0,0,0,0,0c-17.9,0-32.5,14.6-32.5,32.5c0,17.9,14.6,32.5,32.5,32.5c5.9,0,11.5-1.6,16.3-4.4v-7.2
		c-4.5,3.5-10.1,5.6-16.3,5.6c-14.6,0-26.5-11.9-26.5-26.5c0-14.6,11.9-26.5,26.5-26.5c0,0,0,0,0,0v8.2c0,0,0,0,0,0
		c-10.1,0-18.4,8.2-18.4,18.4c0,10.1,8.2,18.4,18.4,18.4c10.1,0,18.4-8.2,18.4-18.4c0,0,0,0,0,0h-6c0,0,0,0,0,0
		c0,6.8-5.5,12.4-12.4,12.4c-6.8,0-12.4-5.5-12.4-12.4c0-6.8,5.5-12.4,12.4-12.4c0,0,0,0,0,0v8.2c0,0,0,0,0,0
		c-2.3,0-4.2,1.9-4.2,4.2c0,2.3,1.9,4.2,4.2,4.2s4.2-1.9,4.2-4.2c0,0,0,0,0,0c0-1.2-0.5-2.2-1.2-3l5.8-5.8L60.3,34.3z"/>
	<path class="st1" d="M79.8,47.3C79.8,47.3,79.8,47.3,79.8,47.3l-6,0c0,0,0,0,0,0c0,5.5-1.7,10.6-4.5,14.8l8.1-2.4
		C79,55.9,79.8,51.7,79.8,47.3z"/>
	<path class="st1" d="M75.7,90.5c2.3,1.7,4.6,2.9,5.8,3.5c1.2-0.6,3.5-1.8,5.8-3.5c1.9-1.4,3.4-2.7,4.4-4.1c1.2-1.5,1.8-2.9,1.8-4.2
		V68.3l-12-3.6l-12,3.6v13.9c0,1.3,0.6,2.7,1.8,4.2C72.4,87.8,73.9,89.1,75.7,90.5z M76.4,77.2l2.9,2.9l7.5-7.5l2.3,2.3l-9.8,9.8
		L74,79.6L76.4,77.2z"/>
</g>
</svg>
