<?xml version="1.0" encoding="utf-8"?>
<!-- Generator: Adobe Illustrator 24.1.0, SVG Export Plug-In . SVG Version: 6.00 Build 0)  -->
<svg version="1.1" id="Layer_1" xmlns="http://www.w3.org/2000/svg" xmlns:xlink="http://www.w3.org/1999/xlink" x="0px" y="0px"
	 viewBox="0 0 94.6 94.6" style="enable-background:new 0 0 94.6 94.6;" xml:space="preserve">
<style type="text/css">
	.st0{fill:none;}
	.st1{fill:#262261;}
</style>
<g>
	<path class="st0" d="M62.6,40.6c-1.5-2.3-3.1-4.4-5-6.3c-0.7,1.9-2,3.6-3.7,4.9c1.3,1.5,2.5,3,3.6,4.7c1.4,2.1,2.5,4.4,3.5,6.7
		c0.6-0.6,1.2-1.1,1.9-1.6c1-0.7,2.2-1.2,3.3-1.5C65.2,45.1,64,42.8,62.6,40.6z"/>
	<path class="st0" d="M69.1,53.2c-1,0-2,0.3-2.9,0.9c-2.5,1.6-3.1,4.9-1.5,7.3c1,1.6,2.7,2.4,4.4,2.4c1,0,2-0.3,2.9-0.9
		c2.5-1.6,3.1-4.9,1.5-7.3C72.5,54,70.8,53.2,69.1,53.2z"/>
	<path class="st0" d="M66.5,20.5c-3.6,0.5-7.2,1.5-10.5,2.8c0.2,0.2,0.4,0.5,0.5,0.7c1,1.5,1.6,3.2,1.7,4.9c2.8-1.1,5.6-1.9,8.6-2.4
		l0.2,3.5l8.6-6.9l-9.4-5.8L66.5,20.5z"/>
	<path class="st0" d="M35.7,72.1c-1.1,0.4-2.3,0.5-3.4,0.5c-0.9,0-1.8-0.1-2.7-0.3c0.8,3.9,2.2,7.8,4.1,11.6l-2.8,2l10.4,3.7l0.1-11
		l-2.6,1.8C37.4,77.8,36.4,75,35.7,72.1z"/>
	<path class="st0" d="M57.9,59.8c-2.4,0.7-4.8,1.1-7.3,1.3l0.3-2.6L41.2,64l8.3,7.3l0.4-4c3.5-0.2,6.9-0.8,10.2-1.8
		c-0.2-0.2-0.4-0.5-0.6-0.8C58.6,63.1,58.1,61.5,57.9,59.8z"/>
	<path class="st0" d="M35.2,65.8c2.5-1.6,3.1-4.9,1.5-7.3c-1-1.6-2.7-2.4-4.4-2.4c-1,0-2,0.3-2.9,0.9c-2.5,1.6-3.1,4.9-1.5,7.3
		c1,1.6,2.7,2.4,4.4,2.4C33.3,66.7,34.3,66.4,35.2,65.8z"/>
	<polygon class="st0" points="54.6,11.7 58.2,16.4 60.2,16.4 60.2,8 57.9,8 57.9,12.4 54.5,8 52.3,8 52.3,16.4 54.6,16.4 	"/>
	<path class="st0" d="M32.3,50.1c1.6,0,3.2,0.4,4.7,1c1.3-3.7,3.3-7.3,5.8-10.5c-1.9-0.8-3.5-2-4.7-3.7c-3.1,4-5.5,8.5-7.1,13.2
		C31.4,50.1,31.8,50.1,32.3,50.1L32.3,50.1z"/>
	<path class="st0" d="M51.1,12.1L51.1,12.1c0-2.4-1.7-4.2-4.7-4.2h-3.2v8.4h3.2C49.3,16.4,51.1,14.6,51.1,12.1z M45.5,10h0.9
		c1.4,0,2.3,0.8,2.3,2.1v0c0,1.4-0.9,2.1-2.3,2.1h-0.9V10z"/>
	<path class="st0" d="M42.1,14.6l-1.8-1.2c-0.5,0.6-1,1-1.9,1c-1.2,0-2-1-2-2.2v0c0-1.2,0.8-2.2,2-2.2c0.8,0,1.4,0.4,1.8,1l1.8-1.4
		c-0.7-1-1.8-1.7-3.6-1.7c-2.5,0-4.4,1.9-4.4,4.4v0c0,2.5,1.9,4.3,4.3,4.3C40.3,16.5,41.3,15.7,42.1,14.6z"/>
	<path class="st0" d="M47,24.9c-1,0-2,0.3-2.9,0.9c-2.5,1.6-3.1,4.9-1.5,7.3c1,1.6,2.7,2.4,4.4,2.4c1,0,2-0.3,2.9-0.9
		c2.5-1.6,3.1-4.9,1.5-7.3C50.5,25.7,48.8,24.9,47,24.9z"/>
	<path class="st1" d="M48.7,12.2L48.7,12.2c0-1.4-0.9-2.2-2.3-2.2h-0.9v4.3h0.9C47.8,14.3,48.7,13.5,48.7,12.2z"/>
	<path class="st1" d="M90.5,30.7c-0.9,5.6-2.9,11-5.9,15.9l2.4,1.9l-4.7,1.4c0,0.1-0.1,0.1-0.1,0.2l-0.1-0.1l-5.6,1.6l0.6-11
		l2.8,2.2c4.6-7.7,6.2-16.7,4.8-25.3C69.7-0.8,43-5.3,22.8,7.9c-5.2,3.4-9.5,7.7-12.9,12.5c-0.1,1.2-0.1,2.3-0.1,3.5
		c6.7-2.7,13.9-3.6,21.1-2.8l0.9-3.1l7,8.5l-10.3,3.8l0.9-3.3c-6.5-0.6-13,0.6-18.9,3.3c0.9,4.9,2.7,9.6,5.5,14
		c2.3,3.5,5.2,6.6,8.4,9.1c-1.5,1.5-2.5,3.3-3,5.3c-4.1-3-7.6-6.8-10.4-11.1C8,43,6,38.2,4.9,33.3c-0.5,0.3-1,0.7-1.5,1.1
		c-3.5,12.5-1.9,26.5,5.8,38.3C18.4,86.7,34,94.2,49.6,93.8c6.8-5.4,11.4-13,13.2-21.6c0.3-1.3,0.5-2.6,0.6-4c1.7,1,3.6,1.5,5.6,1.5
		c0.1,0,0.2,0,0.3,0c-0.2,1.2-0.3,2.5-0.6,3.7c-1.5,7.1-4.7,13.6-9.2,19c5-1.2,9.9-3.3,14.4-6.3c18.3-11.9,25.5-34.5,18.7-54.3
		C91.9,31.5,91.2,31.1,90.5,30.7z M52.3,8h2.2l3.5,4.4V8h2.3v8.4h-2l-3.6-4.6v4.6h-2.3V8z M49.9,34.6c-0.9,0.6-1.9,0.9-2.9,0.9
		c-1.7,0-3.4-0.8-4.4-2.4c-1.6-2.5-0.9-5.7,1.5-7.3c0.9-0.6,1.9-0.9,2.9-0.9c1.7,0,3.4,0.8,4.4,2.4C53.1,29.8,52.4,33,49.9,34.6z
		 M43.1,8h3.2c3,0,4.7,1.7,4.7,4.1v0c0,2.4-1.8,4.2-4.8,4.2h-3.2V8z M38.4,16.5c-2.4,0-4.3-1.8-4.3-4.3v0c0-2.4,1.9-4.4,4.4-4.4
		c1.7,0,2.8,0.7,3.6,1.7l-1.8,1.4c-0.5-0.6-1-1-1.8-1c-1.2,0-2,1-2,2.2v0c0,1.3,0.8,2.2,2,2.2c0.9,0,1.4-0.4,1.9-1l1.8,1.2
		C41.3,15.7,40.3,16.5,38.4,16.5z M38,36.9c1.2,1.7,2.9,2.9,4.7,3.7c-2.5,3.2-4.4,6.7-5.8,10.5c-1.4-0.7-3-1-4.7-1h0
		c-0.5,0-0.9,0-1.4,0.1C32.5,45.4,34.8,40.9,38,36.9z M27.8,64.3c-1.6-2.5-0.9-5.7,1.5-7.3c0.9-0.6,1.9-0.9,2.9-0.9
		c1.7,0,3.4,0.8,4.4,2.4c1.6,2.5,0.9,5.7-1.5,7.3c-0.9,0.6-1.9,0.9-2.9,0.9C30.5,66.7,28.8,65.8,27.8,64.3z M41.3,89.6l-10.4-3.7
		l2.8-2c-2-3.7-3.3-7.6-4.1-11.6c0.9,0.2,1.7,0.3,2.7,0.3c1.2,0,2.3-0.2,3.4-0.5c0.7,2.8,1.7,5.6,3,8.3l2.6-1.8L41.3,89.6z
		 M49.9,67.2l-0.4,4L41.2,64l9.6-5.4l-0.3,2.6c2.5-0.2,4.9-0.6,7.3-1.3c0.2,1.7,0.8,3.3,1.7,4.8c0.2,0.3,0.4,0.5,0.6,0.8
		C56.9,66.4,53.4,67,49.9,67.2z M62.9,49c-0.7,0.5-1.3,1-1.9,1.6c-0.9-2.3-2.1-4.5-3.5-6.7c-1.1-1.7-2.3-3.2-3.6-4.7
		c1.7-1.3,2.9-3,3.7-4.9c1.9,1.9,3.5,4,5,6.3c1.4,2.2,2.7,4.5,3.7,6.9C65.1,47.8,63.9,48.3,62.9,49z M72,62.9
		c-0.9,0.6-1.9,0.9-2.9,0.9c-1.7,0-3.4-0.8-4.4-2.4c-1.6-2.5-0.9-5.7,1.5-7.3c0.9-0.6,1.9-0.9,2.9-0.9c1.7,0,3.4,0.8,4.4,2.4
		C75.1,58,74.4,61.3,72,62.9z M67.1,30.1l-0.2-3.5c-3,0.4-5.9,1.2-8.6,2.4c-0.2-1.7-0.8-3.3-1.7-4.9c-0.2-0.2-0.3-0.5-0.5-0.7
		c3.4-1.4,6.9-2.3,10.5-2.8l-0.2-3.1l9.4,5.8L67.1,30.1z"/>
</g>
</svg>
