<?xml version="1.0" encoding="utf-8"?>
<!-- Generator: Adobe Illustrator 24.1.0, SVG Export Plug-In . SVG Version: 6.00 Build 0)  -->
<svg version="1.1" id="Layer_1" xmlns="http://www.w3.org/2000/svg" xmlns:xlink="http://www.w3.org/1999/xlink" x="0px" y="0px"
	 viewBox="0 0 94.6 94.6" style="enable-background:new 0 0 94.6 94.6;" xml:space="preserve">
<style type="text/css">
	.st0{fill:none;}
	.st1{fill:#262261;}
</style>
<g>
	<path class="st0" d="M46.2,59.8c2.6,0,4.5-2,4.5-4.4v0c0-2.4-1.9-4.3-4.5-4.3c-2.6,0-4.5,2-4.5,4.4v0
		C41.7,57.8,43.6,59.8,46.2,59.8z M44.1,55.4c0-1.2,0.9-2.2,2.1-2.2c1.3,0,2.1,1,2.1,2.3v0c0,1.2-0.9,2.2-2.1,2.2
		C45,57.7,44.1,56.6,44.1,55.4L44.1,55.4z"/>
	<path class="st0" d="M29.9,59.8c1.8,0,2.9-0.8,3.7-1.9l-1.8-1.2c-0.5,0.6-1,1-1.9,1c-1.2,0-2-1-2-2.2v0c0-1.2,0.8-2.2,2-2.2
		c0.8,0,1.4,0.4,1.8,1l1.8-1.4c-0.7-1-1.8-1.7-3.6-1.7c-2.5,0-4.4,1.9-4.4,4.4v0C25.6,57.9,27.5,59.8,29.9,59.8z"/>
	<path class="st0" d="M55.8,59.7c2.4,0,3.9-1.2,3.9-3.9v-4.7h-2.4v4.7c0,1.2-0.6,1.7-1.6,1.7c-0.9,0-1.5-0.6-1.5-1.8v-4.7h-2.4v4.7
		C51.9,58.5,53.4,59.7,55.8,59.7z"/>
	<polygon class="st0" points="41,57.5 36.9,57.5 36.9,51.2 34.6,51.2 34.6,59.6 41,59.6 	"/>
	<path class="st0" d="M69,55.4L69,55.4c0-2.4-1.7-4.2-4.7-4.2h-3.2v8.4h3.2C67.3,59.6,69,57.8,69,55.4z M63.4,53.2h0.9
		c1.4,0,2.3,0.8,2.3,2.1v0c0,1.4-0.9,2.1-2.3,2.1h-0.9V53.2z"/>
	<path class="st1" d="M46.3,57.7c1.3,0,2.1-1,2.1-2.2v0c0-1.2-0.9-2.3-2.1-2.3c-1.3,0-2.1,1-2.1,2.2v0C44.1,56.6,45,57.7,46.3,57.7z
		"/>
	<path class="st1" d="M66.7,55.4L66.7,55.4c0-1.4-0.9-2.2-2.3-2.2h-0.9v4.3h0.9C65.8,57.5,66.7,56.8,66.7,55.4z"/>
	<path class="st1" d="M18.9,77.9h56.7c10,0,18.2-8.1,18.2-18.2c0-9.9-7.9-17.9-17.7-18.1c0-0.1,0-0.1,0-0.2
		c0-8.3-6.7-14.9-14.9-14.9c-3.5,0-6.6,1.2-9.2,3.2c-3-7.5-10.3-12.8-18.9-12.8c-11.3,0-20.4,9.1-20.4,20.4c0,1.8,0.3,3.6,0.7,5.3
		C6.1,44.7,0.8,51.6,0.8,59.7C0.8,69.7,8.9,77.9,18.9,77.9z M61.1,51.2h3.2c3,0,4.7,1.7,4.7,4.1v0c0,2.4-1.8,4.2-4.8,4.2h-3.2V51.2z
		 M51.9,51.2h2.4v4.7c0,1.2,0.6,1.8,1.5,1.8c0.9,0,1.6-0.6,1.6-1.7v-4.7h2.4v4.7c0,2.7-1.5,3.9-3.9,3.9c-2.4,0-3.9-1.2-3.9-3.8V51.2
		z M41.7,55.4c0-2.4,1.9-4.4,4.5-4.4c2.6,0,4.5,1.9,4.5,4.3v0c0,2.4-1.9,4.4-4.5,4.4C43.6,59.8,41.7,57.8,41.7,55.4L41.7,55.4z
		 M34.6,51.2h2.3v6.4H41v2h-6.4V51.2z M25.6,55.4c0-2.4,1.9-4.4,4.4-4.4c1.7,0,2.8,0.7,3.6,1.7l-1.8,1.4c-0.5-0.6-1-1-1.8-1
		c-1.2,0-2,1-2,2.2v0c0,1.3,0.8,2.2,2,2.2c0.9,0,1.4-0.4,1.9-1l1.8,1.2c-0.8,1.1-1.9,1.9-3.7,1.9C27.5,59.8,25.6,57.9,25.6,55.4
		L25.6,55.4z"/>
</g>
</svg>
