<?xml version="1.0" encoding="utf-8"?>
<!-- Generator: Adobe Illustrator 24.1.0, SVG Export Plug-In . SVG Version: 6.00 Build 0)  -->
<svg version="1.1" id="Layer_1" xmlns="http://www.w3.org/2000/svg" xmlns:xlink="http://www.w3.org/1999/xlink" x="0px" y="0px"
	 viewBox="0 0 94.6 94.6" style="enable-background:new 0 0 94.6 94.6;" xml:space="preserve">
<style type="text/css">
	.st0{fill:none;}
	.st1{fill:#262261;}
</style>
<g>
	<path class="st0" d="M9,84.6c-1.5,0-2.8,1.2-2.8,2.8c0,1.5,1.2,2.8,2.8,2.8c1.5,0,2.8-1.2,2.8-2.8C11.7,85.9,10.5,84.6,9,84.6z"/>
	<path class="st0" d="M17.8,84.6c-1.5,0-2.8,1.2-2.8,2.8c0,1.5,1.2,2.8,2.8,2.8s2.8-1.2,2.8-2.8C20.6,85.9,19.3,84.6,17.8,84.6z"/>
	<rect x="65.4" y="84.4" class="st0" width="23.2" height="6"/>
	<polygon class="st0" points="42.7,68.8 44.6,68.8 43.6,66.5 	"/>
	<path class="st0" d="M88.6,6.4H6v73.5h82.6V6.4z M30.1,72.2h-2.3V69h-3v3.2h-2.3v-8.4h2.3v3.1h3v-3.1h2.3V72.2z M38.4,72.2h-6.8
		v-8.4h6.8v2h-4.4V67h4v1.8h-4v1.3h4.5V72.2z M45.8,72.2l-0.6-1.5H42l-0.6,1.5H39l3.6-8.5h2.2l3.6,8.5H45.8z M55.6,72.2h-6.4v-8.4
		h2.3v6.4h4.1V72.2z M63.5,65.8h-2.5v6.4h-2.3v-6.4h-2.5v-2h7.4V65.8z M72.1,72.2h-2.3V69h-3v3.2h-2.3v-8.4h2.3v3.1h3v-3.1h2.3V72.2
		z M78.6,39.9H66.8l-3.4-9.3l-8.5,18.2l-7-10.3L39,55.5l-8-24.5l-5.2,8.7H16v-6h6.4l10.2-17.2L40.3,40l6.8-13.3l6.8,9.9L64,15.1
		l7,18.9h7.6V39.9z"/>
	<path class="st1" d="M0,79.9v14.7h94.6v-8.6v-6.2V0.4H0V79.9z M9,90.2c-1.5,0-2.8-1.2-2.8-2.8c0-1.5,1.2-2.8,2.8-2.8
		c1.5,0,2.8,1.2,2.8,2.8C11.7,88.9,10.5,90.2,9,90.2z M17.8,90.2c-1.5,0-2.8-1.2-2.8-2.8c0-1.5,1.2-2.8,2.8-2.8s2.8,1.2,2.8,2.8
		C20.6,88.9,19.3,90.2,17.8,90.2z M88.6,90.4H65.4v-6h23.2V90.4z M6,6.4h82.6v73.5H6V6.4z"/>
	<polygon class="st1" points="64,15.1 53.9,36.7 47.1,26.8 40.3,40 32.7,16.5 22.5,33.8 16,33.8 16,39.8 25.9,39.8 31.1,31 39,55.5 
		47.8,38.5 54.9,48.8 63.4,30.6 66.8,39.9 78.6,39.9 78.6,33.9 71,33.9 	"/>
	<polygon class="st1" points="27.8,66.9 24.8,66.9 24.8,63.8 22.5,63.8 22.5,72.2 24.8,72.2 24.8,69 27.8,69 27.8,72.2 30.1,72.2 
		30.1,63.8 27.8,63.8 	"/>
	<polygon class="st1" points="33.9,68.9 37.9,68.9 37.9,67 33.9,67 33.9,65.7 38.4,65.7 38.4,63.8 31.6,63.8 31.6,72.2 38.4,72.2 
		38.4,70.2 33.9,70.2 	"/>
	<path class="st1" d="M42.5,63.7L39,72.2h2.4l0.6-1.5h3.3l0.6,1.5h2.5l-3.6-8.5H42.5z M42.7,68.8l0.9-2.4l0.9,2.4H42.7z"/>
	<polygon class="st1" points="51.5,63.8 49.2,63.8 49.2,72.2 55.6,72.2 55.6,70.1 51.5,70.1 	"/>
	<polygon class="st1" points="56.1,65.8 58.6,65.8 58.6,72.2 60.9,72.2 60.9,65.8 63.5,65.8 63.5,63.8 56.1,63.8 	"/>
	<polygon class="st1" points="69.8,66.9 66.8,66.9 66.8,63.8 64.5,63.8 64.5,72.2 66.8,72.2 66.8,69 69.8,69 69.8,72.2 72.1,72.2 
		72.1,63.8 69.8,63.8 	"/>
</g>
</svg>
