<?xml version="1.0" encoding="utf-8"?>
<!-- Generator: Adobe Illustrator 24.1.0, SVG Export Plug-In . SVG Version: 6.00 Build 0)  -->
<svg version="1.1" id="Layer_1" xmlns="http://www.w3.org/2000/svg" xmlns:xlink="http://www.w3.org/1999/xlink" x="0px" y="0px"
	 viewBox="0 0 94.6 94.6" style="enable-background:new 0 0 94.6 94.6;" xml:space="preserve">
<style type="text/css">
	.st0{fill:none;}
	.st1{fill:#262261;}
</style>
<g>
	<polygon class="st0" points="45.6,66.8 42.1,62.3 39.9,62.3 39.9,70.7 42.2,70.7 42.2,66.1 45.8,70.7 47.9,70.7 47.9,62.3 
		45.6,62.3 	"/>
	<rect x="54.6" y="36.4" class="st0" width="6.5" height="6.4"/>
	<polygon class="st0" points="51.7,67.4 55.7,67.4 55.7,65.6 51.7,65.6 51.7,64.3 56.1,64.3 56.1,62.3 49.3,62.3 49.3,70.7 
		56.2,70.7 56.2,68.8 51.7,68.8 	"/>
	<polygon class="st0" points="56.9,64.4 59.4,64.4 59.4,70.7 61.7,70.7 61.7,64.4 64.3,64.4 64.3,62.3 56.9,62.3 	"/>
	<rect x="36" y="36.4" class="st0" width="6.5" height="6.4"/>
	<rect x="45.3" y="36.4" class="st0" width="6.5" height="6.4"/>
	<polygon class="st0" points="33.5,70.8 35.7,70.8 39.1,62.3 36.6,62.3 34.6,67.7 32.7,62.3 30.1,62.3 	"/>
	<polygon class="st0" points="32,42.7 21.3,39.1 32,35.5 32,29.8 15.7,36.3 15.7,42 32,48.5 	"/>
	<polygon class="st0" points="81.3,36.3 65,29.8 65,35.6 75.8,39.2 65,42.7 65,48.5 81.3,42 	"/>
	<path class="st1" d="M0,94.3h94.3V0H0V94.3z M47.9,70.7h-2l-3.6-4.6v4.6h-2.3v-8.4h2.2l3.5,4.4v-4.4h2.3V70.7z M56.2,70.7h-6.8
		v-8.4h6.8v2h-4.4v1.3h4v1.8h-4v1.3h4.5V70.7z M65,42.7l10.7-3.6L65,35.6v-5.8l16.3,6.5V42L65,48.5V42.7z M64.3,64.4h-2.5v6.4h-2.3
		v-6.4h-2.5v-2h7.4V64.4z M54.6,36.4H61v6.4h-6.5V36.4z M45.3,36.4h6.5v6.4h-6.5V36.4z M36,36.4h6.5v6.4H36V36.4z M34.6,67.7
		l1.9-5.3h2.5l-3.4,8.5h-2.2l-3.4-8.5h2.6L34.6,67.7z M15.7,36.3L32,29.8v5.8l-10.7,3.6L32,42.7v5.8L15.7,42V36.3z"/>
</g>
</svg>
