<?xml version="1.0" encoding="utf-8"?>
<!-- Generator: Adobe Illustrator 24.1.0, SVG Export Plug-In . SVG Version: 6.00 Build 0)  -->
<svg version="1.1" id="Layer_1" xmlns="http://www.w3.org/2000/svg" xmlns:xlink="http://www.w3.org/1999/xlink" x="0px" y="0px"
	 viewBox="0 0 94.6 94.6" style="enable-background:new 0 0 94.6 94.6;" xml:space="preserve">
<style type="text/css">
	.st0{fill:none;}
	.st1{fill:#262261;}
</style>
<g>
	<path class="st0" d="M69.8,17.3L69.8,17.3c0-1.2-0.6-1.7-1.7-2.1c0.7-0.3,1.3-0.9,1.3-1.9v0c0-0.6-0.2-1-0.5-1.4
		c-0.5-0.5-1.2-0.7-2.3-0.7h-4.3v8.4h4.3C68.7,19.6,69.8,18.7,69.8,17.3z M64.6,13.1h1.5c0.7,0,1.1,0.3,1.1,0.7v0
		c0,0.5-0.4,0.7-1.1,0.7h-1.5V13.1z M64.6,17.7v-1.5h1.8c0.8,0,1.1,0.3,1.1,0.8v0c0,0.5-0.4,0.8-1.1,0.8H64.6z"/>
	<path class="st0" d="M61.1,15.4L61.1,15.4c0-2.4-1.7-4.2-4.7-4.2h-3.2v8.4h3.2C59.3,19.6,61.1,17.8,61.1,15.4z M55.5,13.2h0.9
		c1.4,0,2.3,0.8,2.3,2.1v0c0,1.4-0.9,2.1-2.3,2.1h-0.9V13.2z"/>
	<polygon class="st0" points="81.7,72.2 81.7,78.6 88.1,78.6 	"/>
	<path class="st0" d="M48.4,19.7c1.8,0,2.9-0.8,3.7-1.9l-1.8-1.2c-0.5,0.6-1,1-1.9,1c-1.2,0-2-1-2-2.2v0c0-1.2,0.8-2.2,2-2.2
		c0.8,0,1.4,0.4,1.8,1l1.8-1.4c-0.7-1-1.8-1.7-3.6-1.7c-2.5,0-4.4,1.9-4.4,4.4v0C44.1,17.9,46,19.7,48.4,19.7z"/>
	<path class="st0" d="M33.2,15.4L33.2,15.4c0-2.4-1.7-4.2-4.7-4.2h-3.2v8.4h3.2C31.4,19.6,33.2,17.8,33.2,15.4z M27.5,13.2h0.9
		c1.4,0,2.3,0.8,2.3,2.1v0c0,1.4-0.9,2.1-2.3,2.1h-0.9V13.2z"/>
	<path class="st0" d="M38.6,19.7c2.6,0,4.5-2,4.5-4.4v0c0-2.4-1.9-4.3-4.5-4.3c-2.6,0-4.5,2-4.5,4.4v0C34.1,17.8,36,19.7,38.6,19.7z
		 M36.5,15.4c0-1.2,0.9-2.2,2.1-2.2c1.3,0,2.1,1,2.1,2.3v0c0,1.2-0.9,2.2-2.1,2.2C37.4,17.6,36.5,16.6,36.5,15.4L36.5,15.4z"/>
	<path class="st1" d="M47.3,93.9c4.3,0,8.5-0.2,12.5-0.5c-2.4-3.5-3.7-7.7-3.7-12.2c0-0.8,0.1-1.7,0.1-2.5c-2.9,0.2-5.9,0.3-8.9,0.3
		c-13.2,0-25.6-1.7-35-4.7C6.9,72.5,3,70.5,0.3,68.4v10.4C0.3,87.2,21.4,93.9,47.3,93.9z"/>
	<path class="st1" d="M47.3,72.9c3.6,0,7.1-0.1,10.5-0.4c3.4-7.8,11.1-13.3,20.2-13.3c4.8,0,9.3,1.6,12.9,4.2
		c2.2-1.7,3.3-3.6,3.3-5.6V47.5c-2.7,2.1-6.5,4.1-11.9,5.8c-9.4,3-21.9,4.7-35,4.7s-25.6-1.7-35-4.7C6.9,51.6,3,49.6,0.3,47.5v10.3
		C0.3,66.2,21.4,72.9,47.3,72.9z"/>
	<path class="st1" d="M47.3,52c25.9,0,47-6.8,47-15.1V26.3v-0.7c-2.7,2.1-6.5,4.1-11.9,5.8c-9.4,3-21.9,4.7-35,4.7s-25.6-1.7-35-4.7
		C6.9,29.7,3,27.7,0.3,25.7v0.7v10.6C0.3,45.3,21.4,52,47.3,52z"/>
	<path class="st1" d="M93.9,81.1c0-8.8-7.2-15.9-15.9-15.9s-15.9,7.2-15.9,15.9c0,5.5,2.9,10.4,7.2,13.3V72.2h10.9v6.4v1.6h1.6H88
		l0,0v13.3C91.6,90.6,93.9,86.1,93.9,81.1z M81.7,78.6v-6.4l6.4,6.4H81.7z"/>
	<path class="st1" d="M67.5,16.9L67.5,16.9c0-0.5-0.4-0.8-1.1-0.8h-1.8v1.5h1.8C67.1,17.7,67.5,17.4,67.5,16.9z"/>
	<path class="st1" d="M67.2,13.8L67.2,13.8c0-0.5-0.4-0.7-1.1-0.7h-1.5v1.5h1.5C66.8,14.5,67.2,14.3,67.2,13.8z"/>
	<path class="st1" d="M30.8,15.4L30.8,15.4c0-1.4-0.9-2.2-2.3-2.2h-0.9v4.3h0.9C29.9,17.5,30.8,16.8,30.8,15.4z"/>
	<path class="st1" d="M47.3,30.2c25.9,0,47-6.8,47-15.1S73.2,0,47.3,0s-47,6.8-47,15.1S21.4,30.2,47.3,30.2z M62.3,11.2h4.3
		c1.1,0,1.8,0.3,2.3,0.7c0.3,0.3,0.5,0.8,0.5,1.4v0c0,1-0.6,1.5-1.3,1.9c1,0.3,1.7,0.9,1.7,2.1v0c0,1.4-1.2,2.3-3.2,2.3h-4.3V11.2z
		 M53.1,11.2h3.2c3,0,4.7,1.7,4.7,4.1v0c0,2.4-1.8,4.2-4.8,4.2h-3.2V11.2z M44.1,15.4c0-2.4,1.9-4.4,4.4-4.4c1.7,0,2.8,0.7,3.6,1.7
		l-1.8,1.4c-0.5-0.6-1-1-1.8-1c-1.2,0-2,1-2,2.2v0c0,1.3,0.8,2.2,2,2.2c0.9,0,1.4-0.4,1.9-1l1.8,1.2c-0.8,1.1-1.9,1.9-3.7,1.9
		C46,19.7,44.1,17.9,44.1,15.4L44.1,15.4z M34.1,15.4c0-2.4,1.9-4.4,4.5-4.4c2.6,0,4.5,1.9,4.5,4.3v0c0,2.4-1.9,4.4-4.5,4.4
		C36,19.7,34.1,17.8,34.1,15.4L34.1,15.4z M25.2,11.2h3.2c3,0,4.7,1.7,4.7,4.1v0c0,2.4-1.8,4.2-4.8,4.2h-3.2V11.2z"/>
	<path class="st1" d="M38.6,17.6c1.3,0,2.1-1,2.1-2.2v0c0-1.2-0.9-2.3-2.1-2.3c-1.3,0-2.1,1-2.1,2.2v0
		C36.5,16.6,37.4,17.6,38.6,17.6z"/>
	<path class="st1" d="M58.7,15.4L58.7,15.4c0-1.4-0.9-2.2-2.3-2.2h-0.9v4.3h0.9C57.8,17.5,58.7,16.8,58.7,15.4z"/>
	<polygon class="st1" points="84.5,84.5 84.5,83.7 72.7,83.7 72.7,85.3 84.5,85.3 	"/>
	<polygon class="st1" points="84.5,89.1 84.5,88.3 72.7,88.3 72.7,90 84.5,90 	"/>
	<polygon class="st1" points="72.7,94.6 84.5,94.6 84.5,93.8 84.5,93 72.7,93 	"/>
</g>
</svg>
