<?xml version="1.0" encoding="utf-8"?>
<!-- Generator: Adobe Illustrator 24.1.0, SVG Export Plug-In . SVG Version: 6.00 Build 0)  -->
<svg version="1.1" id="Layer_1" xmlns="http://www.w3.org/2000/svg" xmlns:xlink="http://www.w3.org/1999/xlink" x="0px" y="0px"
	 viewBox="0 0 94.6 94.6" style="enable-background:new 0 0 94.6 94.6;" xml:space="preserve">
<style type="text/css">
	.st0{fill:none;}
	.st1{fill:#262261;}
</style>
<g>
	<rect x="25" y="18.8" class="st0" width="44.6" height="6.4"/>
	<path class="st0" d="M31,12.2c1.5,0,2.8-1.2,2.8-2.8c0-1.5-1.2-2.8-2.8-2.8c-1.5,0-2.8,1.2-2.8,2.8C28.2,10.9,29.5,12.2,31,12.2z"
		/>
	<path class="st0" d="M28.2,34.7c0,1.5,1.2,2.8,2.8,2.8c1.5,0,2.8-1.2,2.8-2.8s-1.2-2.8-2.8-2.8C29.5,31.9,28.2,33.1,28.2,34.7z"/>
	<rect x="51.8" y="6.4" class="st0" width="23.2" height="6"/>
	<polygon class="st0" points="66.8,74.3 70.1,83.1 85.1,83.1 88.3,74.3 82.2,77.3 77.6,70.5 73,77.3 	"/>
	<rect x="51.8" y="31.7" class="st0" width="23.2" height="6"/>
	<path class="st0" d="M22.2,62.7c1.5,0,2.8-1.2,2.8-2.8c0-1.5-1.2-2.8-2.8-2.8c-1.5,0-2.8,1.2-2.8,2.8
		C19.4,61.5,20.6,62.7,22.2,62.7z"/>
	<rect x="25" y="44.1" class="st0" width="44.6" height="6.4"/>
	<path class="st0" d="M22.2,88c1.5,0,2.8-1.2,2.8-2.8c0-1.5-1.2-2.8-2.8-2.8c-1.5,0-2.8,1.2-2.8,2.8C19.4,86.7,20.6,88,22.2,88z"/>
	<path class="st0" d="M22.2,37.5c1.5,0,2.8-1.2,2.8-2.8s-1.2-2.8-2.8-2.8c-1.5,0-2.8,1.2-2.8,2.8S20.6,37.5,22.2,37.5z"/>
	<path class="st0" d="M22.2,12.2c1.5,0,2.8-1.2,2.8-2.8c0-1.5-1.2-2.8-2.8-2.8c-1.5,0-2.8,1.2-2.8,2.8
		C19.4,10.9,20.6,12.2,22.2,12.2z"/>
	<path class="st0" d="M31,88c1.5,0,2.8-1.2,2.8-2.8c0-1.5-1.2-2.8-2.8-2.8c-1.5,0-2.8,1.2-2.8,2.8C28.2,86.7,29.5,88,31,88z"/>
	<path class="st0" d="M31,57.2c-1.5,0-2.8,1.2-2.8,2.8c0,1.5,1.2,2.8,2.8,2.8c1.5,0,2.8-1.2,2.8-2.8C33.8,58.4,32.5,57.2,31,57.2z"
		/>
	<path class="st1" d="M13.6,18.8H19v6.4h-5.4v18.8H19v6.4h-5.4v18.8H19v6.4h-5.4v18.8h49.9c-2.1-1.8-3.9-4-5.2-6.4h-6.4v-6H56
		c-0.3-1.4-0.4-2.9-0.4-4.4c0-0.7,0-1.3,0.1-2H25v-6.4h32.3c1-2.4,2.4-4.5,4.1-6.4h-9.6v-6h18.9c2.2-0.7,4.4-1.1,6.8-1.1
		c1.2,0,2.3,0.1,3.4,0.3v-5.6h-5.4v-6.4H81V25.3h-5.4v-6.4H81V0H13.6V18.8z M31,82.4c1.5,0,2.8,1.2,2.8,2.8c0,1.5-1.2,2.8-2.8,2.8
		c-1.5,0-2.8-1.2-2.8-2.8C28.2,83.7,29.5,82.4,31,82.4z M31,62.7c-1.5,0-2.8-1.2-2.8-2.8c0-1.5,1.2-2.8,2.8-2.8
		c1.5,0,2.8,1.2,2.8,2.8C33.8,61.5,32.5,62.7,31,62.7z M75,37.7H51.8v-6H75V37.7z M51.8,6.4H75v6H51.8V6.4z M31,6.6
		c1.5,0,2.8,1.2,2.8,2.8c0,1.5-1.2,2.8-2.8,2.8c-1.5,0-2.8-1.2-2.8-2.8C28.2,7.9,29.5,6.6,31,6.6z M25,18.8h44.6v6.4H25V18.8z
		 M33.8,34.7c0,1.5-1.2,2.8-2.8,2.8c-1.5,0-2.8-1.2-2.8-2.8s1.2-2.8,2.8-2.8C32.5,31.9,33.8,33.1,33.8,34.7z M25,44.1h44.6v6.4H25
		V44.1z M22.2,6.6c1.5,0,2.8,1.2,2.8,2.8c0,1.5-1.2,2.8-2.8,2.8c-1.5,0-2.8-1.2-2.8-2.8C19.4,7.9,20.6,6.6,22.2,6.6z M22.2,31.9
		c1.5,0,2.8,1.2,2.8,2.8s-1.2,2.8-2.8,2.8c-1.5,0-2.8-1.2-2.8-2.8S20.6,31.9,22.2,31.9z M22.2,57.2c1.5,0,2.8,1.2,2.8,2.8
		c0,1.5-1.2,2.8-2.8,2.8c-1.5,0-2.8-1.2-2.8-2.8C19.4,58.4,20.6,57.2,22.2,57.2z M22.2,82.4c1.5,0,2.8,1.2,2.8,2.8
		c0,1.5-1.2,2.8-2.8,2.8c-1.5,0-2.8-1.2-2.8-2.8C19.4,83.7,20.6,82.4,22.2,82.4z"/>
	<path class="st1" d="M61.6,77.8c0,8.8,7.2,15.9,15.9,15.9s15.9-7.2,15.9-15.9s-7.2-15.9-15.9-15.9S61.6,69,61.6,77.8z M82.2,77.3
		l6-2.9l-3.2,8.8h-15l-3.3-8.8l6.1,3l4.7-6.8L82.2,77.3z"/>
</g>
</svg>
