<?xml version="1.0" encoding="utf-8"?>
<!-- Generator: Adobe Illustrator 24.1.0, SVG Export Plug-In . SVG Version: 6.00 Build 0)  -->
<svg version="1.1" id="Layer_1" xmlns="http://www.w3.org/2000/svg" xmlns:xlink="http://www.w3.org/1999/xlink" x="0px" y="0px"
	 viewBox="0 0 94.6 94.6" style="enable-background:new 0 0 94.6 94.6;" xml:space="preserve">
<style type="text/css">
	.st0{fill:none;}
	.st1{fill:#262261;}
</style>
<g>
	<circle class="st0" cx="77.1" cy="3.7" r="0.8"/>
	<rect x="79.3" y="3" class="st0" width="7.1" height="1.5"/>
	<polygon class="st0" points="83.9,38.4 91.2,38.4 91.2,7.5 71.4,7.5 71.4,36.2 83.9,36.2 	"/>
	<circle class="st0" cx="56" cy="22.9" r="1.5"/>
	<polygon class="st0" points="11.1,36.2 53.1,36.2 53.1,6 6.2,6 6.2,39.7 11.1,39.7 	"/>
	<rect x="17.7" y="42.8" class="st0" width="59.7" height="32.7"/>
	<path class="st1" d="M11.1,82.1l-5.2,5.5h83l-5-5.5V47.3h10.3V0H68.4v36.2h-9.3V0H0.2v45.7h10.9V82.1z M79.3,3h7.1v1.5h-7.1V3z
		 M77.1,2.9c0.4,0,0.8,0.3,0.8,0.8c0,0.4-0.3,0.8-0.8,0.8s-0.8-0.3-0.8-0.8C76.3,3.3,76.7,2.9,77.1,2.9z M71.4,7.5h19.8v30.8h-7.3
		v-2.1H71.4V7.5z M77.3,42.8v32.7H17.7V42.8H77.3z M56,21.4c0.8,0,1.5,0.7,1.5,1.5s-0.7,1.5-1.5,1.5s-1.5-0.7-1.5-1.5
		S55.1,21.4,56,21.4z M6.2,39.7V6h46.9v30.2h-42v3.5H6.2z"/>
	<polygon class="st1" points="90.9,89.8 90.9,89.8 3.8,89.8 3.8,89.8 3.8,94.5 41,94.5 41,93 53.6,93 53.6,94.5 90.9,94.5 	"/>
</g>
</svg>
