<?xml version="1.0" encoding="utf-8"?>
<!-- Generator: Adobe Illustrator 24.1.0, SVG Export Plug-In . SVG Version: 6.00 Build 0)  -->
<svg version="1.1" id="Layer_1" xmlns="http://www.w3.org/2000/svg" xmlns:xlink="http://www.w3.org/1999/xlink" x="0px" y="0px"
	 viewBox="0 0 94.6 94.6" style="enable-background:new 0 0 94.6 94.6;" xml:space="preserve">
<style type="text/css">
	.st0{fill:none;}
	.st1{fill:#262261;}
</style>
<g>
	<path class="st0" d="M68.4,86.5c1,0.3,3,0.4,4,0.4v-1.8l0,0h1.8l0-1.8H76v-1.8l2.6,0.8l1.7-1.7c1.8,0.3,3.7-0.3,5.1-1.7
		c2.4-2.4,2.4-6.2,0-8.6c-2.4-2.4-6.2-2.4-8.6,0c-1.5,1.5-2,3.6-1.6,5.6l-7.4,7.4L68.4,86.5z M82.2,71.7c0.5-0.5,1.4-0.5,1.9,0
		c0.5,0.5,0.5,1.4,0,1.9c-0.5,0.5-1.4,0.5-1.9,0C81.7,73.1,81.7,72.2,82.2,71.7z"/>
	<rect x="64.8" y="27.9" class="st0" width="6" height="22"/>
	<circle class="st0" cx="39.6" cy="38.9" r="2.3"/>
	<path class="st0" d="M39.6,51.7c7.1,0,12.8-5.8,12.8-12.8s-5.8-12.8-12.8-12.8s-12.8,5.8-12.8,12.8S32.5,51.7,39.6,51.7z
		 M39.6,32.1c3.8,0,6.8,3.1,6.8,6.8s-3.1,6.8-6.8,6.8s-6.8-3.1-6.8-6.8S35.8,32.1,39.6,32.1z"/>
	<path class="st1" d="M39.6,45.7c3.8,0,6.8-3.1,6.8-6.8s-3.1-6.8-6.8-6.8s-6.8,3.1-6.8,6.8S35.8,45.7,39.6,45.7z M38,37.3
		c0.9-0.9,2.4-0.9,3.3,0c0.9,0.9,0.9,2.4,0,3.3c-0.9,0.9-2.4,0.9-3.3,0C37.1,39.6,37.1,38.2,38,37.3z"/>
	<path class="st1" d="M16,57.4v4.4h46.5c3.9-3.7,9.2-6,15.1-6c0.3,0,0.7,0,1,0V15.9H16v4.4h5.1v6H16v25.1h5.1v6H16z M64.8,27.9h6v22
		h-6V27.9z M39.6,26.1c7.1,0,12.8,5.8,12.8,12.8s-5.8,12.8-12.8,12.8S26.8,46,26.8,38.9S32.5,26.1,39.6,26.1z"/>
	<path class="st1" d="M77.5,93.7c8.8,0,15.9-7.2,15.9-15.9s-7.2-15.9-15.9-15.9S61.6,69,61.6,77.8S68.8,93.7,77.5,93.7z M76.9,70.4
		c2.4-2.4,6.2-2.4,8.6,0c2.4,2.4,2.4,6.2,0,8.6c-1.4,1.4-3.3,2-5.1,1.7l-1.7,1.7L76,81.6v1.8h-1.8l0,1.8h-1.8l0,0v1.8
		c-1,0.1-3-0.1-4-0.4l-0.5-3.2l7.4-7.4C74.8,74,75.3,71.9,76.9,70.4z"/>
	<circle class="st1" cx="83.2" cy="72.6" r="1.4"/>
	<path class="st1" d="M9.8,83.6h16.4v-5.8h29.4c0,0,0,0,0,0c0-3.6,0.9-7,2.4-9.9H10V57.4H5.2v-6H10V26.4H5.2v-6H10V9.9h74.5V57
		c3.7,1.3,7,3.5,9.5,6.4V0H0.5v77.8h9.2V83.6z"/>
</g>
</svg>
