<?xml version="1.0" encoding="utf-8"?>
<!-- Generator: Adobe Illustrator 24.1.0, SVG Export Plug-In . SVG Version: 6.00 Build 0)  -->
<svg version="1.1" id="Layer_1" xmlns="http://www.w3.org/2000/svg" xmlns:xlink="http://www.w3.org/1999/xlink" x="0px" y="0px"
	 viewBox="0 0 94.6 94.6" style="enable-background:new 0 0 94.6 94.6;" xml:space="preserve">
<style type="text/css">
	.st0{fill:none;}
	.st1{fill:#262261;}
</style>
<g>
	<path class="st0" d="M41.1,58.6l3.6-3.7c-2.6-2.8-4.1-5.4-4.1-8.5c0-2.8,1.1-5.7,3.7-8.3c1.5-1.4,3.4-2.8,5.8-3.9l-1.9-4.3
		c-3.5,1.1-6.6,3-9,5.3c-3,3-4.8,6.9-4.8,11.3C34.5,51.5,37,55.5,41.1,58.6z"/>
	<path class="st0" d="M72.2,50.3c-1.5,1.4-3.4,2.8-5.8,3.9l1.9,4.3c3.5-1.1,6.6-3,9-5.3c3-3,4.8-6.9,4.8-11.3
		c0-4.9-2.4-8.9-6.6-12.1l-3.6,3.7c2.6,2.8,4.1,5.4,4.1,8.5C75.9,44.9,74.8,47.8,72.2,50.3z"/>
	<path class="st0" d="M22.1,63.6c1-1,1.7-2.3,2.2-4.3c1-3.8,3.9-14.5,5-18.5h4l1.3-5h-4.1l0.1-0.3c0.3-1.1,1-1.7,2.3-1.7
		c0.6,0,1.5,0.1,2.1,0.4l1.2-4.5c-1.2-0.4-2.5-0.6-4.1-0.6c-2.4,0-4.2,0.6-5.6,1.9c-1,1-1.7,2.3-2.2,4.3l-0.1,0.4h-2.1l-1.4,5.1H23
		l0,0h0c-1,3.8-3.8,14.7-4.8,18.4c-0.3,1.1-1,1.7-2.3,1.7c-0.6,0-1.5-0.1-2.1-0.4l-1.2,4.5c1.2,0.4,2.5,0.6,4.1,0.6
		C19,65.5,20.8,64.9,22.1,63.6z"/>
	<polygon class="st0" points="46.2,53.8 53.4,53.8 57.3,49.2 58.9,53.8 65.5,53.8 61.7,44.9 70.1,35.7 63,35.7 59.3,40.1 57.7,35.7 
		51.1,35.7 54.9,44.4 	"/>
	<path class="st1" d="M0,94.3h94.3V0H0V94.3z M75.5,29.8c4.2,3.2,6.6,7.1,6.6,12.1c0,4.5-1.8,8.3-4.8,11.3c-2.4,2.3-5.5,4.2-9,5.3
		l-1.9-4.3c2.4-1.1,4.4-2.4,5.8-3.9c2.5-2.5,3.7-5.5,3.7-8.3c0-3.2-1.4-5.7-4.1-8.5L75.5,29.8z M57.7,35.7l1.6,4.4l3.7-4.4h7.2
		l-8.4,9.2l3.8,9h-6.6l-1.6-4.6l-3.9,4.6h-7.2l8.7-9.4l-3.8-8.7H57.7z M48.4,29.9l1.9,4.3c-2.4,1.1-4.4,2.4-5.8,3.9
		c-2.5,2.5-3.7,5.5-3.7,8.3c0,3.2,1.4,5.7,4.1,8.5l-3.6,3.7c-4.2-3.2-6.6-7.1-6.6-12.1c0-4.5,1.8-8.3,4.8-11.3
		C41.7,32.9,44.8,31.1,48.4,29.9z M13.7,60.4c0.7,0.3,1.5,0.4,2.1,0.4c1.3,0,2-0.5,2.3-1.7c1-3.7,3.8-14.6,4.8-18.4h0l0,0h-2.1
		l1.4-5.1h2.1l0.1-0.4c0.5-2,1.2-3.3,2.2-4.3c1.3-1.3,3.2-1.9,5.6-1.9c1.6,0,2.8,0.2,4.1,0.6l-1.2,4.5c-0.7-0.3-1.5-0.4-2.1-0.4
		c-1.3,0-2,0.5-2.3,1.7l-0.1,0.3h4.1l-1.3,5h-4c-1,4-4,14.7-5,18.5c-0.5,2-1.2,3.3-2.2,4.3c-1.3,1.3-3.2,1.9-5.6,1.9
		c-1.6,0-2.8-0.2-4.1-0.6L13.7,60.4z"/>
</g>
</svg>
