<?xml version="1.0" encoding="utf-8"?>
<!-- Generator: Adobe Illustrator 22.0.1, SVG Export Plug-In . SVG Version: 6.00 Build 0)  -->
<svg version="1.1" id="ARTWORK" xmlns="http://www.w3.org/2000/svg" xmlns:xlink="http://www.w3.org/1999/xlink" x="0px" y="0px"
	 viewBox="0 0 473.3 767.3" style="enable-background:new 0 0 473.3 767.3;" xml:space="preserve">
<style type="text/css">
	.st0{fill:#797979;}
	.st1{fill:#818181;}
	.st2{fill:#2A2A2A;}
	.st3{fill:#FFFFFF;}
	.st4{font-family:'OpenSans-Bold';}
	.st5{font-size:51.7956px;}
</style>
<rect x="10.4" y="7" class="st0" width="453.4" height="91.8"/>
<g>
	<g>
		<polygon class="st1" points="265.7,288 265.7,229.3 120.2,229.3 120.2,458.5 265.7,458.5 265.7,399.8 179,399.8 179,288 		"/>
		<g>
			<rect x="295" y="229.3" class="st2" width="58.7" height="58.7"/>
			<rect x="295" y="317.4" class="st2" width="58.7" height="141.1"/>
		</g>
	</g>
	<path class="st2" d="M31.9,138.8V549h410.2V138.8H31.9z M383.2,487.9H90.9V199.8h292.3L383.2,487.9L383.2,487.9z"/>
</g>
<g>
	<path class="st0" d="M460.6,120.3v526.5h-447V120.3H460.6 M463.6,117.3h-3h-447h-3v3v526.5v3h3h447h3v-3V120.3V117.3L463.6,117.3z"
		/>
</g>
<rect x="9.5" y="668.6" class="st0" width="454.2" height="91.8"/>
<text transform="matrix(1 0 0 1 126.642 736.5329)" class="st3 st4 st5">VERSION</text>
<text transform="matrix(1 0 0 1 171.9633 72.9186)" class="st3 st4 st5">SPEC</text>
<g>
	<path class="st0" d="M61.5,577.3c-4.8,0-8.6,1.8-11.2,5.4s-4,8.7-4,15.1c0,13.5,5.1,20.2,15.2,20.2c4.2,0,9.4-1.1,15.4-3.2v10.7
		c-5,2.1-10.5,3.1-16.6,3.1c-8.8,0-15.5-2.7-20.2-8s-7-13-7-23c0-6.3,1.1-11.8,3.4-16.5c2.3-4.7,5.6-8.3,9.9-10.9
		c4.3-2.5,9.3-3.8,15.1-3.8c5.9,0,11.8,1.4,17.7,4.3l-4.1,10.4c-2.3-1.1-4.5-2-6.8-2.8C66,577.7,63.7,577.3,61.5,577.3z"/>
	<path class="st0" d="M124.6,628H89.8v-60.4h34.8V578h-22v13.3H123v10.5h-20.5v15.6h22L124.6,628L124.6,628z"/>
	<path class="st0" d="M150,604.8V628h-12.8v-60.4h17.6c8.2,0,14.3,1.5,18.2,4.5s5.9,7.5,5.9,13.6c0,3.6-1,6.7-2.9,9.5
		c-2,2.8-4.7,4.9-8.3,6.5c9.1,13.6,15,22.4,17.8,26.3h-14.2l-14.4-23.2L150,604.8L150,604.8z M150,594.4h4.1c4,0,7-0.7,9-2
		c1.9-1.3,2.9-3.5,2.9-6.4s-1-4.9-3-6.1c-2-1.2-5-1.8-9.2-1.8H150V594.4z"/>
	<path class="st0" d="M216.3,628h-12.8v-49.7h-16.4v-10.7h45.6v10.7h-16.4L216.3,628L216.3,628z"/>
	<path class="st0" d="M242,628v-60.4h12.8V628H242z"/>
	<path class="st0" d="M282.6,628H270v-60.4h34.6V578h-22v15.6h20.5v10.5h-20.5V628z"/>
	<path class="st0" d="M316.5,628v-60.4h12.8V628H316.5z"/>
	<path class="st0" d="M379.3,628h-34.8v-60.4h34.8V578h-22v13.3h20.5v10.5h-20.5v15.6h22V628z"/>
	<path class="st0" d="M442,597.2c0,9.9-2.8,17.6-8.5,22.8c-5.7,5.3-13.8,7.9-24.5,7.9h-17.1v-60.4h19c9.9,0,17.5,2.6,23,7.8
		C439.3,580.6,442,587.8,442,597.2z M428.7,597.5c0-13-5.7-19.5-17.2-19.5h-6.8v39.3h5.5C422.5,617.4,428.7,610.8,428.7,597.5z"/>
</g>
</svg>
