<?xml version="1.0" encoding="utf-8"?>
<!-- Generator: Adobe Illustrator 21.1.0, SVG Export Plug-In . SVG Version: 6.00 Build 0)  -->
<svg version="1.1" id="Layer_1" xmlns="http://www.w3.org/2000/svg" xmlns:xlink="http://www.w3.org/1999/xlink" x="0px" y="0px"
	 viewBox="0 0 880 284" style="enable-background:new 0 0 880 284;" xml:space="preserve">
<style type="text/css">
	.st0{fill:#808184;}
	.st1{fill:#262261;}
</style>
<g>
	<g>
		<g>
			<path class="st0" d="M326.8,168.3c-6.8,6.6-15.2,10-25.1,10c-9.9,0-18.3-3.3-25.1-10c-6.8-6.6-10.2-14.9-10.2-24.8
				c0-9.9,3.4-18.1,10.2-24.8c6.8-6.6,15.2-10,25.1-10c9.9,0,18.3,3.3,25.1,10c6.8,6.6,10.2,14.9,10.2,24.8
				C337,153.4,333.6,161.7,326.8,168.3z M321.7,143.6c0-6-1.9-11.1-5.8-15.3c-3.8-4.2-8.6-6.3-14.2-6.3c-5.6,0-10.3,2.1-14.2,6.3
				c-3.8,4.2-5.8,9.3-5.8,15.3c0,6,1.9,11.1,5.8,15.3c3.8,4.2,8.6,6.3,14.2,6.3c5.6,0,10.3-2.1,14.2-6.3
				C319.8,154.7,321.7,149.6,321.7,143.6z"/>
			<path class="st0" d="M399.3,116.4c4.7,4,7.1,10.2,7.1,18.5c0,8.3-2.4,14.4-7.3,18.2c-4.8,3.8-12.2,5.8-22.2,5.8H368v18.8h-15
				v-67.2h23.8C387.1,110.4,394.6,112.4,399.3,116.4z M388.3,142.8c1.8-2,2.7-5,2.7-8.8c0-3.9-1.2-6.6-3.5-8.3
				c-2.3-1.6-6-2.5-10.9-2.5H368v22.6h10.1C383.1,145.9,386.5,144.9,388.3,142.8z"/>
			<path class="st0" d="M470.4,110.4v13.4h-33.5v13.8H467v12.8h-30.1v13.9h34.5v13.3h-49.5v-67.2H470.4z"/>
			<path class="st0" d="M535.6,110.4h15v67.2h-15l-32-42.1v42.1h-15v-67.2h14l33,43.3V110.4z"/>
		</g>
		<g>
			<g>
				<path class="st1" d="M597.5,131.5c1.5,0,2.7-0.2,3.7-0.7c1-0.5,2.1-1.3,3.3-2.3l2.7,2.8c-2.6,2.9-5.8,4.4-9.6,4.4
					c-3.8,0-6.9-1.2-9.4-3.6c-2.5-2.4-3.7-5.5-3.7-9.2c0-3.7,1.3-6.8,3.8-9.3c2.5-2.5,5.7-3.7,9.6-3.7c3.9,0,7.1,1.4,9.7,4.3
					l-2.7,2.9c-1.2-1.1-2.3-1.9-3.4-2.4c-1.1-0.5-2.3-0.7-3.7-0.7c-2.5,0-4.6,0.8-6.3,2.4c-1.7,1.6-2.6,3.7-2.6,6.2
					c0,2.5,0.9,4.6,2.6,6.3C593.1,130.6,595.1,131.5,597.5,131.5z"/>
				<path class="st1" d="M633.7,131.9c-2.5,2.5-5.6,3.7-9.3,3.7c-3.7,0-6.8-1.2-9.3-3.7c-2.5-2.5-3.8-5.5-3.8-9.2s1.3-6.7,3.8-9.2
					c2.5-2.5,5.6-3.7,9.3-3.7c3.7,0,6.8,1.2,9.3,3.7c2.5,2.5,3.8,5.5,3.8,9.2S636.2,129.4,633.7,131.9z M630.6,116.3
					c-1.7-1.8-3.8-2.6-6.3-2.6s-4.6,0.9-6.3,2.6c-1.7,1.8-2.6,3.9-2.6,6.4s0.9,4.6,2.6,6.4c1.7,1.8,3.8,2.6,6.3,2.6s4.6-0.9,6.3-2.6
					c1.7-1.8,2.6-3.9,2.6-6.4S632.3,118,630.6,116.3z"/>
				<path class="st1" d="M662.8,110.4h4.2v24.9h-4.6l-14.1-18.2v18.2h-4.2v-24.9h4.2l14.5,18.6V110.4z"/>
				<path class="st1" d="M685.2,114.2v21.1H681v-21.1h-7.6v-3.9h19.3v3.9H685.2z"/>
				<path class="st1" d="M700.9,129.6l-2.5,5.7h-4.5l11-24.9h4.5l11,24.9h-4.5l-2.5-5.7H700.9z M711.7,125.8l-4.5-10.3l-4.5,10.3
					H711.7z"/>
				<path class="st1" d="M726.6,110.4h4.2v24.9h-4.2V110.4z"/>
				<path class="st1" d="M758.6,110.4h4.2v24.9h-4.6l-14.1-18.2v18.2h-4.2v-24.9h4.2l14.5,18.6V110.4z"/>
				<path class="st1" d="M789.2,110.4v4h-13.3v6.6h11.9v3.7h-11.9v6.7h13.7v4h-17.9v-24.9H789.2z"/>
				<path class="st1" d="M817,118.5c0,4.1-1.8,6.7-5.4,7.8l6.5,9.1h-5.4l-6-8.4h-5.5v8.4h-4.2v-24.9h9.3c3.8,0,6.5,0.6,8.2,1.9
					C816.2,113.6,817,115.6,817,118.5z M811.4,122c0.9-0.7,1.3-1.9,1.3-3.5c0-1.6-0.4-2.7-1.3-3.4c-0.9-0.6-2.4-0.9-4.7-0.9h-5.4
					v8.9h5.2C808.9,123.1,810.5,122.7,811.4,122z"/>
			</g>
			<path class="st1" d="M586.1,152.7h4.2v24.9h-4.2V152.7z"/>
			<path class="st1" d="M621.3,152.7h4.2v24.9h-4.6l-14.1-18.2v18.2h-4.2v-24.9h4.2l14.5,18.6V152.7z"/>
			<path class="st1" d="M637.8,152.7h4.2v24.9h-4.2V152.7z"/>
			<path class="st1" d="M663.3,156.5v21.1h-4.2v-21.1h-7.6v-3.9h19.3v3.9H663.3z"/>
			<path class="st1" d="M680.5,152.7h4.2v24.9h-4.2V152.7z"/>
			<path class="st1" d="M700.7,171.9l-2.5,5.7h-4.5l11-24.9h4.5l11,24.9h-4.5l-2.5-5.7H700.7z M711.5,168l-4.5-10.3l-4.5,10.3H711.5
				z"/>
			<path class="st1" d="M736,156.5v21.1h-4.2v-21.1h-7.6v-3.9h19.3v3.9H736z"/>
			<path class="st1" d="M753.1,152.7h4.2v24.9h-4.2V152.7z"/>
			<path class="st1" d="M781.2,177.6h-4.7l-10-24.9h4.7l7.7,18.6l7.7-18.6h4.7L781.2,177.6z"/>
			<path class="st1" d="M817.8,152.7v4h-13.3v6.6h11.9v3.7h-11.9v6.7h13.7v4h-17.9v-24.9H817.8z"/>
		</g>
	</g>
	<g>
		<g>
			<polygon class="st0" points="161.6,121.1 161.6,97.6 103.2,97.6 103.2,189.6 161.6,189.6 161.6,166 126.8,166 126.8,121.1 			"/>
			<g>
				<rect x="173.4" y="97.6" class="st1" width="23.6" height="23.6"/>
				<rect x="173.4" y="132.9" class="st1" width="23.6" height="56.6"/>
			</g>
		</g>
		<path class="st1" d="M67.8,61.3v164.6h164.6V61.3H67.8z M208.7,201.4H91.4V85.7h117.3V201.4z"/>
	</g>
</g>
</svg>
